ISO-10303-21;
HEADER;
/* Generated by software containing ST-Developer
 * from STEP Tools, Inc. (www.steptools.com) 
 */

FILE_DESCRIPTION(
/* description */ (''),
/* implementation_level */ '2;1');

FILE_NAME(
/* name */ 'Mini humidifer case_Drop.step',
/* time_stamp */ '2026-03-17T21:10:57-07:00',
/* author */ (''),
/* organization */ (''),
/* preprocessor_version */ 'ST-DEVELOPER v20.1',
/* originating_system */ 'Autodesk Translation Framework v14.24.0.0',
/* authorisation */ '');

FILE_SCHEMA (('AUTOMOTIVE_DESIGN { 1 0 10303 214 3 1 1 }'));
ENDSEC;

DATA;
#10=MECHANICAL_DESIGN_GEOMETRIC_PRESENTATION_REPRESENTATION('',(#16,#17,
#18,#19),#1688);
#11=SHAPE_REPRESENTATION_RELATIONSHIP('SRR','None',#1695,#12);
#12=ADVANCED_BREP_SHAPE_REPRESENTATION('',(#20,#21,#22,#23),#1687);
#13=CONICAL_SURFACE('',#1068,10.25,0.785398163397448);
#14=CONICAL_SURFACE('',#1081,36.9,0.165148677414628);
#15=CONICAL_SURFACE('',#1086,1.35,0.165148677414626);
#16=STYLED_ITEM('',(#1705),#20);
#17=STYLED_ITEM('',(#1704),#21);
#18=STYLED_ITEM('',(#1704),#22);
#19=STYLED_ITEM('',(#1705),#23);
#20=MANIFOLD_SOLID_BREP('Body2',#986);
#21=MANIFOLD_SOLID_BREP('Body5',#987);
#22=MANIFOLD_SOLID_BREP('Body7',#988);
#23=MANIFOLD_SOLID_BREP('Body3',#989);
#24=CYLINDRICAL_SURFACE('',#1008,37.5);
#25=CYLINDRICAL_SURFACE('',#1012,0.100000000000016);
#26=CYLINDRICAL_SURFACE('',#1019,40.5);
#27=CYLINDRICAL_SURFACE('',#1023,1.6);
#28=CYLINDRICAL_SURFACE('',#1027,1.5);
#29=CYLINDRICAL_SURFACE('',#1031,4.);
#30=CYLINDRICAL_SURFACE('',#1034,1.);
#31=CYLINDRICAL_SURFACE('',#1037,40.5);
#32=CYLINDRICAL_SURFACE('',#1042,10.25);
#33=CYLINDRICAL_SURFACE('',#1045,13.25);
#34=CYLINDRICAL_SURFACE('',#1055,7.25);
#35=CYLINDRICAL_SURFACE('',#1059,7.25);
#36=CYLINDRICAL_SURFACE('',#1063,10.);
#37=CYLINDRICAL_SURFACE('',#1071,7.75);
#38=CYLINDRICAL_SURFACE('',#1077,13.25);
#39=CYLINDRICAL_SURFACE('',#1093,34.);
#40=CYLINDRICAL_SURFACE('',#1096,2.75);
#41=CYLINDRICAL_SURFACE('',#1101,2.25);
#42=CYLINDRICAL_SURFACE('',#1104,1.);
#43=CYLINDRICAL_SURFACE('',#1106,40.5);
#44=FACE_BOUND('',#119,.T.);
#45=FACE_BOUND('',#126,.T.);
#46=FACE_BOUND('',#140,.T.);
#47=FACE_BOUND('',#141,.T.);
#48=FACE_BOUND('',#143,.T.);
#49=FACE_BOUND('',#161,.T.);
#50=FACE_BOUND('',#163,.T.);
#51=FACE_BOUND('',#167,.T.);
#52=FACE_BOUND('',#168,.T.);
#53=FACE_BOUND('',#171,.T.);
#54=FACE_BOUND('',#177,.T.);
#55=FACE_BOUND('',#183,.T.);
#56=FACE_BOUND('',#190,.T.);
#57=FACE_BOUND('',#191,.T.);
#58=FACE_OUTER_BOUND('',#118,.T.);
#59=FACE_OUTER_BOUND('',#120,.T.);
#60=FACE_OUTER_BOUND('',#121,.T.);
#61=FACE_OUTER_BOUND('',#122,.T.);
#62=FACE_OUTER_BOUND('',#123,.T.);
#63=FACE_OUTER_BOUND('',#124,.T.);
#64=FACE_OUTER_BOUND('',#125,.T.);
#65=FACE_OUTER_BOUND('',#127,.T.);
#66=FACE_OUTER_BOUND('',#128,.T.);
#67=FACE_OUTER_BOUND('',#129,.T.);
#68=FACE_OUTER_BOUND('',#130,.T.);
#69=FACE_OUTER_BOUND('',#131,.T.);
#70=FACE_OUTER_BOUND('',#132,.T.);
#71=FACE_OUTER_BOUND('',#133,.T.);
#72=FACE_OUTER_BOUND('',#134,.T.);
#73=FACE_OUTER_BOUND('',#135,.T.);
#74=FACE_OUTER_BOUND('',#136,.T.);
#75=FACE_OUTER_BOUND('',#137,.T.);
#76=FACE_OUTER_BOUND('',#138,.T.);
#77=FACE_OUTER_BOUND('',#139,.T.);
#78=FACE_OUTER_BOUND('',#142,.T.);
#79=FACE_OUTER_BOUND('',#144,.T.);
#80=FACE_OUTER_BOUND('',#145,.T.);
#81=FACE_OUTER_BOUND('',#146,.T.);
#82=FACE_OUTER_BOUND('',#147,.T.);
#83=FACE_OUTER_BOUND('',#148,.T.);
#84=FACE_OUTER_BOUND('',#149,.T.);
#85=FACE_OUTER_BOUND('',#150,.T.);
#86=FACE_OUTER_BOUND('',#151,.T.);
#87=FACE_OUTER_BOUND('',#152,.T.);
#88=FACE_OUTER_BOUND('',#153,.T.);
#89=FACE_OUTER_BOUND('',#154,.T.);
#90=FACE_OUTER_BOUND('',#155,.T.);
#91=FACE_OUTER_BOUND('',#156,.T.);
#92=FACE_OUTER_BOUND('',#157,.T.);
#93=FACE_OUTER_BOUND('',#158,.T.);
#94=FACE_OUTER_BOUND('',#159,.T.);
#95=FACE_OUTER_BOUND('',#160,.T.);
#96=FACE_OUTER_BOUND('',#162,.T.);
#97=FACE_OUTER_BOUND('',#164,.T.);
#98=FACE_OUTER_BOUND('',#165,.T.);
#99=FACE_OUTER_BOUND('',#166,.T.);
#100=FACE_OUTER_BOUND('',#169,.T.);
#101=FACE_OUTER_BOUND('',#170,.T.);
#102=FACE_OUTER_BOUND('',#172,.T.);
#103=FACE_OUTER_BOUND('',#173,.T.);
#104=FACE_OUTER_BOUND('',#174,.T.);
#105=FACE_OUTER_BOUND('',#175,.T.);
#106=FACE_OUTER_BOUND('',#176,.T.);
#107=FACE_OUTER_BOUND('',#178,.T.);
#108=FACE_OUTER_BOUND('',#179,.T.);
#109=FACE_OUTER_BOUND('',#180,.T.);
#110=FACE_OUTER_BOUND('',#181,.T.);
#111=FACE_OUTER_BOUND('',#182,.T.);
#112=FACE_OUTER_BOUND('',#184,.T.);
#113=FACE_OUTER_BOUND('',#185,.T.);
#114=FACE_OUTER_BOUND('',#186,.T.);
#115=FACE_OUTER_BOUND('',#187,.T.);
#116=FACE_OUTER_BOUND('',#188,.T.);
#117=FACE_OUTER_BOUND('',#189,.T.);
#118=EDGE_LOOP('',(#627,#628,#629,#630));
#119=EDGE_LOOP('',(#631));
#120=EDGE_LOOP('',(#632,#633,#634,#635));
#121=EDGE_LOOP('',(#636,#637,#638,#639));
#122=EDGE_LOOP('',(#640,#641,#642,#643));
#123=EDGE_LOOP('',(#644,#645,#646,#647));
#124=EDGE_LOOP('',(#648,#649,#650,#651));
#125=EDGE_LOOP('',(#652,#653,#654,#655));
#126=EDGE_LOOP('',(#656,#657,#658,#659));
#127=EDGE_LOOP('',(#660,#661,#662,#663));
#128=EDGE_LOOP('',(#664,#665,#666,#667));
#129=EDGE_LOOP('',(#668,#669,#670,#671));
#130=EDGE_LOOP('',(#672,#673,#674,#675));
#131=EDGE_LOOP('',(#676,#677,#678,#679));
#132=EDGE_LOOP('',(#680,#681,#682,#683));
#133=EDGE_LOOP('',(#684,#685,#686,#687,#688,#689));
#134=EDGE_LOOP('',(#690,#691,#692,#693));
#135=EDGE_LOOP('',(#694,#695,#696,#697));
#136=EDGE_LOOP('',(#698,#699,#700,#701));
#137=EDGE_LOOP('',(#702,#703,#704,#705));
#138=EDGE_LOOP('',(#706,#707,#708,#709));
#139=EDGE_LOOP('',(#710,#711,#712,#713));
#140=EDGE_LOOP('',(#714,#715,#716,#717));
#141=EDGE_LOOP('',(#718,#719,#720,#721,#722,#723));
#142=EDGE_LOOP('',(#724,#725,#726,#727));
#143=EDGE_LOOP('',(#728));
#144=EDGE_LOOP('',(#729,#730,#731,#732));
#145=EDGE_LOOP('',(#733,#734,#735,#736,#737,#738));
#146=EDGE_LOOP('',(#739,#740,#741,#742));
#147=EDGE_LOOP('',(#743,#744,#745,#746,#747,#748));
#148=EDGE_LOOP('',(#749,#750,#751,#752));
#149=EDGE_LOOP('',(#753,#754,#755,#756));
#150=EDGE_LOOP('',(#757,#758,#759,#760));
#151=EDGE_LOOP('',(#761,#762,#763,#764));
#152=EDGE_LOOP('',(#765,#766,#767,#768));
#153=EDGE_LOOP('',(#769,#770,#771,#772));
#154=EDGE_LOOP('',(#773,#774,#775,#776));
#155=EDGE_LOOP('',(#777,#778,#779,#780));
#156=EDGE_LOOP('',(#781));
#157=EDGE_LOOP('',(#782,#783,#784,#785));
#158=EDGE_LOOP('',(#786));
#159=EDGE_LOOP('',(#787,#788,#789,#790));
#160=EDGE_LOOP('',(#791));
#161=EDGE_LOOP('',(#792));
#162=EDGE_LOOP('',(#793));
#163=EDGE_LOOP('',(#794));
#164=EDGE_LOOP('',(#795,#796,#797,#798));
#165=EDGE_LOOP('',(#799,#800,#801,#802));
#166=EDGE_LOOP('',(#803,#804,#805,#806));
#167=EDGE_LOOP('',(#807));
#168=EDGE_LOOP('',(#808));
#169=EDGE_LOOP('',(#809,#810,#811,#812));
#170=EDGE_LOOP('',(#813));
#171=EDGE_LOOP('',(#814));
#172=EDGE_LOOP('',(#815,#816,#817,#818));
#173=EDGE_LOOP('',(#819,#820,#821,#822));
#174=EDGE_LOOP('',(#823,#824,#825,#826));
#175=EDGE_LOOP('',(#827,#828,#829,#830));
#176=EDGE_LOOP('',(#831,#832,#833,#834));
#177=EDGE_LOOP('',(#835,#836,#837,#838));
#178=EDGE_LOOP('',(#839,#840,#841,#842));
#179=EDGE_LOOP('',(#843,#844,#845,#846));
#180=EDGE_LOOP('',(#847,#848,#849,#850));
#181=EDGE_LOOP('',(#851,#852,#853,#854));
#182=EDGE_LOOP('',(#855,#856,#857,#858));
#183=EDGE_LOOP('',(#859,#860,#861,#862));
#184=EDGE_LOOP('',(#863,#864,#865,#866));
#185=EDGE_LOOP('',(#867,#868,#869,#870));
#186=EDGE_LOOP('',(#871,#872,#873,#874));
#187=EDGE_LOOP('',(#875,#876,#877,#878));
#188=EDGE_LOOP('',(#879,#880,#881,#882));
#189=EDGE_LOOP('',(#883,#884,#885,#886));
#190=EDGE_LOOP('',(#887));
#191=EDGE_LOOP('',(#888));
#192=LINE('',#1412,#278);
#193=LINE('',#1414,#279);
#194=LINE('',#1415,#280);
#195=LINE('',#1421,#281);
#196=LINE('',#1422,#282);
#197=LINE('',#1423,#283);
#198=LINE('',#1427,#284);
#199=LINE('',#1429,#285);
#200=LINE('',#1431,#286);
#201=LINE('',#1432,#287);
#202=LINE('',#1438,#288);
#203=LINE('',#1441,#289);
#204=LINE('',#1443,#290);
#205=LINE('',#1444,#291);
#206=LINE('',#1453,#292);
#207=LINE('',#1456,#293);
#208=LINE('',#1460,#294);
#209=LINE('',#1462,#295);
#210=LINE('',#1464,#296);
#211=LINE('',#1465,#297);
#212=LINE('',#1471,#298);
#213=LINE('',#1474,#299);
#214=LINE('',#1476,#300);
#215=LINE('',#1477,#301);
#216=LINE('',#1483,#302);
#217=LINE('',#1486,#303);
#218=LINE('',#1488,#304);
#219=LINE('',#1489,#305);
#220=LINE('',#1497,#306);
#221=LINE('',#1501,#307);
#222=LINE('',#1502,#308);
#223=LINE('',#1503,#309);
#224=LINE('',#1507,#310);
#225=LINE('',#1510,#311);
#226=LINE('',#1511,#312);
#227=LINE('',#1516,#313);
#228=LINE('',#1518,#314);
#229=LINE('',#1523,#315);
#230=LINE('',#1526,#316);
#231=LINE('',#1529,#317);
#232=LINE('',#1530,#318);
#233=LINE('',#1534,#319);
#234=LINE('',#1536,#320);
#235=LINE('',#1541,#321);
#236=LINE('',#1543,#322);
#237=LINE('',#1545,#323);
#238=LINE('',#1546,#324);
#239=LINE('',#1549,#325);
#240=LINE('',#1551,#326);
#241=LINE('',#1552,#327);
#242=LINE('',#1555,#328);
#243=LINE('',#1557,#329);
#244=LINE('',#1558,#330);
#245=LINE('',#1560,#331);
#246=LINE('',#1561,#332);
#247=LINE('',#1568,#333);
#248=LINE('',#1575,#334);
#249=LINE('',#1582,#335);
#250=LINE('',#1590,#336);
#251=LINE('',#1595,#337);
#252=LINE('',#1601,#338);
#253=LINE('',#1604,#339);
#254=LINE('',#1611,#340);
#255=LINE('',#1617,#341);
#256=LINE('',#1621,#342);
#257=LINE('',#1625,#343);
#258=LINE('',#1627,#344);
#259=LINE('',#1628,#345);
#260=LINE('',#1632,#346);
#261=LINE('',#1633,#347);
#262=LINE('',#1634,#348);
#263=LINE('',#1643,#349);
#264=LINE('',#1646,#350);
#265=LINE('',#1650,#351);
#266=LINE('',#1651,#352);
#267=LINE('',#1652,#353);
#268=LINE('',#1656,#354);
#269=LINE('',#1659,#355);
#270=LINE('',#1660,#356);
#271=LINE('',#1668,#357);
#272=LINE('',#1671,#358);
#273=LINE('',#1674,#359);
#274=LINE('',#1677,#360);
#275=LINE('',#1678,#361);
#276=LINE('',#1680,#362);
#277=LINE('',#1682,#363);
#278=VECTOR('',#1114,10.);
#279=VECTOR('',#1115,10.);
#280=VECTOR('',#1116,10.);
#281=VECTOR('',#1121,10.);
#282=VECTOR('',#1122,10.);
#283=VECTOR('',#1123,10.);
#284=VECTOR('',#1126,10.);
#285=VECTOR('',#1127,10.);
#286=VECTOR('',#1128,10.);
#287=VECTOR('',#1129,10.);
#288=VECTOR('',#1136,10.);
#289=VECTOR('',#1139,10.);
#290=VECTOR('',#1140,10.);
#291=VECTOR('',#1141,10.);
#292=VECTOR('',#1152,10.);
#293=VECTOR('',#1155,10.);
#294=VECTOR('',#1158,10.);
#295=VECTOR('',#1159,10.);
#296=VECTOR('',#1160,10.);
#297=VECTOR('',#1161,10.);
#298=VECTOR('',#1168,10.);
#299=VECTOR('',#1171,10.);
#300=VECTOR('',#1172,10.);
#301=VECTOR('',#1173,10.);
#302=VECTOR('',#1180,10.);
#303=VECTOR('',#1183,10.);
#304=VECTOR('',#1184,10.);
#305=VECTOR('',#1185,10.);
#306=VECTOR('',#1198,4.);
#307=VECTOR('',#1201,10.);
#308=VECTOR('',#1202,10.);
#309=VECTOR('',#1203,10.);
#310=VECTOR('',#1208,10.);
#311=VECTOR('',#1211,10.);
#312=VECTOR('',#1212,10.);
#313=VECTOR('',#1219,10.);
#314=VECTOR('',#1220,10.);
#315=VECTOR('',#1227,10.);
#316=VECTOR('',#1230,10.);
#317=VECTOR('',#1233,10.);
#318=VECTOR('',#1234,10.);
#319=VECTOR('',#1239,10.);
#320=VECTOR('',#1242,10.);
#321=VECTOR('',#1247,10.);
#322=VECTOR('',#1248,10.);
#323=VECTOR('',#1249,10.);
#324=VECTOR('',#1250,10.);
#325=VECTOR('',#1253,10.);
#326=VECTOR('',#1254,10.);
#327=VECTOR('',#1255,10.);
#328=VECTOR('',#1258,10.);
#329=VECTOR('',#1259,10.);
#330=VECTOR('',#1260,10.);
#331=VECTOR('',#1263,10.);
#332=VECTOR('',#1264,10.);
#333=VECTOR('',#1273,7.25);
#334=VECTOR('',#1282,7.25);
#335=VECTOR('',#1291,10.);
#336=VECTOR('',#1302,10.25);
#337=VECTOR('',#1309,7.75);
#338=VECTOR('',#1314,10.);
#339=VECTOR('',#1317,10.);
#340=VECTOR('',#1324,13.25);
#341=VECTOR('',#1331,10.);
#342=VECTOR('',#1334,10.);
#343=VECTOR('',#1339,10.);
#344=VECTOR('',#1340,10.);
#345=VECTOR('',#1341,10.);
#346=VECTOR('',#1344,10.);
#347=VECTOR('',#1345,10.);
#348=VECTOR('',#1346,10.);
#349=VECTOR('',#1357,10.);
#350=VECTOR('',#1360,10.);
#351=VECTOR('',#1363,10.);
#352=VECTOR('',#1364,10.);
#353=VECTOR('',#1365,10.);
#354=VECTOR('',#1370,10.);
#355=VECTOR('',#1373,10.);
#356=VECTOR('',#1374,10.);
#357=VECTOR('',#1383,10.);
#358=VECTOR('',#1386,10.);
#359=VECTOR('',#1389,2.25);
#360=VECTOR('',#1394,10.);
#361=VECTOR('',#1395,10.);
#362=VECTOR('',#1398,10.);
#363=VECTOR('',#1401,10.);
#364=CIRCLE('',#1004,10.25);
#365=CIRCLE('',#1005,4.);
#366=CIRCLE('',#1009,37.5);
#367=CIRCLE('',#1010,37.5);
#368=CIRCLE('',#1013,0.100000000000016);
#369=CIRCLE('',#1014,0.100000000000016);
#370=CIRCLE('',#1016,40.5);
#371=CIRCLE('',#1017,1.);
#372=CIRCLE('',#1020,40.5);
#373=CIRCLE('',#1021,40.5);
#374=CIRCLE('',#1024,1.6);
#375=CIRCLE('',#1025,1.6);
#376=CIRCLE('',#1028,1.5);
#377=CIRCLE('',#1029,1.5);
#378=CIRCLE('',#1032,4.);
#379=CIRCLE('',#1035,1.);
#380=CIRCLE('',#1038,40.5);
#381=CIRCLE('',#1040,13.25);
#382=CIRCLE('',#1043,10.25);
#383=CIRCLE('',#1046,13.25);
#384=CIRCLE('',#1056,7.25);
#385=CIRCLE('',#1057,7.25);
#386=CIRCLE('',#1060,7.25);
#387=CIRCLE('',#1061,7.25);
#388=CIRCLE('',#1064,10.);
#389=CIRCLE('',#1065,10.);
#390=CIRCLE('',#1069,7.75);
#391=CIRCLE('',#1070,12.75);
#392=CIRCLE('',#1072,7.75);
#393=CIRCLE('',#1074,40.5);
#394=CIRCLE('',#1075,1.);
#395=CIRCLE('',#1076,2.25);
#396=CIRCLE('',#1078,13.25);
#397=CIRCLE('',#1079,13.25);
#398=CIRCLE('',#1082,36.65);
#399=CIRCLE('',#1083,37.15);
#400=CIRCLE('',#1087,1.1);
#401=CIRCLE('',#1088,1.6);
#402=CIRCLE('',#1090,2.75);
#403=CIRCLE('',#1091,34.);
#404=CIRCLE('',#1094,34.);
#405=CIRCLE('',#1097,2.75);
#406=CIRCLE('',#1099,40.5);
#407=CIRCLE('',#1100,1.);
#408=CIRCLE('',#1102,2.25);
#409=VERTEX_POINT('',#1408);
#410=VERTEX_POINT('',#1409);
#411=VERTEX_POINT('',#1411);
#412=VERTEX_POINT('',#1413);
#413=VERTEX_POINT('',#1416);
#414=VERTEX_POINT('',#1419);
#415=VERTEX_POINT('',#1420);
#416=VERTEX_POINT('',#1425);
#417=VERTEX_POINT('',#1426);
#418=VERTEX_POINT('',#1428);
#419=VERTEX_POINT('',#1430);
#420=VERTEX_POINT('',#1434);
#421=VERTEX_POINT('',#1436);
#422=VERTEX_POINT('',#1440);
#423=VERTEX_POINT('',#1442);
#424=VERTEX_POINT('',#1449);
#425=VERTEX_POINT('',#1450);
#426=VERTEX_POINT('',#1452);
#427=VERTEX_POINT('',#1454);
#428=VERTEX_POINT('',#1458);
#429=VERTEX_POINT('',#1459);
#430=VERTEX_POINT('',#1461);
#431=VERTEX_POINT('',#1463);
#432=VERTEX_POINT('',#1467);
#433=VERTEX_POINT('',#1469);
#434=VERTEX_POINT('',#1473);
#435=VERTEX_POINT('',#1475);
#436=VERTEX_POINT('',#1479);
#437=VERTEX_POINT('',#1481);
#438=VERTEX_POINT('',#1485);
#439=VERTEX_POINT('',#1487);
#440=VERTEX_POINT('',#1495);
#441=VERTEX_POINT('',#1499);
#442=VERTEX_POINT('',#1500);
#443=VERTEX_POINT('',#1505);
#444=VERTEX_POINT('',#1509);
#445=VERTEX_POINT('',#1515);
#446=VERTEX_POINT('',#1517);
#447=VERTEX_POINT('',#1522);
#448=VERTEX_POINT('',#1524);
#449=VERTEX_POINT('',#1528);
#450=VERTEX_POINT('',#1532);
#451=VERTEX_POINT('',#1539);
#452=VERTEX_POINT('',#1540);
#453=VERTEX_POINT('',#1542);
#454=VERTEX_POINT('',#1544);
#455=VERTEX_POINT('',#1548);
#456=VERTEX_POINT('',#1550);
#457=VERTEX_POINT('',#1554);
#458=VERTEX_POINT('',#1556);
#459=VERTEX_POINT('',#1565);
#460=VERTEX_POINT('',#1567);
#461=VERTEX_POINT('',#1572);
#462=VERTEX_POINT('',#1574);
#463=VERTEX_POINT('',#1579);
#464=VERTEX_POINT('',#1581);
#465=VERTEX_POINT('',#1587);
#466=VERTEX_POINT('',#1589);
#467=VERTEX_POINT('',#1593);
#468=VERTEX_POINT('',#1597);
#469=VERTEX_POINT('',#1598);
#470=VERTEX_POINT('',#1600);
#471=VERTEX_POINT('',#1602);
#472=VERTEX_POINT('',#1605);
#473=VERTEX_POINT('',#1608);
#474=VERTEX_POINT('',#1610);
#475=VERTEX_POINT('',#1615);
#476=VERTEX_POINT('',#1616);
#477=VERTEX_POINT('',#1618);
#478=VERTEX_POINT('',#1620);
#479=VERTEX_POINT('',#1624);
#480=VERTEX_POINT('',#1626);
#481=VERTEX_POINT('',#1630);
#482=VERTEX_POINT('',#1631);
#483=VERTEX_POINT('',#1639);
#484=VERTEX_POINT('',#1640);
#485=VERTEX_POINT('',#1642);
#486=VERTEX_POINT('',#1644);
#487=VERTEX_POINT('',#1648);
#488=VERTEX_POINT('',#1649);
#489=VERTEX_POINT('',#1654);
#490=VERTEX_POINT('',#1658);
#491=VERTEX_POINT('',#1664);
#492=VERTEX_POINT('',#1665);
#493=VERTEX_POINT('',#1667);
#494=VERTEX_POINT('',#1669);
#495=VERTEX_POINT('',#1673);
#496=EDGE_CURVE('',#409,#410,#364,.T.);
#497=EDGE_CURVE('',#410,#411,#192,.T.);
#498=EDGE_CURVE('',#411,#412,#193,.T.);
#499=EDGE_CURVE('',#412,#409,#194,.T.);
#500=EDGE_CURVE('',#413,#413,#365,.T.);
#501=EDGE_CURVE('',#414,#415,#195,.T.);
#502=EDGE_CURVE('',#414,#412,#196,.T.);
#503=EDGE_CURVE('',#415,#411,#197,.T.);
#504=EDGE_CURVE('',#416,#417,#198,.T.);
#505=EDGE_CURVE('',#416,#418,#199,.T.);
#506=EDGE_CURVE('',#419,#418,#200,.T.);
#507=EDGE_CURVE('',#417,#419,#201,.T.);
#508=EDGE_CURVE('',#417,#420,#366,.T.);
#509=EDGE_CURVE('',#421,#419,#367,.T.);
#510=EDGE_CURVE('',#420,#421,#202,.T.);
#511=EDGE_CURVE('',#420,#422,#203,.T.);
#512=EDGE_CURVE('',#423,#421,#204,.T.);
#513=EDGE_CURVE('',#422,#423,#205,.T.);
#514=EDGE_CURVE('',#422,#416,#368,.T.);
#515=EDGE_CURVE('',#418,#423,#369,.T.);
#516=EDGE_CURVE('',#424,#425,#370,.T.);
#517=EDGE_CURVE('',#425,#426,#206,.T.);
#518=EDGE_CURVE('',#426,#427,#371,.T.);
#519=EDGE_CURVE('',#427,#424,#207,.T.);
#520=EDGE_CURVE('',#428,#429,#208,.T.);
#521=EDGE_CURVE('',#428,#430,#209,.T.);
#522=EDGE_CURVE('',#431,#430,#210,.T.);
#523=EDGE_CURVE('',#429,#431,#211,.T.);
#524=EDGE_CURVE('',#429,#432,#372,.T.);
#525=EDGE_CURVE('',#433,#431,#373,.T.);
#526=EDGE_CURVE('',#432,#433,#212,.T.);
#527=EDGE_CURVE('',#432,#434,#213,.T.);
#528=EDGE_CURVE('',#435,#433,#214,.T.);
#529=EDGE_CURVE('',#434,#435,#215,.T.);
#530=EDGE_CURVE('',#434,#436,#374,.T.);
#531=EDGE_CURVE('',#437,#435,#375,.T.);
#532=EDGE_CURVE('',#436,#437,#216,.T.);
#533=EDGE_CURVE('',#436,#438,#217,.T.);
#534=EDGE_CURVE('',#439,#437,#218,.T.);
#535=EDGE_CURVE('',#438,#439,#219,.T.);
#536=EDGE_CURVE('',#438,#428,#376,.T.);
#537=EDGE_CURVE('',#430,#439,#377,.T.);
#538=EDGE_CURVE('',#440,#440,#378,.T.);
#539=EDGE_CURVE('',#440,#413,#220,.T.);
#540=EDGE_CURVE('',#441,#442,#221,.T.);
#541=EDGE_CURVE('',#441,#424,#222,.T.);
#542=EDGE_CURVE('',#442,#427,#223,.T.);
#543=EDGE_CURVE('',#443,#442,#379,.T.);
#544=EDGE_CURVE('',#443,#426,#224,.T.);
#545=EDGE_CURVE('',#443,#444,#225,.T.);
#546=EDGE_CURVE('',#444,#425,#226,.T.);
#547=EDGE_CURVE('',#441,#444,#380,.T.);
#548=EDGE_CURVE('',#445,#414,#227,.T.);
#549=EDGE_CURVE('',#415,#446,#228,.T.);
#550=EDGE_CURVE('',#446,#445,#381,.T.);
#551=EDGE_CURVE('',#409,#447,#229,.T.);
#552=EDGE_CURVE('',#448,#447,#382,.T.);
#553=EDGE_CURVE('',#410,#448,#230,.T.);
#554=EDGE_CURVE('',#449,#448,#231,.T.);
#555=EDGE_CURVE('',#446,#449,#232,.T.);
#556=EDGE_CURVE('',#450,#449,#383,.T.);
#557=EDGE_CURVE('',#445,#450,#233,.T.);
#558=EDGE_CURVE('',#447,#450,#234,.T.);
#559=EDGE_CURVE('',#451,#452,#235,.T.);
#560=EDGE_CURVE('',#451,#453,#236,.T.);
#561=EDGE_CURVE('',#454,#453,#237,.T.);
#562=EDGE_CURVE('',#452,#454,#238,.T.);
#563=EDGE_CURVE('',#452,#455,#239,.T.);
#564=EDGE_CURVE('',#456,#454,#240,.T.);
#565=EDGE_CURVE('',#455,#456,#241,.T.);
#566=EDGE_CURVE('',#455,#457,#242,.T.);
#567=EDGE_CURVE('',#458,#456,#243,.T.);
#568=EDGE_CURVE('',#457,#458,#244,.T.);
#569=EDGE_CURVE('',#457,#451,#245,.T.);
#570=EDGE_CURVE('',#453,#458,#246,.T.);
#571=EDGE_CURVE('',#459,#459,#384,.T.);
#572=EDGE_CURVE('',#459,#460,#247,.T.);
#573=EDGE_CURVE('',#460,#460,#385,.T.);
#574=EDGE_CURVE('',#461,#461,#386,.T.);
#575=EDGE_CURVE('',#461,#462,#248,.T.);
#576=EDGE_CURVE('',#462,#462,#387,.T.);
#577=EDGE_CURVE('',#463,#463,#388,.T.);
#578=EDGE_CURVE('',#463,#464,#249,.T.);
#579=EDGE_CURVE('',#464,#464,#389,.T.);
#580=EDGE_CURVE('',#465,#465,#390,.T.);
#581=EDGE_CURVE('',#465,#466,#250,.T.);
#582=EDGE_CURVE('',#466,#466,#391,.T.);
#583=EDGE_CURVE('',#467,#467,#392,.T.);
#584=EDGE_CURVE('',#467,#465,#251,.T.);
#585=EDGE_CURVE('',#468,#469,#393,.T.);
#586=EDGE_CURVE('',#468,#470,#252,.T.);
#587=EDGE_CURVE('',#471,#470,#394,.T.);
#588=EDGE_CURVE('',#471,#469,#253,.T.);
#589=EDGE_CURVE('',#472,#472,#395,.T.);
#590=EDGE_CURVE('',#473,#473,#396,.T.);
#591=EDGE_CURVE('',#473,#474,#254,.T.);
#592=EDGE_CURVE('',#474,#474,#397,.T.);
#593=EDGE_CURVE('',#475,#476,#255,.T.);
#594=EDGE_CURVE('',#476,#477,#398,.T.);
#595=EDGE_CURVE('',#477,#478,#256,.T.);
#596=EDGE_CURVE('',#475,#478,#399,.T.);
#597=EDGE_CURVE('',#477,#479,#257,.T.);
#598=EDGE_CURVE('',#479,#480,#258,.T.);
#599=EDGE_CURVE('',#478,#480,#259,.T.);
#600=EDGE_CURVE('',#481,#482,#260,.T.);
#601=EDGE_CURVE('',#482,#476,#261,.T.);
#602=EDGE_CURVE('',#481,#475,#262,.T.);
#603=EDGE_CURVE('',#479,#482,#400,.T.);
#604=EDGE_CURVE('',#480,#481,#401,.T.);
#605=EDGE_CURVE('',#483,#484,#402,.T.);
#606=EDGE_CURVE('',#484,#485,#263,.T.);
#607=EDGE_CURVE('',#485,#486,#403,.T.);
#608=EDGE_CURVE('',#486,#483,#264,.T.);
#609=EDGE_CURVE('',#487,#488,#265,.T.);
#610=EDGE_CURVE('',#487,#483,#266,.T.);
#611=EDGE_CURVE('',#488,#486,#267,.T.);
#612=EDGE_CURVE('',#488,#489,#404,.T.);
#613=EDGE_CURVE('',#489,#485,#268,.T.);
#614=EDGE_CURVE('',#489,#490,#269,.T.);
#615=EDGE_CURVE('',#490,#484,#270,.T.);
#616=EDGE_CURVE('',#490,#487,#405,.T.);
#617=EDGE_CURVE('',#491,#492,#406,.T.);
#618=EDGE_CURVE('',#492,#493,#271,.T.);
#619=EDGE_CURVE('',#493,#494,#407,.T.);
#620=EDGE_CURVE('',#494,#491,#272,.T.);
#621=EDGE_CURVE('',#472,#495,#273,.T.);
#622=EDGE_CURVE('',#495,#495,#408,.T.);
#623=EDGE_CURVE('',#468,#491,#274,.T.);
#624=EDGE_CURVE('',#470,#494,#275,.T.);
#625=EDGE_CURVE('',#471,#493,#276,.T.);
#626=EDGE_CURVE('',#469,#492,#277,.T.);
#627=ORIENTED_EDGE('',*,*,#496,.T.);
#628=ORIENTED_EDGE('',*,*,#497,.T.);
#629=ORIENTED_EDGE('',*,*,#498,.T.);
#630=ORIENTED_EDGE('',*,*,#499,.T.);
#631=ORIENTED_EDGE('',*,*,#500,.T.);
#632=ORIENTED_EDGE('',*,*,#501,.F.);
#633=ORIENTED_EDGE('',*,*,#502,.T.);
#634=ORIENTED_EDGE('',*,*,#498,.F.);
#635=ORIENTED_EDGE('',*,*,#503,.F.);
#636=ORIENTED_EDGE('',*,*,#504,.F.);
#637=ORIENTED_EDGE('',*,*,#505,.T.);
#638=ORIENTED_EDGE('',*,*,#506,.F.);
#639=ORIENTED_EDGE('',*,*,#507,.F.);
#640=ORIENTED_EDGE('',*,*,#508,.F.);
#641=ORIENTED_EDGE('',*,*,#507,.T.);
#642=ORIENTED_EDGE('',*,*,#509,.F.);
#643=ORIENTED_EDGE('',*,*,#510,.F.);
#644=ORIENTED_EDGE('',*,*,#511,.F.);
#645=ORIENTED_EDGE('',*,*,#510,.T.);
#646=ORIENTED_EDGE('',*,*,#512,.F.);
#647=ORIENTED_EDGE('',*,*,#513,.F.);
#648=ORIENTED_EDGE('',*,*,#514,.F.);
#649=ORIENTED_EDGE('',*,*,#513,.T.);
#650=ORIENTED_EDGE('',*,*,#515,.F.);
#651=ORIENTED_EDGE('',*,*,#505,.F.);
#652=ORIENTED_EDGE('',*,*,#516,.T.);
#653=ORIENTED_EDGE('',*,*,#517,.T.);
#654=ORIENTED_EDGE('',*,*,#518,.T.);
#655=ORIENTED_EDGE('',*,*,#519,.T.);
#656=ORIENTED_EDGE('',*,*,#515,.T.);
#657=ORIENTED_EDGE('',*,*,#512,.T.);
#658=ORIENTED_EDGE('',*,*,#509,.T.);
#659=ORIENTED_EDGE('',*,*,#506,.T.);
#660=ORIENTED_EDGE('',*,*,#520,.F.);
#661=ORIENTED_EDGE('',*,*,#521,.T.);
#662=ORIENTED_EDGE('',*,*,#522,.F.);
#663=ORIENTED_EDGE('',*,*,#523,.F.);
#664=ORIENTED_EDGE('',*,*,#524,.F.);
#665=ORIENTED_EDGE('',*,*,#523,.T.);
#666=ORIENTED_EDGE('',*,*,#525,.F.);
#667=ORIENTED_EDGE('',*,*,#526,.F.);
#668=ORIENTED_EDGE('',*,*,#527,.F.);
#669=ORIENTED_EDGE('',*,*,#526,.T.);
#670=ORIENTED_EDGE('',*,*,#528,.F.);
#671=ORIENTED_EDGE('',*,*,#529,.F.);
#672=ORIENTED_EDGE('',*,*,#530,.F.);
#673=ORIENTED_EDGE('',*,*,#529,.T.);
#674=ORIENTED_EDGE('',*,*,#531,.F.);
#675=ORIENTED_EDGE('',*,*,#532,.F.);
#676=ORIENTED_EDGE('',*,*,#533,.F.);
#677=ORIENTED_EDGE('',*,*,#532,.T.);
#678=ORIENTED_EDGE('',*,*,#534,.F.);
#679=ORIENTED_EDGE('',*,*,#535,.F.);
#680=ORIENTED_EDGE('',*,*,#536,.F.);
#681=ORIENTED_EDGE('',*,*,#535,.T.);
#682=ORIENTED_EDGE('',*,*,#537,.F.);
#683=ORIENTED_EDGE('',*,*,#521,.F.);
#684=ORIENTED_EDGE('',*,*,#537,.T.);
#685=ORIENTED_EDGE('',*,*,#534,.T.);
#686=ORIENTED_EDGE('',*,*,#531,.T.);
#687=ORIENTED_EDGE('',*,*,#528,.T.);
#688=ORIENTED_EDGE('',*,*,#525,.T.);
#689=ORIENTED_EDGE('',*,*,#522,.T.);
#690=ORIENTED_EDGE('',*,*,#538,.F.);
#691=ORIENTED_EDGE('',*,*,#539,.T.);
#692=ORIENTED_EDGE('',*,*,#500,.F.);
#693=ORIENTED_EDGE('',*,*,#539,.F.);
#694=ORIENTED_EDGE('',*,*,#540,.F.);
#695=ORIENTED_EDGE('',*,*,#541,.T.);
#696=ORIENTED_EDGE('',*,*,#519,.F.);
#697=ORIENTED_EDGE('',*,*,#542,.F.);
#698=ORIENTED_EDGE('',*,*,#543,.T.);
#699=ORIENTED_EDGE('',*,*,#542,.T.);
#700=ORIENTED_EDGE('',*,*,#518,.F.);
#701=ORIENTED_EDGE('',*,*,#544,.F.);
#702=ORIENTED_EDGE('',*,*,#545,.F.);
#703=ORIENTED_EDGE('',*,*,#544,.T.);
#704=ORIENTED_EDGE('',*,*,#517,.F.);
#705=ORIENTED_EDGE('',*,*,#546,.F.);
#706=ORIENTED_EDGE('',*,*,#547,.T.);
#707=ORIENTED_EDGE('',*,*,#546,.T.);
#708=ORIENTED_EDGE('',*,*,#516,.F.);
#709=ORIENTED_EDGE('',*,*,#541,.F.);
#710=ORIENTED_EDGE('',*,*,#504,.T.);
#711=ORIENTED_EDGE('',*,*,#508,.T.);
#712=ORIENTED_EDGE('',*,*,#511,.T.);
#713=ORIENTED_EDGE('',*,*,#514,.T.);
#714=ORIENTED_EDGE('',*,*,#548,.T.);
#715=ORIENTED_EDGE('',*,*,#501,.T.);
#716=ORIENTED_EDGE('',*,*,#549,.T.);
#717=ORIENTED_EDGE('',*,*,#550,.T.);
#718=ORIENTED_EDGE('',*,*,#520,.T.);
#719=ORIENTED_EDGE('',*,*,#524,.T.);
#720=ORIENTED_EDGE('',*,*,#527,.T.);
#721=ORIENTED_EDGE('',*,*,#530,.T.);
#722=ORIENTED_EDGE('',*,*,#533,.T.);
#723=ORIENTED_EDGE('',*,*,#536,.T.);
#724=ORIENTED_EDGE('',*,*,#547,.F.);
#725=ORIENTED_EDGE('',*,*,#540,.T.);
#726=ORIENTED_EDGE('',*,*,#543,.F.);
#727=ORIENTED_EDGE('',*,*,#545,.T.);
#728=ORIENTED_EDGE('',*,*,#538,.T.);
#729=ORIENTED_EDGE('',*,*,#496,.F.);
#730=ORIENTED_EDGE('',*,*,#551,.T.);
#731=ORIENTED_EDGE('',*,*,#552,.F.);
#732=ORIENTED_EDGE('',*,*,#553,.F.);
#733=ORIENTED_EDGE('',*,*,#553,.T.);
#734=ORIENTED_EDGE('',*,*,#554,.F.);
#735=ORIENTED_EDGE('',*,*,#555,.F.);
#736=ORIENTED_EDGE('',*,*,#549,.F.);
#737=ORIENTED_EDGE('',*,*,#503,.T.);
#738=ORIENTED_EDGE('',*,*,#497,.F.);
#739=ORIENTED_EDGE('',*,*,#555,.T.);
#740=ORIENTED_EDGE('',*,*,#556,.F.);
#741=ORIENTED_EDGE('',*,*,#557,.F.);
#742=ORIENTED_EDGE('',*,*,#550,.F.);
#743=ORIENTED_EDGE('',*,*,#557,.T.);
#744=ORIENTED_EDGE('',*,*,#558,.F.);
#745=ORIENTED_EDGE('',*,*,#551,.F.);
#746=ORIENTED_EDGE('',*,*,#499,.F.);
#747=ORIENTED_EDGE('',*,*,#502,.F.);
#748=ORIENTED_EDGE('',*,*,#548,.F.);
#749=ORIENTED_EDGE('',*,*,#558,.T.);
#750=ORIENTED_EDGE('',*,*,#556,.T.);
#751=ORIENTED_EDGE('',*,*,#554,.T.);
#752=ORIENTED_EDGE('',*,*,#552,.T.);
#753=ORIENTED_EDGE('',*,*,#559,.F.);
#754=ORIENTED_EDGE('',*,*,#560,.T.);
#755=ORIENTED_EDGE('',*,*,#561,.F.);
#756=ORIENTED_EDGE('',*,*,#562,.F.);
#757=ORIENTED_EDGE('',*,*,#563,.F.);
#758=ORIENTED_EDGE('',*,*,#562,.T.);
#759=ORIENTED_EDGE('',*,*,#564,.F.);
#760=ORIENTED_EDGE('',*,*,#565,.F.);
#761=ORIENTED_EDGE('',*,*,#566,.F.);
#762=ORIENTED_EDGE('',*,*,#565,.T.);
#763=ORIENTED_EDGE('',*,*,#567,.F.);
#764=ORIENTED_EDGE('',*,*,#568,.F.);
#765=ORIENTED_EDGE('',*,*,#569,.F.);
#766=ORIENTED_EDGE('',*,*,#568,.T.);
#767=ORIENTED_EDGE('',*,*,#570,.F.);
#768=ORIENTED_EDGE('',*,*,#560,.F.);
#769=ORIENTED_EDGE('',*,*,#570,.T.);
#770=ORIENTED_EDGE('',*,*,#567,.T.);
#771=ORIENTED_EDGE('',*,*,#564,.T.);
#772=ORIENTED_EDGE('',*,*,#561,.T.);
#773=ORIENTED_EDGE('',*,*,#569,.T.);
#774=ORIENTED_EDGE('',*,*,#559,.T.);
#775=ORIENTED_EDGE('',*,*,#563,.T.);
#776=ORIENTED_EDGE('',*,*,#566,.T.);
#777=ORIENTED_EDGE('',*,*,#571,.F.);
#778=ORIENTED_EDGE('',*,*,#572,.T.);
#779=ORIENTED_EDGE('',*,*,#573,.T.);
#780=ORIENTED_EDGE('',*,*,#572,.F.);
#781=ORIENTED_EDGE('',*,*,#573,.F.);
#782=ORIENTED_EDGE('',*,*,#574,.F.);
#783=ORIENTED_EDGE('',*,*,#575,.T.);
#784=ORIENTED_EDGE('',*,*,#576,.T.);
#785=ORIENTED_EDGE('',*,*,#575,.F.);
#786=ORIENTED_EDGE('',*,*,#576,.F.);
#787=ORIENTED_EDGE('',*,*,#577,.F.);
#788=ORIENTED_EDGE('',*,*,#578,.T.);
#789=ORIENTED_EDGE('',*,*,#579,.T.);
#790=ORIENTED_EDGE('',*,*,#578,.F.);
#791=ORIENTED_EDGE('',*,*,#577,.T.);
#792=ORIENTED_EDGE('',*,*,#574,.T.);
#793=ORIENTED_EDGE('',*,*,#579,.F.);
#794=ORIENTED_EDGE('',*,*,#571,.T.);
#795=ORIENTED_EDGE('',*,*,#580,.T.);
#796=ORIENTED_EDGE('',*,*,#581,.T.);
#797=ORIENTED_EDGE('',*,*,#582,.T.);
#798=ORIENTED_EDGE('',*,*,#581,.F.);
#799=ORIENTED_EDGE('',*,*,#583,.F.);
#800=ORIENTED_EDGE('',*,*,#584,.T.);
#801=ORIENTED_EDGE('',*,*,#580,.F.);
#802=ORIENTED_EDGE('',*,*,#584,.F.);
#803=ORIENTED_EDGE('',*,*,#585,.F.);
#804=ORIENTED_EDGE('',*,*,#586,.T.);
#805=ORIENTED_EDGE('',*,*,#587,.F.);
#806=ORIENTED_EDGE('',*,*,#588,.T.);
#807=ORIENTED_EDGE('',*,*,#589,.T.);
#808=ORIENTED_EDGE('',*,*,#582,.F.);
#809=ORIENTED_EDGE('',*,*,#590,.F.);
#810=ORIENTED_EDGE('',*,*,#591,.T.);
#811=ORIENTED_EDGE('',*,*,#592,.F.);
#812=ORIENTED_EDGE('',*,*,#591,.F.);
#813=ORIENTED_EDGE('',*,*,#590,.T.);
#814=ORIENTED_EDGE('',*,*,#583,.T.);
#815=ORIENTED_EDGE('',*,*,#593,.T.);
#816=ORIENTED_EDGE('',*,*,#594,.T.);
#817=ORIENTED_EDGE('',*,*,#595,.T.);
#818=ORIENTED_EDGE('',*,*,#596,.F.);
#819=ORIENTED_EDGE('',*,*,#595,.F.);
#820=ORIENTED_EDGE('',*,*,#597,.T.);
#821=ORIENTED_EDGE('',*,*,#598,.T.);
#822=ORIENTED_EDGE('',*,*,#599,.F.);
#823=ORIENTED_EDGE('',*,*,#600,.T.);
#824=ORIENTED_EDGE('',*,*,#601,.T.);
#825=ORIENTED_EDGE('',*,*,#593,.F.);
#826=ORIENTED_EDGE('',*,*,#602,.F.);
#827=ORIENTED_EDGE('',*,*,#598,.F.);
#828=ORIENTED_EDGE('',*,*,#603,.T.);
#829=ORIENTED_EDGE('',*,*,#600,.F.);
#830=ORIENTED_EDGE('',*,*,#604,.F.);
#831=ORIENTED_EDGE('',*,*,#594,.F.);
#832=ORIENTED_EDGE('',*,*,#601,.F.);
#833=ORIENTED_EDGE('',*,*,#603,.F.);
#834=ORIENTED_EDGE('',*,*,#597,.F.);
#835=ORIENTED_EDGE('',*,*,#605,.T.);
#836=ORIENTED_EDGE('',*,*,#606,.T.);
#837=ORIENTED_EDGE('',*,*,#607,.T.);
#838=ORIENTED_EDGE('',*,*,#608,.T.);
#839=ORIENTED_EDGE('',*,*,#609,.F.);
#840=ORIENTED_EDGE('',*,*,#610,.T.);
#841=ORIENTED_EDGE('',*,*,#608,.F.);
#842=ORIENTED_EDGE('',*,*,#611,.F.);
#843=ORIENTED_EDGE('',*,*,#612,.F.);
#844=ORIENTED_EDGE('',*,*,#611,.T.);
#845=ORIENTED_EDGE('',*,*,#607,.F.);
#846=ORIENTED_EDGE('',*,*,#613,.F.);
#847=ORIENTED_EDGE('',*,*,#614,.F.);
#848=ORIENTED_EDGE('',*,*,#613,.T.);
#849=ORIENTED_EDGE('',*,*,#606,.F.);
#850=ORIENTED_EDGE('',*,*,#615,.F.);
#851=ORIENTED_EDGE('',*,*,#616,.F.);
#852=ORIENTED_EDGE('',*,*,#615,.T.);
#853=ORIENTED_EDGE('',*,*,#605,.F.);
#854=ORIENTED_EDGE('',*,*,#610,.F.);
#855=ORIENTED_EDGE('',*,*,#617,.T.);
#856=ORIENTED_EDGE('',*,*,#618,.T.);
#857=ORIENTED_EDGE('',*,*,#619,.T.);
#858=ORIENTED_EDGE('',*,*,#620,.T.);
#859=ORIENTED_EDGE('',*,*,#602,.T.);
#860=ORIENTED_EDGE('',*,*,#596,.T.);
#861=ORIENTED_EDGE('',*,*,#599,.T.);
#862=ORIENTED_EDGE('',*,*,#604,.T.);
#863=ORIENTED_EDGE('',*,*,#589,.F.);
#864=ORIENTED_EDGE('',*,*,#621,.T.);
#865=ORIENTED_EDGE('',*,*,#622,.F.);
#866=ORIENTED_EDGE('',*,*,#621,.F.);
#867=ORIENTED_EDGE('',*,*,#586,.F.);
#868=ORIENTED_EDGE('',*,*,#623,.T.);
#869=ORIENTED_EDGE('',*,*,#620,.F.);
#870=ORIENTED_EDGE('',*,*,#624,.F.);
#871=ORIENTED_EDGE('',*,*,#587,.T.);
#872=ORIENTED_EDGE('',*,*,#624,.T.);
#873=ORIENTED_EDGE('',*,*,#619,.F.);
#874=ORIENTED_EDGE('',*,*,#625,.F.);
#875=ORIENTED_EDGE('',*,*,#588,.F.);
#876=ORIENTED_EDGE('',*,*,#625,.T.);
#877=ORIENTED_EDGE('',*,*,#618,.F.);
#878=ORIENTED_EDGE('',*,*,#626,.F.);
#879=ORIENTED_EDGE('',*,*,#585,.T.);
#880=ORIENTED_EDGE('',*,*,#626,.T.);
#881=ORIENTED_EDGE('',*,*,#617,.F.);
#882=ORIENTED_EDGE('',*,*,#623,.F.);
#883=ORIENTED_EDGE('',*,*,#609,.T.);
#884=ORIENTED_EDGE('',*,*,#612,.T.);
#885=ORIENTED_EDGE('',*,*,#614,.T.);
#886=ORIENTED_EDGE('',*,*,#616,.T.);
#887=ORIENTED_EDGE('',*,*,#592,.T.);
#888=ORIENTED_EDGE('',*,*,#622,.T.);
#889=PLANE('',#1003);
#890=PLANE('',#1006);
#891=PLANE('',#1007);
#892=PLANE('',#1011);
#893=PLANE('',#1015);
#894=PLANE('',#1018);
#895=PLANE('',#1022);
#896=PLANE('',#1026);
#897=PLANE('',#1030);
#898=PLANE('',#1033);
#899=PLANE('',#1036);
#900=PLANE('',#1039);
#901=PLANE('',#1041);
#902=PLANE('',#1044);
#903=PLANE('',#1047);
#904=PLANE('',#1048);
#905=PLANE('',#1049);
#906=PLANE('',#1050);
#907=PLANE('',#1051);
#908=PLANE('',#1052);
#909=PLANE('',#1053);
#910=PLANE('',#1054);
#911=PLANE('',#1058);
#912=PLANE('',#1062);
#913=PLANE('',#1066);
#914=PLANE('',#1067);
#915=PLANE('',#1073);
#916=PLANE('',#1080);
#917=PLANE('',#1084);
#918=PLANE('',#1085);
#919=PLANE('',#1089);
#920=PLANE('',#1092);
#921=PLANE('',#1095);
#922=PLANE('',#1098);
#923=PLANE('',#1103);
#924=PLANE('',#1105);
#925=PLANE('',#1107);
#926=ADVANCED_FACE('',(#58,#44),#889,.T.);
#927=ADVANCED_FACE('',(#59),#890,.T.);
#928=ADVANCED_FACE('',(#60),#891,.T.);
#929=ADVANCED_FACE('',(#61),#24,.F.);
#930=ADVANCED_FACE('',(#62),#892,.T.);
#931=ADVANCED_FACE('',(#63),#25,.F.);
#932=ADVANCED_FACE('',(#64,#45),#893,.T.);
#933=ADVANCED_FACE('',(#65),#894,.T.);
#934=ADVANCED_FACE('',(#66),#26,.F.);
#935=ADVANCED_FACE('',(#67),#895,.T.);
#936=ADVANCED_FACE('',(#68),#27,.T.);
#937=ADVANCED_FACE('',(#69),#896,.T.);
#938=ADVANCED_FACE('',(#70),#28,.F.);
#939=ADVANCED_FACE('',(#71),#897,.T.);
#940=ADVANCED_FACE('',(#72),#29,.F.);
#941=ADVANCED_FACE('',(#73),#898,.T.);
#942=ADVANCED_FACE('',(#74),#30,.T.);
#943=ADVANCED_FACE('',(#75),#899,.T.);
#944=ADVANCED_FACE('',(#76),#31,.T.);
#945=ADVANCED_FACE('',(#77,#46,#47),#900,.T.);
#946=ADVANCED_FACE('',(#78,#48),#901,.F.);
#947=ADVANCED_FACE('',(#79),#32,.F.);
#948=ADVANCED_FACE('',(#80),#902,.T.);
#949=ADVANCED_FACE('',(#81),#33,.T.);
#950=ADVANCED_FACE('',(#82),#903,.T.);
#951=ADVANCED_FACE('',(#83),#904,.T.);
#952=ADVANCED_FACE('',(#84),#905,.T.);
#953=ADVANCED_FACE('',(#85),#906,.T.);
#954=ADVANCED_FACE('',(#86),#907,.T.);
#955=ADVANCED_FACE('',(#87),#908,.T.);
#956=ADVANCED_FACE('',(#88),#909,.T.);
#957=ADVANCED_FACE('',(#89),#910,.F.);
#958=ADVANCED_FACE('',(#90),#34,.F.);
#959=ADVANCED_FACE('',(#91),#911,.F.);
#960=ADVANCED_FACE('',(#92),#35,.F.);
#961=ADVANCED_FACE('',(#93),#912,.T.);
#962=ADVANCED_FACE('',(#94),#36,.T.);
#963=ADVANCED_FACE('',(#95,#49),#913,.T.);
#964=ADVANCED_FACE('',(#96,#50),#914,.F.);
#965=ADVANCED_FACE('',(#97),#13,.F.);
#966=ADVANCED_FACE('',(#98),#37,.F.);
#967=ADVANCED_FACE('',(#99,#51,#52),#915,.F.);
#968=ADVANCED_FACE('',(#100),#38,.T.);
#969=ADVANCED_FACE('',(#101,#53),#916,.T.);
#970=ADVANCED_FACE('',(#102),#14,.T.);
#971=ADVANCED_FACE('',(#103),#917,.T.);
#972=ADVANCED_FACE('',(#104),#918,.T.);
#973=ADVANCED_FACE('',(#105),#15,.T.);
#974=ADVANCED_FACE('',(#106,#54),#919,.T.);
#975=ADVANCED_FACE('',(#107),#920,.T.);
#976=ADVANCED_FACE('',(#108),#39,.F.);
#977=ADVANCED_FACE('',(#109),#921,.T.);
#978=ADVANCED_FACE('',(#110),#40,.F.);
#979=ADVANCED_FACE('',(#111,#55),#922,.T.);
#980=ADVANCED_FACE('',(#112),#41,.F.);
#981=ADVANCED_FACE('',(#113),#923,.T.);
#982=ADVANCED_FACE('',(#114),#42,.T.);
#983=ADVANCED_FACE('',(#115),#924,.T.);
#984=ADVANCED_FACE('',(#116),#43,.T.);
#985=ADVANCED_FACE('',(#117,#56,#57),#925,.T.);
#986=CLOSED_SHELL('',(#926,#927,#928,#929,#930,#931,#932,#933,#934,#935,
#936,#937,#938,#939,#940,#941,#942,#943,#944,#945,#946,#947,#948,#949,#950,
#951));
#987=CLOSED_SHELL('',(#952,#953,#954,#955,#956,#957));
#988=CLOSED_SHELL('',(#958,#959,#960,#961,#962,#963,#964));
#989=CLOSED_SHELL('',(#965,#966,#967,#968,#969,#970,#971,#972,#973,#974,
#975,#976,#977,#978,#979,#980,#981,#982,#983,#984,#985));
#990=DERIVED_UNIT_ELEMENT(#992,1.);
#991=DERIVED_UNIT_ELEMENT(#1690,-3.);
#992=(
MASS_UNIT()
NAMED_UNIT(*)
SI_UNIT(.KILO.,.GRAM.)
);
#993=DERIVED_UNIT((#990,#991));
#994=MEASURE_REPRESENTATION_ITEM('density measure',
POSITIVE_RATIO_MEASURE(7850.),#993);
#995=PROPERTY_DEFINITION_REPRESENTATION(#1000,#997);
#996=PROPERTY_DEFINITION_REPRESENTATION(#1001,#998);
#997=REPRESENTATION('material name',(#999),#1687);
#998=REPRESENTATION('density',(#994),#1687);
#999=DESCRIPTIVE_REPRESENTATION_ITEM('Steel','Steel');
#1000=PROPERTY_DEFINITION('material property','material name',#1697);
#1001=PROPERTY_DEFINITION('material property','density of part',#1697);
#1002=AXIS2_PLACEMENT_3D('',#1406,#1108,#1109);
#1003=AXIS2_PLACEMENT_3D('',#1407,#1110,#1111);
#1004=AXIS2_PLACEMENT_3D('',#1410,#1112,#1113);
#1005=AXIS2_PLACEMENT_3D('',#1417,#1117,#1118);
#1006=AXIS2_PLACEMENT_3D('',#1418,#1119,#1120);
#1007=AXIS2_PLACEMENT_3D('',#1424,#1124,#1125);
#1008=AXIS2_PLACEMENT_3D('',#1433,#1130,#1131);
#1009=AXIS2_PLACEMENT_3D('',#1435,#1132,#1133);
#1010=AXIS2_PLACEMENT_3D('',#1437,#1134,#1135);
#1011=AXIS2_PLACEMENT_3D('',#1439,#1137,#1138);
#1012=AXIS2_PLACEMENT_3D('',#1445,#1142,#1143);
#1013=AXIS2_PLACEMENT_3D('',#1446,#1144,#1145);
#1014=AXIS2_PLACEMENT_3D('',#1447,#1146,#1147);
#1015=AXIS2_PLACEMENT_3D('',#1448,#1148,#1149);
#1016=AXIS2_PLACEMENT_3D('',#1451,#1150,#1151);
#1017=AXIS2_PLACEMENT_3D('',#1455,#1153,#1154);
#1018=AXIS2_PLACEMENT_3D('',#1457,#1156,#1157);
#1019=AXIS2_PLACEMENT_3D('',#1466,#1162,#1163);
#1020=AXIS2_PLACEMENT_3D('',#1468,#1164,#1165);
#1021=AXIS2_PLACEMENT_3D('',#1470,#1166,#1167);
#1022=AXIS2_PLACEMENT_3D('',#1472,#1169,#1170);
#1023=AXIS2_PLACEMENT_3D('',#1478,#1174,#1175);
#1024=AXIS2_PLACEMENT_3D('',#1480,#1176,#1177);
#1025=AXIS2_PLACEMENT_3D('',#1482,#1178,#1179);
#1026=AXIS2_PLACEMENT_3D('',#1484,#1181,#1182);
#1027=AXIS2_PLACEMENT_3D('',#1490,#1186,#1187);
#1028=AXIS2_PLACEMENT_3D('',#1491,#1188,#1189);
#1029=AXIS2_PLACEMENT_3D('',#1492,#1190,#1191);
#1030=AXIS2_PLACEMENT_3D('',#1493,#1192,#1193);
#1031=AXIS2_PLACEMENT_3D('',#1494,#1194,#1195);
#1032=AXIS2_PLACEMENT_3D('',#1496,#1196,#1197);
#1033=AXIS2_PLACEMENT_3D('',#1498,#1199,#1200);
#1034=AXIS2_PLACEMENT_3D('',#1504,#1204,#1205);
#1035=AXIS2_PLACEMENT_3D('',#1506,#1206,#1207);
#1036=AXIS2_PLACEMENT_3D('',#1508,#1209,#1210);
#1037=AXIS2_PLACEMENT_3D('',#1512,#1213,#1214);
#1038=AXIS2_PLACEMENT_3D('',#1513,#1215,#1216);
#1039=AXIS2_PLACEMENT_3D('',#1514,#1217,#1218);
#1040=AXIS2_PLACEMENT_3D('',#1519,#1221,#1222);
#1041=AXIS2_PLACEMENT_3D('',#1520,#1223,#1224);
#1042=AXIS2_PLACEMENT_3D('',#1521,#1225,#1226);
#1043=AXIS2_PLACEMENT_3D('',#1525,#1228,#1229);
#1044=AXIS2_PLACEMENT_3D('',#1527,#1231,#1232);
#1045=AXIS2_PLACEMENT_3D('',#1531,#1235,#1236);
#1046=AXIS2_PLACEMENT_3D('',#1533,#1237,#1238);
#1047=AXIS2_PLACEMENT_3D('',#1535,#1240,#1241);
#1048=AXIS2_PLACEMENT_3D('',#1537,#1243,#1244);
#1049=AXIS2_PLACEMENT_3D('',#1538,#1245,#1246);
#1050=AXIS2_PLACEMENT_3D('',#1547,#1251,#1252);
#1051=AXIS2_PLACEMENT_3D('',#1553,#1256,#1257);
#1052=AXIS2_PLACEMENT_3D('',#1559,#1261,#1262);
#1053=AXIS2_PLACEMENT_3D('',#1562,#1265,#1266);
#1054=AXIS2_PLACEMENT_3D('',#1563,#1267,#1268);
#1055=AXIS2_PLACEMENT_3D('',#1564,#1269,#1270);
#1056=AXIS2_PLACEMENT_3D('',#1566,#1271,#1272);
#1057=AXIS2_PLACEMENT_3D('',#1569,#1274,#1275);
#1058=AXIS2_PLACEMENT_3D('',#1570,#1276,#1277);
#1059=AXIS2_PLACEMENT_3D('',#1571,#1278,#1279);
#1060=AXIS2_PLACEMENT_3D('',#1573,#1280,#1281);
#1061=AXIS2_PLACEMENT_3D('',#1576,#1283,#1284);
#1062=AXIS2_PLACEMENT_3D('',#1577,#1285,#1286);
#1063=AXIS2_PLACEMENT_3D('',#1578,#1287,#1288);
#1064=AXIS2_PLACEMENT_3D('',#1580,#1289,#1290);
#1065=AXIS2_PLACEMENT_3D('',#1583,#1292,#1293);
#1066=AXIS2_PLACEMENT_3D('',#1584,#1294,#1295);
#1067=AXIS2_PLACEMENT_3D('',#1585,#1296,#1297);
#1068=AXIS2_PLACEMENT_3D('',#1586,#1298,#1299);
#1069=AXIS2_PLACEMENT_3D('',#1588,#1300,#1301);
#1070=AXIS2_PLACEMENT_3D('',#1591,#1303,#1304);
#1071=AXIS2_PLACEMENT_3D('',#1592,#1305,#1306);
#1072=AXIS2_PLACEMENT_3D('',#1594,#1307,#1308);
#1073=AXIS2_PLACEMENT_3D('',#1596,#1310,#1311);
#1074=AXIS2_PLACEMENT_3D('',#1599,#1312,#1313);
#1075=AXIS2_PLACEMENT_3D('',#1603,#1315,#1316);
#1076=AXIS2_PLACEMENT_3D('',#1606,#1318,#1319);
#1077=AXIS2_PLACEMENT_3D('',#1607,#1320,#1321);
#1078=AXIS2_PLACEMENT_3D('',#1609,#1322,#1323);
#1079=AXIS2_PLACEMENT_3D('',#1612,#1325,#1326);
#1080=AXIS2_PLACEMENT_3D('',#1613,#1327,#1328);
#1081=AXIS2_PLACEMENT_3D('',#1614,#1329,#1330);
#1082=AXIS2_PLACEMENT_3D('',#1619,#1332,#1333);
#1083=AXIS2_PLACEMENT_3D('',#1622,#1335,#1336);
#1084=AXIS2_PLACEMENT_3D('',#1623,#1337,#1338);
#1085=AXIS2_PLACEMENT_3D('',#1629,#1342,#1343);
#1086=AXIS2_PLACEMENT_3D('',#1635,#1347,#1348);
#1087=AXIS2_PLACEMENT_3D('',#1636,#1349,#1350);
#1088=AXIS2_PLACEMENT_3D('',#1637,#1351,#1352);
#1089=AXIS2_PLACEMENT_3D('',#1638,#1353,#1354);
#1090=AXIS2_PLACEMENT_3D('',#1641,#1355,#1356);
#1091=AXIS2_PLACEMENT_3D('',#1645,#1358,#1359);
#1092=AXIS2_PLACEMENT_3D('',#1647,#1361,#1362);
#1093=AXIS2_PLACEMENT_3D('',#1653,#1366,#1367);
#1094=AXIS2_PLACEMENT_3D('',#1655,#1368,#1369);
#1095=AXIS2_PLACEMENT_3D('',#1657,#1371,#1372);
#1096=AXIS2_PLACEMENT_3D('',#1661,#1375,#1376);
#1097=AXIS2_PLACEMENT_3D('',#1662,#1377,#1378);
#1098=AXIS2_PLACEMENT_3D('',#1663,#1379,#1380);
#1099=AXIS2_PLACEMENT_3D('',#1666,#1381,#1382);
#1100=AXIS2_PLACEMENT_3D('',#1670,#1384,#1385);
#1101=AXIS2_PLACEMENT_3D('',#1672,#1387,#1388);
#1102=AXIS2_PLACEMENT_3D('',#1675,#1390,#1391);
#1103=AXIS2_PLACEMENT_3D('',#1676,#1392,#1393);
#1104=AXIS2_PLACEMENT_3D('',#1679,#1396,#1397);
#1105=AXIS2_PLACEMENT_3D('',#1681,#1399,#1400);
#1106=AXIS2_PLACEMENT_3D('',#1683,#1402,#1403);
#1107=AXIS2_PLACEMENT_3D('',#1684,#1404,#1405);
#1108=DIRECTION('axis',(0.,0.,1.));
#1109=DIRECTION('refdir',(1.,0.,0.));
#1110=DIRECTION('center_axis',(0.,0.,1.));
#1111=DIRECTION('ref_axis',(1.,0.,0.));
#1112=DIRECTION('center_axis',(0.,0.,1.));
#1113=DIRECTION('ref_axis',(1.,0.,0.));
#1114=DIRECTION('',(0.,1.,0.));
#1115=DIRECTION('',(1.,0.,0.));
#1116=DIRECTION('',(0.,-1.,0.));
#1117=DIRECTION('center_axis',(0.,0.,-1.));
#1118=DIRECTION('ref_axis',(1.,0.,0.));
#1119=DIRECTION('center_axis',(0.,-1.,0.));
#1120=DIRECTION('ref_axis',(1.,0.,0.));
#1121=DIRECTION('',(-1.,0.,0.));
#1122=DIRECTION('',(0.,0.,1.));
#1123=DIRECTION('',(0.,0.,1.));
#1124=DIRECTION('center_axis',(-0.866025403784438,0.500000000000001,0.));
#1125=DIRECTION('ref_axis',(-0.500000000000001,-0.866025403784438,0.));
#1126=DIRECTION('',(0.500000000000001,0.866025403784438,0.));
#1127=DIRECTION('',(0.,0.,1.));
#1128=DIRECTION('',(-0.500000000000001,-0.866025403784438,0.));
#1129=DIRECTION('',(0.,0.,1.));
#1130=DIRECTION('center_axis',(0.,0.,1.));
#1131=DIRECTION('ref_axis',(1.12502599828683E-15,1.,0.));
#1132=DIRECTION('center_axis',(0.,0.,1.));
#1133=DIRECTION('ref_axis',(0.866025403784438,-0.5,0.));
#1134=DIRECTION('center_axis',(0.,0.,-1.));
#1135=DIRECTION('ref_axis',(0.866025403784438,-0.5,0.));
#1136=DIRECTION('',(0.,0.,1.));
#1137=DIRECTION('center_axis',(0.866025403784439,0.5,0.));
#1138=DIRECTION('ref_axis',(-0.5,0.866025403784439,0.));
#1139=DIRECTION('',(0.5,-0.866025403784439,0.));
#1140=DIRECTION('',(-0.5,0.866025403784439,0.));
#1141=DIRECTION('',(0.,0.,1.));
#1142=DIRECTION('center_axis',(0.,0.,1.));
#1143=DIRECTION('ref_axis',(-0.866025403784439,-0.499999999999999,0.));
#1144=DIRECTION('center_axis',(0.,0.,1.));
#1145=DIRECTION('ref_axis',(-0.866025403784439,-0.499999999999999,0.));
#1146=DIRECTION('center_axis',(0.,0.,-1.));
#1147=DIRECTION('ref_axis',(-0.866025403784439,-0.499999999999999,0.));
#1148=DIRECTION('center_axis',(0.,0.,1.));
#1149=DIRECTION('ref_axis',(1.,0.,0.));
#1150=DIRECTION('center_axis',(0.,0.,1.));
#1151=DIRECTION('ref_axis',(1.,0.,0.));
#1152=DIRECTION('',(0.5,-0.866025403784439,0.));
#1153=DIRECTION('center_axis',(0.,0.,1.));
#1154=DIRECTION('ref_axis',(-0.866025403784436,-0.500000000000005,0.));
#1155=DIRECTION('',(0.5,0.866025403784439,0.));
#1156=DIRECTION('center_axis',(-0.866025403784439,0.5,0.));
#1157=DIRECTION('ref_axis',(-0.5,-0.866025403784439,0.));
#1158=DIRECTION('',(0.5,0.866025403784439,0.));
#1159=DIRECTION('',(0.,0.,1.));
#1160=DIRECTION('',(-0.5,-0.866025403784439,0.));
#1161=DIRECTION('',(0.,0.,1.));
#1162=DIRECTION('center_axis',(0.,0.,1.));
#1163=DIRECTION('ref_axis',(1.,0.,0.));
#1164=DIRECTION('center_axis',(0.,0.,1.));
#1165=DIRECTION('ref_axis',(1.,0.,0.));
#1166=DIRECTION('center_axis',(0.,0.,-1.));
#1167=DIRECTION('ref_axis',(1.,0.,0.));
#1168=DIRECTION('',(0.,0.,1.));
#1169=DIRECTION('center_axis',(0.866025403784438,-0.500000000000001,0.));
#1170=DIRECTION('ref_axis',(0.500000000000001,0.866025403784438,0.));
#1171=DIRECTION('',(-0.500000000000001,-0.866025403784438,0.));
#1172=DIRECTION('',(0.500000000000001,0.866025403784438,0.));
#1173=DIRECTION('',(0.,0.,1.));
#1174=DIRECTION('center_axis',(0.,0.,1.));
#1175=DIRECTION('ref_axis',(-0.866025403784439,-0.5,0.));
#1176=DIRECTION('center_axis',(0.,0.,-1.));
#1177=DIRECTION('ref_axis',(-0.866025403784439,-0.5,0.));
#1178=DIRECTION('center_axis',(0.,0.,1.));
#1179=DIRECTION('ref_axis',(-0.866025403784439,-0.5,0.));
#1180=DIRECTION('',(0.,0.,1.));
#1181=DIRECTION('center_axis',(-1.,1.1842378929335E-16,0.));
#1182=DIRECTION('ref_axis',(-1.1842378929335E-16,-1.,0.));
#1183=DIRECTION('',(1.1842378929335E-16,1.,0.));
#1184=DIRECTION('',(-1.1842378929335E-16,-1.,0.));
#1185=DIRECTION('',(0.,0.,1.));
#1186=DIRECTION('center_axis',(0.,0.,1.));
#1187=DIRECTION('ref_axis',(-0.866025403784438,-0.500000000000001,0.));
#1188=DIRECTION('center_axis',(0.,0.,1.));
#1189=DIRECTION('ref_axis',(-0.866025403784438,-0.500000000000001,0.));
#1190=DIRECTION('center_axis',(0.,0.,-1.));
#1191=DIRECTION('ref_axis',(-0.866025403784438,-0.500000000000001,0.));
#1192=DIRECTION('center_axis',(0.,0.,1.));
#1193=DIRECTION('ref_axis',(1.,0.,0.));
#1194=DIRECTION('center_axis',(0.,0.,1.));
#1195=DIRECTION('ref_axis',(1.,0.,0.));
#1196=DIRECTION('center_axis',(0.,0.,1.));
#1197=DIRECTION('ref_axis',(1.,0.,0.));
#1198=DIRECTION('',(0.,0.,1.));
#1199=DIRECTION('center_axis',(0.866025403784439,-0.5,0.));
#1200=DIRECTION('ref_axis',(0.5,0.866025403784439,0.));
#1201=DIRECTION('',(-0.5,-0.866025403784439,0.));
#1202=DIRECTION('',(0.,0.,1.));
#1203=DIRECTION('',(0.,0.,1.));
#1204=DIRECTION('center_axis',(0.,0.,1.));
#1205=DIRECTION('ref_axis',(-0.866025403784436,-0.500000000000005,0.));
#1206=DIRECTION('center_axis',(0.,0.,1.));
#1207=DIRECTION('ref_axis',(-0.866025403784436,-0.500000000000005,0.));
#1208=DIRECTION('',(0.,0.,1.));
#1209=DIRECTION('center_axis',(-0.866025403784439,-0.5,0.));
#1210=DIRECTION('ref_axis',(0.5,-0.866025403784439,0.));
#1211=DIRECTION('',(-0.5,0.866025403784439,0.));
#1212=DIRECTION('',(0.,0.,1.));
#1213=DIRECTION('center_axis',(0.,0.,1.));
#1214=DIRECTION('ref_axis',(5.0532154980743E-16,1.,0.));
#1215=DIRECTION('center_axis',(0.,0.,1.));
#1216=DIRECTION('ref_axis',(1.,0.,0.));
#1217=DIRECTION('center_axis',(0.,0.,1.));
#1218=DIRECTION('ref_axis',(1.,0.,0.));
#1219=DIRECTION('',(0.,1.,0.));
#1220=DIRECTION('',(0.,-1.,0.));
#1221=DIRECTION('center_axis',(0.,0.,-1.));
#1222=DIRECTION('ref_axis',(1.,0.,0.));
#1223=DIRECTION('center_axis',(0.,0.,1.));
#1224=DIRECTION('ref_axis',(1.,0.,0.));
#1225=DIRECTION('center_axis',(0.,0.,1.));
#1226=DIRECTION('ref_axis',(6.12323399573676E-17,1.,0.));
#1227=DIRECTION('',(0.,0.,1.));
#1228=DIRECTION('center_axis',(0.,0.,-1.));
#1229=DIRECTION('ref_axis',(1.,0.,0.));
#1230=DIRECTION('',(0.,0.,1.));
#1231=DIRECTION('center_axis',(1.,0.,0.));
#1232=DIRECTION('ref_axis',(0.,1.,0.));
#1233=DIRECTION('',(0.,1.,0.));
#1234=DIRECTION('',(0.,0.,1.));
#1235=DIRECTION('center_axis',(0.,0.,1.));
#1236=DIRECTION('ref_axis',(-1.83697019872103E-16,1.,0.));
#1237=DIRECTION('center_axis',(0.,0.,1.));
#1238=DIRECTION('ref_axis',(1.,0.,0.));
#1239=DIRECTION('',(0.,0.,1.));
#1240=DIRECTION('center_axis',(-1.,0.,0.));
#1241=DIRECTION('ref_axis',(0.,-1.,0.));
#1242=DIRECTION('',(0.,-1.,0.));
#1243=DIRECTION('center_axis',(0.,0.,1.));
#1244=DIRECTION('ref_axis',(1.,0.,0.));
#1245=DIRECTION('center_axis',(-4.6746232615796E-16,1.,0.));
#1246=DIRECTION('ref_axis',(-1.,-4.6746232615796E-16,0.));
#1247=DIRECTION('',(1.,4.6746232615796E-16,0.));
#1248=DIRECTION('',(0.,0.,1.));
#1249=DIRECTION('',(-1.,-4.6746232615796E-16,0.));
#1250=DIRECTION('',(0.,0.,1.));
#1251=DIRECTION('center_axis',(1.,0.,0.));
#1252=DIRECTION('ref_axis',(0.,1.,0.));
#1253=DIRECTION('',(0.,-1.,0.));
#1254=DIRECTION('',(0.,1.,0.));
#1255=DIRECTION('',(0.,0.,1.));
#1256=DIRECTION('center_axis',(4.67462326157961E-16,-1.,0.));
#1257=DIRECTION('ref_axis',(1.,4.67462326157961E-16,0.));
#1258=DIRECTION('',(-1.,-4.67462326157961E-16,0.));
#1259=DIRECTION('',(1.,4.67462326157961E-16,0.));
#1260=DIRECTION('',(0.,0.,1.));
#1261=DIRECTION('center_axis',(-1.,-2.53765262771464E-16,0.));
#1262=DIRECTION('ref_axis',(2.53765262771464E-16,-1.,0.));
#1263=DIRECTION('',(-2.53765262771464E-16,1.,0.));
#1264=DIRECTION('',(2.53765262771464E-16,-1.,0.));
#1265=DIRECTION('center_axis',(0.,0.,1.));
#1266=DIRECTION('ref_axis',(1.,0.,0.));
#1267=DIRECTION('center_axis',(0.,0.,1.));
#1268=DIRECTION('ref_axis',(1.,0.,0.));
#1269=DIRECTION('center_axis',(0.,0.,1.));
#1270=DIRECTION('ref_axis',(-1.,0.,0.));
#1271=DIRECTION('center_axis',(0.,0.,1.));
#1272=DIRECTION('ref_axis',(-1.,0.,0.));
#1273=DIRECTION('',(0.,0.,1.));
#1274=DIRECTION('center_axis',(0.,0.,1.));
#1275=DIRECTION('ref_axis',(-1.,0.,0.));
#1276=DIRECTION('center_axis',(0.,0.,1.));
#1277=DIRECTION('ref_axis',(-1.,0.,0.));
#1278=DIRECTION('center_axis',(0.,0.,-1.));
#1279=DIRECTION('ref_axis',(-1.,0.,0.));
#1280=DIRECTION('center_axis',(0.,0.,-1.));
#1281=DIRECTION('ref_axis',(-1.,0.,0.));
#1282=DIRECTION('',(0.,0.,-1.));
#1283=DIRECTION('center_axis',(0.,0.,-1.));
#1284=DIRECTION('ref_axis',(-1.,0.,0.));
#1285=DIRECTION('center_axis',(0.,0.,1.));
#1286=DIRECTION('ref_axis',(-1.,0.,0.));
#1287=DIRECTION('center_axis',(0.,0.,1.));
#1288=DIRECTION('ref_axis',(1.,0.,0.));
#1289=DIRECTION('center_axis',(0.,0.,1.));
#1290=DIRECTION('ref_axis',(1.,0.,0.));
#1291=DIRECTION('',(0.,0.,-1.));
#1292=DIRECTION('center_axis',(0.,0.,1.));
#1293=DIRECTION('ref_axis',(1.,0.,0.));
#1294=DIRECTION('center_axis',(0.,0.,1.));
#1295=DIRECTION('ref_axis',(1.,0.,0.));
#1296=DIRECTION('center_axis',(0.,0.,1.));
#1297=DIRECTION('ref_axis',(1.,0.,0.));
#1298=DIRECTION('center_axis',(1.22464679914735E-16,0.,1.));
#1299=DIRECTION('ref_axis',(-1.,0.,1.22464679914735E-16));
#1300=DIRECTION('center_axis',(-1.22464679914735E-16,0.,-1.));
#1301=DIRECTION('ref_axis',(-1.,0.,1.22464679914735E-16));
#1302=DIRECTION('',(0.707106781186548,-8.65956056235493E-17,0.707106781186547));
#1303=DIRECTION('center_axis',(1.22464679914735E-16,0.,1.));
#1304=DIRECTION('ref_axis',(-1.,0.,1.22464679914735E-16));
#1305=DIRECTION('center_axis',(-1.22464679914735E-16,0.,-1.));
#1306=DIRECTION('ref_axis',(-1.,0.,1.22464679914735E-16));
#1307=DIRECTION('center_axis',(1.22464679914735E-16,0.,1.));
#1308=DIRECTION('ref_axis',(-1.,0.,1.22464679914735E-16));
#1309=DIRECTION('',(1.22464679914735E-16,0.,1.));
#1310=DIRECTION('center_axis',(-1.22464679914735E-16,0.,-1.));
#1311=DIRECTION('ref_axis',(-1.,0.,1.22464679914735E-16));
#1312=DIRECTION('center_axis',(-1.22464679914735E-16,0.,-1.));
#1313=DIRECTION('ref_axis',(-1.,0.,1.22464679914735E-16));
#1314=DIRECTION('',(0.5,-0.866025403784439,-6.12323399573677E-17));
#1315=DIRECTION('center_axis',(-1.22464679914735E-16,0.,-1.));
#1316=DIRECTION('ref_axis',(0.866025403784436,-0.500000000000005,-1.0605752387249E-16));
#1317=DIRECTION('',(0.5,0.866025403784439,-6.12323399573677E-17));
#1318=DIRECTION('center_axis',(-1.22464679914735E-16,0.,-1.));
#1319=DIRECTION('ref_axis',(-1.,0.,1.22464679914735E-16));
#1320=DIRECTION('center_axis',(-1.22464679914735E-16,0.,-1.));
#1321=DIRECTION('ref_axis',(-1.,0.,1.22464679914735E-16));
#1322=DIRECTION('center_axis',(-1.22464679914735E-16,0.,-1.));
#1323=DIRECTION('ref_axis',(-1.,0.,1.22464679914735E-16));
#1324=DIRECTION('',(1.22464679914735E-16,0.,1.));
#1325=DIRECTION('center_axis',(1.22464679914735E-16,0.,1.));
#1326=DIRECTION('ref_axis',(-1.,0.,1.22464679914735E-16));
#1327=DIRECTION('center_axis',(-1.22464679914735E-16,0.,-1.));
#1328=DIRECTION('ref_axis',(-1.,0.,1.22464679914735E-16));
#1329=DIRECTION('center_axis',(1.22464679914735E-16,0.,1.));
#1330=DIRECTION('ref_axis',(0.866025403784438,0.5,-1.06057523872491E-16));
#1331=DIRECTION('',(-0.142373699362874,0.0821994936526776,-0.986393923832144));
#1332=DIRECTION('center_axis',(1.22464679914735E-16,0.,1.));
#1333=DIRECTION('ref_axis',(0.866025403784438,0.5,-1.06057523872491E-16));
#1334=DIRECTION('',(-0.142373699362875,-0.0821994936526754,0.986393923832144));
#1335=DIRECTION('center_axis',(1.22464679914735E-16,0.,1.));
#1336=DIRECTION('ref_axis',(-0.866025403784438,-0.5,1.06057523872491E-16));
#1337=DIRECTION('center_axis',(-0.854242196177249,-0.493196961916072,-0.164398987305359));
#1338=DIRECTION('ref_axis',(-0.188982236504616,0.,0.981980506061965));
#1339=DIRECTION('',(0.500000000000001,-0.866025403784438,-6.12323399573677E-17));
#1340=DIRECTION('',(-0.142373699362877,-0.0821994936526798,0.986393923832143));
#1341=DIRECTION('',(0.500000000000001,-0.866025403784438,-6.12323399573677E-17));
#1342=DIRECTION('center_axis',(0.854242196177249,-0.493196961916071,-0.16439898730536));
#1343=DIRECTION('ref_axis',(-0.188982236504616,0.,-0.981980506061965));
#1344=DIRECTION('',(-0.142373699362877,0.0821994936526798,-0.986393923832143));
#1345=DIRECTION('',(0.5,0.866025403784439,-6.12323399573676E-17));
#1346=DIRECTION('',(0.5,0.866025403784439,-6.12323399573676E-17));
#1347=DIRECTION('center_axis',(1.22464679914735E-16,0.,1.));
#1348=DIRECTION('ref_axis',(0.866025403784439,-0.5,-1.06057523872491E-16));
#1349=DIRECTION('center_axis',(1.22464679914735E-16,0.,1.));
#1350=DIRECTION('ref_axis',(0.866025403784439,-0.5,-1.06057523872491E-16));
#1351=DIRECTION('center_axis',(1.22464679914735E-16,0.,1.));
#1352=DIRECTION('ref_axis',(0.866025403784439,-0.5,-1.06057523872491E-16));
#1353=DIRECTION('center_axis',(-1.22464679914735E-16,0.,-1.));
#1354=DIRECTION('ref_axis',(-1.,0.,1.22464679914735E-16));
#1355=DIRECTION('center_axis',(1.22464679914735E-16,0.,1.));
#1356=DIRECTION('ref_axis',(-1.,0.,1.22464679914735E-16));
#1357=DIRECTION('',(0.5,0.866025403784439,-6.12323399573676E-17));
#1358=DIRECTION('center_axis',(1.22464679914735E-16,0.,1.));
#1359=DIRECTION('ref_axis',(-1.,0.,1.22464679914735E-16));
#1360=DIRECTION('',(0.5,-0.866025403784439,-6.12323399573677E-17));
#1361=DIRECTION('center_axis',(0.866025403784439,0.5,-1.06057523872491E-16));
#1362=DIRECTION('ref_axis',(0.5,-0.866025403784439,-6.12323399573677E-17));
#1363=DIRECTION('',(-0.5,0.866025403784439,6.12323399573677E-17));
#1364=DIRECTION('',(-1.22464679914735E-16,0.,-1.));
#1365=DIRECTION('',(-1.22464679914735E-16,0.,-1.));
#1366=DIRECTION('center_axis',(-1.22464679914735E-16,0.,-1.));
#1367=DIRECTION('ref_axis',(-2.83276944882399E-16,1.,5.80044783250744E-32));
#1368=DIRECTION('center_axis',(-1.22464679914735E-16,0.,-1.));
#1369=DIRECTION('ref_axis',(-1.,0.,1.22464679914735E-16));
#1370=DIRECTION('',(-1.22464679914735E-16,0.,-1.));
#1371=DIRECTION('center_axis',(-0.866025403784439,0.5,1.06057523872491E-16));
#1372=DIRECTION('ref_axis',(0.5,0.866025403784439,-6.12323399573676E-17));
#1373=DIRECTION('',(-0.5,-0.866025403784439,6.12323399573676E-17));
#1374=DIRECTION('',(-1.22464679914735E-16,0.,-1.));
#1375=DIRECTION('center_axis',(-1.22464679914735E-16,0.,-1.));
#1376=DIRECTION('ref_axis',(-3.3690166589284E-15,-1.,4.25805602249978E-31));
#1377=DIRECTION('center_axis',(-1.22464679914735E-16,0.,-1.));
#1378=DIRECTION('ref_axis',(-1.,0.,1.22464679914735E-16));
#1379=DIRECTION('center_axis',(-1.22464679914735E-16,0.,-1.));
#1380=DIRECTION('ref_axis',(-1.,0.,1.22464679914735E-16));
#1381=DIRECTION('center_axis',(-1.22464679914735E-16,0.,-1.));
#1382=DIRECTION('ref_axis',(-1.,0.,1.22464679914735E-16));
#1383=DIRECTION('',(-0.5,-0.866025403784439,6.12323399573677E-17));
#1384=DIRECTION('center_axis',(-1.22464679914735E-16,0.,-1.));
#1385=DIRECTION('ref_axis',(0.866025403784436,-0.500000000000005,-1.0605752387249E-16));
#1386=DIRECTION('',(-0.5,0.866025403784439,6.12323399573677E-17));
#1387=DIRECTION('center_axis',(-1.22464679914735E-16,0.,-1.));
#1388=DIRECTION('ref_axis',(-1.,0.,1.22464679914735E-16));
#1389=DIRECTION('',(-1.22464679914735E-16,0.,-1.));
#1390=DIRECTION('center_axis',(1.22464679914735E-16,0.,1.));
#1391=DIRECTION('ref_axis',(-1.,0.,1.22464679914735E-16));
#1392=DIRECTION('center_axis',(-0.866025403784439,-0.5,1.06057523872491E-16));
#1393=DIRECTION('ref_axis',(-0.5,0.866025403784439,6.12323399573677E-17));
#1394=DIRECTION('',(-1.22464679914735E-16,0.,-1.));
#1395=DIRECTION('',(-1.22464679914735E-16,0.,-1.));
#1396=DIRECTION('center_axis',(-1.22464679914735E-16,0.,-1.));
#1397=DIRECTION('ref_axis',(0.866025403784436,-0.500000000000005,-1.0605752387249E-16));
#1398=DIRECTION('',(-1.22464679914735E-16,0.,-1.));
#1399=DIRECTION('center_axis',(0.866025403784439,-0.5,-1.06057523872491E-16));
#1400=DIRECTION('ref_axis',(-0.5,-0.866025403784439,6.12323399573677E-17));
#1401=DIRECTION('',(-1.22464679914735E-16,0.,-1.));
#1402=DIRECTION('center_axis',(-1.22464679914735E-16,0.,-1.));
#1403=DIRECTION('ref_axis',(-5.0532154980743E-16,1.,7.30426764093529E-32));
#1404=DIRECTION('center_axis',(-1.22464679914735E-16,0.,-1.));
#1405=DIRECTION('ref_axis',(-1.,0.,1.22464679914735E-16));
#1406=CARTESIAN_POINT('',(0.,0.,0.));
#1407=CARTESIAN_POINT('Origin',(0.,0.118993160163448,6.));
#1408=CARTESIAN_POINT('',(2.5,-9.94044767603552,6.));
#1409=CARTESIAN_POINT('',(-2.5,-9.94044767603552,6.));
#1410=CARTESIAN_POINT('Origin',(0.,0.,6.));
#1411=CARTESIAN_POINT('',(-2.5,-7.97481553867196,6.));
#1412=CARTESIAN_POINT('',(-2.5,-15.1792800751791,6.));
#1413=CARTESIAN_POINT('',(2.5,-7.97481553867196,6.));
#1414=CARTESIAN_POINT('',(-2.5,-7.97481553867196,6.));
#1415=CARTESIAN_POINT('',(2.5,-7.97481553867196,6.));
#1416=CARTESIAN_POINT('',(-4.,-4.89858719658941E-16,6.));
#1417=CARTESIAN_POINT('Origin',(0.,0.,6.));
#1418=CARTESIAN_POINT('Origin',(-2.5,-7.97481553867196,3.));
#1419=CARTESIAN_POINT('',(2.5,-7.97481553867196,3.));
#1420=CARTESIAN_POINT('',(-2.5,-7.97481553867196,3.));
#1421=CARTESIAN_POINT('',(-1.25,-7.97481553867196,3.));
#1422=CARTESIAN_POINT('',(2.5,-7.97481553867196,3.));
#1423=CARTESIAN_POINT('',(-2.5,-7.97481553867196,3.));
#1424=CARTESIAN_POINT('Origin',(32.4759526419165,-18.75,3.));
#1425=CARTESIAN_POINT('',(0.0866025403784398,-74.85,3.));
#1426=CARTESIAN_POINT('',(32.4759526419165,-18.75,3.));
#1427=CARTESIAN_POINT('',(28.1999522107308,-26.15625,3.));
#1428=CARTESIAN_POINT('',(0.0866025403784398,-74.85,23.));
#1429=CARTESIAN_POINT('',(0.0866025403784398,-74.85,3.));
#1430=CARTESIAN_POINT('',(32.4759526419165,-18.75,23.));
#1431=CARTESIAN_POINT('',(0.0866025403784221,-74.85,23.));
#1432=CARTESIAN_POINT('',(32.4759526419165,-18.75,3.));
#1433=CARTESIAN_POINT('Origin',(1.77635683940025E-14,-4.44089209850063E-15,
3.));
#1434=CARTESIAN_POINT('',(-32.4759526419165,-18.75,3.));
#1435=CARTESIAN_POINT('Origin',(1.77635683940025E-14,-4.44089209850063E-15,
3.));
#1436=CARTESIAN_POINT('',(-32.4759526419165,-18.75,23.));
#1437=CARTESIAN_POINT('Origin',(1.77635683940025E-14,-4.44089209850063E-15,
23.));
#1438=CARTESIAN_POINT('',(-32.4759526419165,-18.75,3.));
#1439=CARTESIAN_POINT('Origin',(-0.0866025403784754,-74.85,3.));
#1440=CARTESIAN_POINT('',(-0.0866025403784754,-74.85,3.));
#1441=CARTESIAN_POINT('',(-12.0052771599618,-54.20625,3.));
#1442=CARTESIAN_POINT('',(-0.0866025403784754,-74.85,23.));
#1443=CARTESIAN_POINT('',(-0.0866025403784754,-74.85,23.));
#1444=CARTESIAN_POINT('',(-0.0866025403784754,-74.85,3.));
#1445=CARTESIAN_POINT('Origin',(-1.77635683940025E-14,-74.8,3.));
#1446=CARTESIAN_POINT('Origin',(-1.77635683940025E-14,-74.8,3.));
#1447=CARTESIAN_POINT('Origin',(-1.77635683940025E-14,-74.8,23.));
#1448=CARTESIAN_POINT('Origin',(0.,-19.75,23.));
#1449=CARTESIAN_POINT('',(35.0740288532698,-20.25,23.));
#1450=CARTESIAN_POINT('',(-35.0740288532698,-20.25,23.));
#1451=CARTESIAN_POINT('Origin',(0.,0.,23.));
#1452=CARTESIAN_POINT('',(-0.866025403784452,-79.5,23.));
#1453=CARTESIAN_POINT('',(-0.866025403784452,-79.5,23.));
#1454=CARTESIAN_POINT('',(0.866025403784434,-79.5,23.));
#1455=CARTESIAN_POINT('Origin',(0.,-79.,23.));
#1456=CARTESIAN_POINT('',(35.0740288532698,-20.25,23.));
#1457=CARTESIAN_POINT('Origin',(23.808105394024,-32.7631518255959,3.));
#1458=CARTESIAN_POINT('',(1.29903810567665,-71.75,3.));
#1459=CARTESIAN_POINT('',(23.808105394024,-32.7631518255959,3.));
#1460=CARTESIAN_POINT('',(23.6495222358384,-33.0378259127979,3.));
#1461=CARTESIAN_POINT('',(1.29903810567665,-71.75,23.));
#1462=CARTESIAN_POINT('',(1.29903810567665,-71.75,3.));
#1463=CARTESIAN_POINT('',(23.808105394024,-32.7631518255959,23.));
#1464=CARTESIAN_POINT('',(1.29903810567665,-71.75,23.));
#1465=CARTESIAN_POINT('',(23.808105394024,-32.7631518255959,3.));
#1466=CARTESIAN_POINT('Origin',(0.,0.,3.));
#1467=CARTESIAN_POINT('',(24.108609441,-32.5426635483534,3.));
#1468=CARTESIAN_POINT('Origin',(0.,0.,3.));
#1469=CARTESIAN_POINT('',(24.108609441,-32.5426635483534,23.));
#1470=CARTESIAN_POINT('Origin',(0.,0.,23.));
#1471=CARTESIAN_POINT('',(24.108609441,-32.5426635483534,3.));
#1472=CARTESIAN_POINT('Origin',(1.38564064605507,-71.9,3.));
#1473=CARTESIAN_POINT('',(1.38564064605507,-71.9,3.));
#1474=CARTESIAN_POINT('',(12.5032417671378,-52.64375,3.));
#1475=CARTESIAN_POINT('',(1.38564064605507,-71.9,23.));
#1476=CARTESIAN_POINT('',(1.38564064605507,-71.9,23.));
#1477=CARTESIAN_POINT('',(1.38564064605507,-71.9,3.));
#1478=CARTESIAN_POINT('Origin',(-1.77635683940025E-14,-71.1,3.));
#1479=CARTESIAN_POINT('',(0.,-72.7,3.));
#1480=CARTESIAN_POINT('Origin',(-1.77635683940025E-14,-71.1,3.));
#1481=CARTESIAN_POINT('',(0.,-72.7,23.));
#1482=CARTESIAN_POINT('Origin',(-1.77635683940025E-14,-71.1,23.));
#1483=CARTESIAN_POINT('',(0.,-72.7,3.));
#1484=CARTESIAN_POINT('Origin',(0.,-72.5,3.));
#1485=CARTESIAN_POINT('',(0.,-72.5,3.));
#1486=CARTESIAN_POINT('',(0.,-46.125,3.));
#1487=CARTESIAN_POINT('',(0.,-72.5,23.));
#1488=CARTESIAN_POINT('',(0.,0.,23.));
#1489=CARTESIAN_POINT('',(0.,-72.5,3.));
#1490=CARTESIAN_POINT('Origin',(0.,-71.,3.));
#1491=CARTESIAN_POINT('Origin',(0.,-71.,3.));
#1492=CARTESIAN_POINT('Origin',(0.,-71.,23.));
#1493=CARTESIAN_POINT('Origin',(12.0543047205,-52.6213317741767,23.));
#1494=CARTESIAN_POINT('Origin',(0.,0.,0.));
#1495=CARTESIAN_POINT('',(-4.,-4.89858719658941E-16,0.));
#1496=CARTESIAN_POINT('Origin',(0.,0.,0.));
#1497=CARTESIAN_POINT('',(-4.,-4.89858719658941E-16,0.));
#1498=CARTESIAN_POINT('Origin',(0.866025403784416,-79.5,0.));
#1499=CARTESIAN_POINT('',(35.0740288532698,-20.25,0.));
#1500=CARTESIAN_POINT('',(0.866025403784434,-79.5,0.));
#1501=CARTESIAN_POINT('',(35.0740288532698,-20.25,0.));
#1502=CARTESIAN_POINT('',(35.0740288532698,-20.25,0.));
#1503=CARTESIAN_POINT('',(0.866025403784434,-79.5,0.));
#1504=CARTESIAN_POINT('Origin',(0.,-79.,0.));
#1505=CARTESIAN_POINT('',(-0.866025403784452,-79.5,0.));
#1506=CARTESIAN_POINT('Origin',(0.,-79.,0.));
#1507=CARTESIAN_POINT('',(-0.866025403784452,-79.5,0.));
#1508=CARTESIAN_POINT('Origin',(-35.0740288532698,-20.25,0.));
#1509=CARTESIAN_POINT('',(-35.0740288532698,-20.25,0.));
#1510=CARTESIAN_POINT('',(-0.866025403784452,-79.5,0.));
#1511=CARTESIAN_POINT('',(-35.0740288532698,-20.25,0.));
#1512=CARTESIAN_POINT('Origin',(0.,0.,0.));
#1513=CARTESIAN_POINT('Origin',(0.,0.,0.));
#1514=CARTESIAN_POINT('Origin',(0.,-19.75,3.));
#1515=CARTESIAN_POINT('',(2.5,-13.0120136796731,3.));
#1516=CARTESIAN_POINT('',(2.5,-13.862407769336,3.));
#1517=CARTESIAN_POINT('',(-2.5,-13.0120136796731,3.));
#1518=CARTESIAN_POINT('',(-2.5,-16.3810068398366,3.));
#1519=CARTESIAN_POINT('Origin',(0.,0.,3.));
#1520=CARTESIAN_POINT('Origin',(0.,-19.75,0.));
#1521=CARTESIAN_POINT('Origin',(0.,0.,6.));
#1522=CARTESIAN_POINT('',(2.5,-9.94044767603552,11.));
#1523=CARTESIAN_POINT('',(2.5,-9.94044767603552,6.));
#1524=CARTESIAN_POINT('',(-2.5,-9.94044767603552,11.));
#1525=CARTESIAN_POINT('Origin',(0.,0.,11.));
#1526=CARTESIAN_POINT('',(-2.5,-9.94044767603552,6.));
#1527=CARTESIAN_POINT('Origin',(-2.5,-13.0120136796731,6.));
#1528=CARTESIAN_POINT('',(-2.5,-13.0120136796731,11.));
#1529=CARTESIAN_POINT('',(-2.5,-15.1792800751791,11.));
#1530=CARTESIAN_POINT('',(-2.5,-13.0120136796731,6.));
#1531=CARTESIAN_POINT('Origin',(0.,0.,6.));
#1532=CARTESIAN_POINT('',(2.5,-13.0120136796731,11.));
#1533=CARTESIAN_POINT('Origin',(0.,0.,11.));
#1534=CARTESIAN_POINT('',(2.5,-13.0120136796731,6.));
#1535=CARTESIAN_POINT('Origin',(2.5,-9.94044767603552,6.));
#1536=CARTESIAN_POINT('',(2.5,-7.97481553867196,11.));
#1537=CARTESIAN_POINT('Origin',(0.,0.118993160163448,11.));
#1538=CARTESIAN_POINT('Origin',(9.49999999999999,-20.0000002980232,3.5));
#1539=CARTESIAN_POINT('',(-9.50000000000001,-20.0000002980232,3.5));
#1540=CARTESIAN_POINT('',(9.49999999999999,-20.0000002980232,3.5));
#1541=CARTESIAN_POINT('',(-9.50000000000001,-20.0000002980232,3.5));
#1542=CARTESIAN_POINT('',(-9.50000000000001,-20.0000002980232,13.5));
#1543=CARTESIAN_POINT('',(-9.50000000000001,-20.0000002980232,3.5));
#1544=CARTESIAN_POINT('',(9.49999999999999,-20.0000002980232,13.5));
#1545=CARTESIAN_POINT('',(-9.50000000000001,-20.0000002980232,13.5));
#1546=CARTESIAN_POINT('',(9.49999999999999,-20.0000002980232,3.5));
#1547=CARTESIAN_POINT('Origin',(9.49999999999999,-55.0000002980232,3.5));
#1548=CARTESIAN_POINT('',(9.49999999999999,-55.0000002980232,3.5));
#1549=CARTESIAN_POINT('',(9.49999999999999,-20.0000002980232,3.5));
#1550=CARTESIAN_POINT('',(9.49999999999999,-55.0000002980232,13.5));
#1551=CARTESIAN_POINT('',(9.49999999999999,-20.0000002980232,13.5));
#1552=CARTESIAN_POINT('',(9.49999999999999,-55.0000002980232,3.5));
#1553=CARTESIAN_POINT('Origin',(-9.49999999999999,-55.0000002980232,3.5));
#1554=CARTESIAN_POINT('',(-9.49999999999999,-55.0000002980232,3.5));
#1555=CARTESIAN_POINT('',(9.49999999999999,-55.0000002980232,3.5));
#1556=CARTESIAN_POINT('',(-9.49999999999999,-55.0000002980232,13.5));
#1557=CARTESIAN_POINT('',(9.49999999999999,-55.0000002980232,13.5));
#1558=CARTESIAN_POINT('',(-9.49999999999999,-55.0000002980232,3.5));
#1559=CARTESIAN_POINT('Origin',(-9.50000000000001,-20.0000002980232,3.5));
#1560=CARTESIAN_POINT('',(-9.49999999999999,-55.0000002980232,3.5));
#1561=CARTESIAN_POINT('',(-9.49999999999999,-55.0000002980232,13.5));
#1562=CARTESIAN_POINT('Origin',(0.,-37.5000002980232,13.5));
#1563=CARTESIAN_POINT('Origin',(0.,-37.5000002980232,3.5));
#1564=CARTESIAN_POINT('Origin',(0.,0.,6.5));
#1565=CARTESIAN_POINT('',(7.25,8.87868929381831E-16,6.5));
#1566=CARTESIAN_POINT('Origin',(0.,0.,6.5));
#1567=CARTESIAN_POINT('',(7.25,8.87868929381831E-16,8.5));
#1568=CARTESIAN_POINT('',(7.25,8.87868929381831E-16,6.5));
#1569=CARTESIAN_POINT('Origin',(0.,0.,8.5));
#1570=CARTESIAN_POINT('Origin',(0.,0.,8.5));
#1571=CARTESIAN_POINT('Origin',(0.,0.,11.5));
#1572=CARTESIAN_POINT('',(7.25,8.87868929381831E-16,11.5));
#1573=CARTESIAN_POINT('Origin',(0.,0.,11.5));
#1574=CARTESIAN_POINT('',(7.25,8.87868929381831E-16,9.5));
#1575=CARTESIAN_POINT('',(7.25,-8.87868929381831E-16,11.5));
#1576=CARTESIAN_POINT('Origin',(0.,0.,9.5));
#1577=CARTESIAN_POINT('Origin',(0.,0.,9.5));
#1578=CARTESIAN_POINT('Origin',(0.,0.,6.5));
#1579=CARTESIAN_POINT('',(-10.,-1.22464679914735E-15,11.5));
#1580=CARTESIAN_POINT('Origin',(0.,0.,11.5));
#1581=CARTESIAN_POINT('',(-10.,-1.22464679914735E-15,6.5));
#1582=CARTESIAN_POINT('',(-10.,-1.22464679914735E-15,6.5));
#1583=CARTESIAN_POINT('Origin',(0.,0.,6.5));
#1584=CARTESIAN_POINT('Origin',(0.,0.,11.5));
#1585=CARTESIAN_POINT('Origin',(0.,0.,6.5));
#1586=CARTESIAN_POINT('Origin',(0.,0.,23.5));
#1587=CARTESIAN_POINT('',(7.75,-9.49101269339199E-16,21.));
#1588=CARTESIAN_POINT('Origin',(0.,0.,21.));
#1589=CARTESIAN_POINT('',(12.75,1.56142466891288E-15,26.));
#1590=CARTESIAN_POINT('',(10.25,-1.25526296912604E-15,23.5));
#1591=CARTESIAN_POINT('Origin',(0.,0.,26.));
#1592=CARTESIAN_POINT('Origin',(0.,0.,26.));
#1593=CARTESIAN_POINT('',(7.75,-9.49101269339199E-16,11.5));
#1594=CARTESIAN_POINT('Origin',(0.,0.,11.5));
#1595=CARTESIAN_POINT('',(7.75,-9.49101269339199E-16,26.));
#1596=CARTESIAN_POINT('Origin',(0.,-19.75,26.));
#1597=CARTESIAN_POINT('',(-35.0740288532698,-20.25,26.));
#1598=CARTESIAN_POINT('',(35.0740288532698,-20.25,26.));
#1599=CARTESIAN_POINT('Origin',(0.,0.,26.));
#1600=CARTESIAN_POINT('',(-0.866025403784434,-79.5,26.));
#1601=CARTESIAN_POINT('',(-35.0740288532698,-20.25,26.));
#1602=CARTESIAN_POINT('',(0.866025403784452,-79.5,26.));
#1603=CARTESIAN_POINT('Origin',(0.,-79.,26.));
#1604=CARTESIAN_POINT('',(0.866025403784452,-79.5,26.));
#1605=CARTESIAN_POINT('',(2.25,-64.0000009536743,26.));
#1606=CARTESIAN_POINT('Origin',(0.,-64.0000009536743,26.));
#1607=CARTESIAN_POINT('Origin',(0.,0.,23.));
#1608=CARTESIAN_POINT('',(13.25,-1.62265700887024E-15,11.5));
#1609=CARTESIAN_POINT('Origin',(0.,0.,11.5));
#1610=CARTESIAN_POINT('',(13.25,-1.62265700887024E-15,23.));
#1611=CARTESIAN_POINT('',(13.25,-1.62265700887024E-15,23.));
#1612=CARTESIAN_POINT('Origin',(0.,0.,23.));
#1613=CARTESIAN_POINT('Origin',(0.,0.,11.5));
#1614=CARTESIAN_POINT('Origin',(-1.77635683940025E-14,-4.44089209850063E-15,
21.5));
#1615=CARTESIAN_POINT('',(32.1728437505919,-18.5749999999999,23.));
#1616=CARTESIAN_POINT('',(31.7398310486997,-18.325,20.));
#1617=CARTESIAN_POINT('',(32.1728437505919,-18.5749999999999,23.));
#1618=CARTESIAN_POINT('',(-31.7398310486997,-18.325,20.));
#1619=CARTESIAN_POINT('Origin',(-1.77635683940025E-14,-4.44089209850063E-15,
20.));
#1620=CARTESIAN_POINT('',(-32.1728437505919,-18.575,23.));
#1621=CARTESIAN_POINT('',(-31.7398310486997,-18.325,20.));
#1622=CARTESIAN_POINT('Origin',(-1.77635683940025E-14,-4.44089209850063E-15,
23.));
#1623=CARTESIAN_POINT('Origin',(-12.7143354593103,-51.778125,21.5));
#1624=CARTESIAN_POINT('',(-0.952627944162856,-71.65,20.));
#1625=CARTESIAN_POINT('',(-12.4978291083642,-51.653125,20.));
#1626=CARTESIAN_POINT('',(-1.38564064605507,-71.9,23.));
#1627=CARTESIAN_POINT('',(-0.952627944162856,-71.65,20.));
#1628=CARTESIAN_POINT('',(-12.5032417671378,-52.64375,23.));
#1629=CARTESIAN_POINT('Origin',(28.1079370115787,-25.115625,21.5));
#1630=CARTESIAN_POINT('',(1.38564064605513,-71.9,23.));
#1631=CARTESIAN_POINT('',(0.952627944162892,-71.65,20.));
#1632=CARTESIAN_POINT('',(1.38564064605513,-71.9,23.));
#1633=CARTESIAN_POINT('',(27.8914306606326,-24.990625,20.));
#1634=CARTESIAN_POINT('',(27.8968433194062,-25.98125,23.));
#1635=CARTESIAN_POINT('Origin',(1.77635683940025E-14,-71.1,21.5));
#1636=CARTESIAN_POINT('Origin',(1.77635683940025E-14,-71.1,20.));
#1637=CARTESIAN_POINT('Origin',(1.77635683940025E-14,-71.1,23.));
#1638=CARTESIAN_POINT('Origin',(0.,-17.775,20.));
#1639=CARTESIAN_POINT('',(-2.67577995165906,-63.3654131738523,20.));
#1640=CARTESIAN_POINT('',(2.67577995165906,-63.3654131738523,20.));
#1641=CARTESIAN_POINT('Origin',(0.,-64.0000009536743,20.));
#1642=CARTESIAN_POINT('',(29.4448637286709,-17.,20.));
#1643=CARTESIAN_POINT('',(0.,-68.,20.));
#1644=CARTESIAN_POINT('',(-29.4448637286709,-17.,20.));
#1645=CARTESIAN_POINT('Origin',(0.,0.,20.));
#1646=CARTESIAN_POINT('',(0.,-68.,20.));
#1647=CARTESIAN_POINT('Origin',(-29.4448637286709,-17.,23.));
#1648=CARTESIAN_POINT('',(-2.67577995165906,-63.3654131738523,23.));
#1649=CARTESIAN_POINT('',(-29.4448637286709,-17.,23.));
#1650=CARTESIAN_POINT('',(-25.1688632974852,-24.40625,23.));
#1651=CARTESIAN_POINT('',(-2.67577995165906,-63.3654131738523,23.));
#1652=CARTESIAN_POINT('',(-29.4448637286709,-17.,23.));
#1653=CARTESIAN_POINT('Origin',(0.,0.,23.));
#1654=CARTESIAN_POINT('',(29.4448637286709,-17.,23.));
#1655=CARTESIAN_POINT('Origin',(0.,0.,23.));
#1656=CARTESIAN_POINT('',(29.4448637286709,-17.,23.));
#1657=CARTESIAN_POINT('Origin',(2.67577995165906,-63.3654131738523,23.));
#1658=CARTESIAN_POINT('',(2.67577995165906,-63.3654131738523,23.));
#1659=CARTESIAN_POINT('',(11.7843214089793,-47.5889565869262,23.));
#1660=CARTESIAN_POINT('',(2.67577995165906,-63.3654131738523,23.));
#1661=CARTESIAN_POINT('Origin',(0.,-64.0000009536743,23.));
#1662=CARTESIAN_POINT('Origin',(0.,-64.0000009536743,23.));
#1663=CARTESIAN_POINT('Origin',(0.,-19.75,23.));
#1664=CARTESIAN_POINT('',(-35.0740288532698,-20.25,23.));
#1665=CARTESIAN_POINT('',(35.0740288532698,-20.25,23.));
#1666=CARTESIAN_POINT('Origin',(0.,0.,23.));
#1667=CARTESIAN_POINT('',(0.866025403784452,-79.5,23.));
#1668=CARTESIAN_POINT('',(0.866025403784452,-79.5,23.));
#1669=CARTESIAN_POINT('',(-0.866025403784434,-79.5,23.));
#1670=CARTESIAN_POINT('Origin',(0.,-79.,23.));
#1671=CARTESIAN_POINT('',(-35.0740288532698,-20.25,23.));
#1672=CARTESIAN_POINT('Origin',(0.,-64.0000009536743,26.));
#1673=CARTESIAN_POINT('',(2.25,-64.0000009536743,23.));
#1674=CARTESIAN_POINT('',(2.25,-64.0000009536743,26.));
#1675=CARTESIAN_POINT('Origin',(0.,-64.0000009536743,23.));
#1676=CARTESIAN_POINT('Origin',(-0.866025403784416,-79.5,26.));
#1677=CARTESIAN_POINT('',(-35.0740288532698,-20.25,26.));
#1678=CARTESIAN_POINT('',(-0.866025403784434,-79.5,26.));
#1679=CARTESIAN_POINT('Origin',(0.,-79.,26.));
#1680=CARTESIAN_POINT('',(0.866025403784452,-79.5,26.));
#1681=CARTESIAN_POINT('Origin',(35.0740288532698,-20.25,26.));
#1682=CARTESIAN_POINT('',(35.0740288532698,-20.25,26.));
#1683=CARTESIAN_POINT('Origin',(0.,0.,26.));
#1684=CARTESIAN_POINT('Origin',(0.,-19.75,23.));
#1685=UNCERTAINTY_MEASURE_WITH_UNIT(LENGTH_MEASURE(0.01),#1689,
'DISTANCE_ACCURACY_VALUE',
'Maximum model space distance between geometric entities at asserted c
onnectivities');
#1686=UNCERTAINTY_MEASURE_WITH_UNIT(LENGTH_MEASURE(0.01),#1689,
'DISTANCE_ACCURACY_VALUE',
'Maximum model space distance between geometric entities at asserted c
onnectivities');
#1687=(
GEOMETRIC_REPRESENTATION_CONTEXT(3)
GLOBAL_UNCERTAINTY_ASSIGNED_CONTEXT((#1685))
GLOBAL_UNIT_ASSIGNED_CONTEXT((#1689,#1691,#1692))
REPRESENTATION_CONTEXT('','3D')
);
#1688=(
GEOMETRIC_REPRESENTATION_CONTEXT(3)
GLOBAL_UNCERTAINTY_ASSIGNED_CONTEXT((#1686))
GLOBAL_UNIT_ASSIGNED_CONTEXT((#1689,#1691,#1692))
REPRESENTATION_CONTEXT('','3D')
);
#1689=(
LENGTH_UNIT()
NAMED_UNIT(*)
SI_UNIT(.MILLI.,.METRE.)
);
#1690=(
LENGTH_UNIT()
NAMED_UNIT(*)
SI_UNIT($,.METRE.)
);
#1691=(
NAMED_UNIT(*)
PLANE_ANGLE_UNIT()
SI_UNIT($,.RADIAN.)
);
#1692=(
NAMED_UNIT(*)
SI_UNIT($,.STERADIAN.)
SOLID_ANGLE_UNIT()
);
#1693=SHAPE_DEFINITION_REPRESENTATION(#1694,#1695);
#1694=PRODUCT_DEFINITION_SHAPE('',$,#1697);
#1695=SHAPE_REPRESENTATION('',(#1002),#1687);
#1696=PRODUCT_DEFINITION_CONTEXT('part definition',#1701,'design');
#1697=PRODUCT_DEFINITION('Mini humidifer case_Drop',
'Mini humidifer case_Drop v4',#1698,#1696);
#1698=PRODUCT_DEFINITION_FORMATION('',$,#1703);
#1699=PRODUCT_RELATED_PRODUCT_CATEGORY('Mini humidifer case_Drop v4',
'Mini humidifer case_Drop v4',(#1703));
#1700=APPLICATION_PROTOCOL_DEFINITION('international standard',
'automotive_design',2009,#1701);
#1701=APPLICATION_CONTEXT(
'Core Data for Automotive Mechanical Design Process');
#1702=PRODUCT_CONTEXT('part definition',#1701,'mechanical');
#1703=PRODUCT('Mini humidifer case_Drop','Mini humidifer case_Drop v4',
$,(#1702));
#1704=PRESENTATION_STYLE_ASSIGNMENT((#1706));
#1705=PRESENTATION_STYLE_ASSIGNMENT((#1707));
#1706=SURFACE_STYLE_USAGE(.BOTH.,#1708);
#1707=SURFACE_STYLE_USAGE(.BOTH.,#1709);
#1708=SURFACE_SIDE_STYLE('',(#1710));
#1709=SURFACE_SIDE_STYLE('',(#1711));
#1710=SURFACE_STYLE_FILL_AREA(#1712);
#1711=SURFACE_STYLE_FILL_AREA(#1713);
#1712=FILL_AREA_STYLE('Steel - Satin',(#1714));
#1713=FILL_AREA_STYLE('Plastic - Matte (Blue)',(#1715));
#1714=FILL_AREA_STYLE_COLOUR('Steel - Satin',#1716);
#1715=FILL_AREA_STYLE_COLOUR('Plastic - Matte (Blue)',#1717);
#1716=COLOUR_RGB('Steel - Satin',0.627450980392157,0.627450980392157,0.627450980392157);
#1717=COLOUR_RGB('Plastic - Matte (Blue)',0.188235294117647,0.231372549019608,
0.588235294117647);
ENDSEC;
END-ISO-10303-21;
