ISO-10303-21;
HEADER;
/* Generated by software containing ST-Developer
 * from STEP Tools, Inc. (www.steptools.com) 
 */

FILE_DESCRIPTION(
/* description */ (''),
/* implementation_level */ '2;1');

FILE_NAME(
/* name */ 'Mini humidifer case_Drop_assembaled.step',
/* time_stamp */ '2026-06-23T13:29:14-07:00',
/* author */ (''),
/* organization */ (''),
/* preprocessor_version */ 'ST-DEVELOPER v20.1',
/* originating_system */ 'Autodesk Translation Framework v15.8.0.0',
/* authorisation */ '');

FILE_SCHEMA (('AUTOMOTIVE_DESIGN { 1 0 10303 214 3 1 1 }'));
ENDSEC;

DATA;
#10=MECHANICAL_DESIGN_GEOMETRIC_PRESENTATION_REPRESENTATION('',(#16,#17,
#18,#19),#1765);
#11=SHAPE_REPRESENTATION_RELATIONSHIP('SRR','None',#1772,#12);
#12=ADVANCED_BREP_SHAPE_REPRESENTATION('',(#20,#21,#22,#23),#1764);
#13=CONICAL_SURFACE('',#1113,9.15,0.785398163397448);
#14=CONICAL_SURFACE('',#1120,7.4,0.785398163397448);
#15=CONICAL_SURFACE('',#1140,29.2500001411689,0.165148677414626);
#16=STYLED_ITEM('',(#1782),#20);
#17=STYLED_ITEM('',(#1781),#21);
#18=STYLED_ITEM('',(#1781),#22);
#19=STYLED_ITEM('',(#1782),#23);
#20=MANIFOLD_SOLID_BREP('Body2',#1032);
#21=MANIFOLD_SOLID_BREP('Body5',#1033);
#22=MANIFOLD_SOLID_BREP('Body7',#1034);
#23=MANIFOLD_SOLID_BREP('Body3',#1035);
#24=FACE_BOUND('',#145,.T.);
#25=FACE_BOUND('',#153,.T.);
#26=FACE_BOUND('',#159,.T.);
#27=FACE_BOUND('',#160,.T.);
#28=FACE_BOUND('',#161,.T.);
#29=FACE_BOUND('',#163,.T.);
#30=FACE_BOUND('',#176,.T.);
#31=FACE_BOUND('',#178,.T.);
#32=FACE_BOUND('',#182,.T.);
#33=FACE_BOUND('',#185,.T.);
#34=FACE_BOUND('',#207,.T.);
#35=PLANE('',#1052);
#36=PLANE('',#1055);
#37=PLANE('',#1056);
#38=PLANE('',#1072);
#39=PLANE('',#1074);
#40=PLANE('',#1082);
#41=PLANE('',#1083);
#42=PLANE('',#1084);
#43=PLANE('',#1088);
#44=PLANE('',#1091);
#45=PLANE('',#1092);
#46=PLANE('',#1093);
#47=PLANE('',#1094);
#48=PLANE('',#1095);
#49=PLANE('',#1096);
#50=PLANE('',#1097);
#51=PLANE('',#1098);
#52=PLANE('',#1099);
#53=PLANE('',#1103);
#54=PLANE('',#1107);
#55=PLANE('',#1111);
#56=PLANE('',#1112);
#57=PLANE('',#1118);
#58=PLANE('',#1123);
#59=PLANE('',#1131);
#60=PLANE('',#1132);
#61=PLANE('',#1137);
#62=PLANE('',#1138);
#63=PLANE('',#1139);
#64=PLANE('',#1142);
#65=PLANE('',#1145);
#66=PLANE('',#1146);
#67=PLANE('',#1147);
#68=PLANE('',#1148);
#69=PLANE('',#1152);
#70=PLANE('',#1153);
#71=PLANE('',#1154);
#72=PLANE('',#1156);
#73=FACE_OUTER_BOUND('',#135,.T.);
#74=FACE_OUTER_BOUND('',#136,.T.);
#75=FACE_OUTER_BOUND('',#137,.T.);
#76=FACE_OUTER_BOUND('',#138,.T.);
#77=FACE_OUTER_BOUND('',#139,.T.);
#78=FACE_OUTER_BOUND('',#140,.T.);
#79=FACE_OUTER_BOUND('',#141,.T.);
#80=FACE_OUTER_BOUND('',#142,.T.);
#81=FACE_OUTER_BOUND('',#143,.T.);
#82=FACE_OUTER_BOUND('',#144,.T.);
#83=FACE_OUTER_BOUND('',#146,.T.);
#84=FACE_OUTER_BOUND('',#147,.T.);
#85=FACE_OUTER_BOUND('',#148,.T.);
#86=FACE_OUTER_BOUND('',#149,.T.);
#87=FACE_OUTER_BOUND('',#150,.T.);
#88=FACE_OUTER_BOUND('',#151,.T.);
#89=FACE_OUTER_BOUND('',#152,.T.);
#90=FACE_OUTER_BOUND('',#154,.T.);
#91=FACE_OUTER_BOUND('',#155,.T.);
#92=FACE_OUTER_BOUND('',#156,.T.);
#93=FACE_OUTER_BOUND('',#157,.T.);
#94=FACE_OUTER_BOUND('',#158,.T.);
#95=FACE_OUTER_BOUND('',#162,.T.);
#96=FACE_OUTER_BOUND('',#164,.T.);
#97=FACE_OUTER_BOUND('',#165,.T.);
#98=FACE_OUTER_BOUND('',#166,.T.);
#99=FACE_OUTER_BOUND('',#167,.T.);
#100=FACE_OUTER_BOUND('',#168,.T.);
#101=FACE_OUTER_BOUND('',#169,.T.);
#102=FACE_OUTER_BOUND('',#170,.T.);
#103=FACE_OUTER_BOUND('',#171,.T.);
#104=FACE_OUTER_BOUND('',#172,.T.);
#105=FACE_OUTER_BOUND('',#173,.T.);
#106=FACE_OUTER_BOUND('',#174,.T.);
#107=FACE_OUTER_BOUND('',#175,.T.);
#108=FACE_OUTER_BOUND('',#177,.T.);
#109=FACE_OUTER_BOUND('',#179,.T.);
#110=FACE_OUTER_BOUND('',#180,.T.);
#111=FACE_OUTER_BOUND('',#181,.T.);
#112=FACE_OUTER_BOUND('',#183,.T.);
#113=FACE_OUTER_BOUND('',#184,.T.);
#114=FACE_OUTER_BOUND('',#186,.T.);
#115=FACE_OUTER_BOUND('',#187,.T.);
#116=FACE_OUTER_BOUND('',#188,.T.);
#117=FACE_OUTER_BOUND('',#189,.T.);
#118=FACE_OUTER_BOUND('',#190,.T.);
#119=FACE_OUTER_BOUND('',#191,.T.);
#120=FACE_OUTER_BOUND('',#192,.T.);
#121=FACE_OUTER_BOUND('',#193,.T.);
#122=FACE_OUTER_BOUND('',#194,.T.);
#123=FACE_OUTER_BOUND('',#195,.T.);
#124=FACE_OUTER_BOUND('',#196,.T.);
#125=FACE_OUTER_BOUND('',#197,.T.);
#126=FACE_OUTER_BOUND('',#198,.T.);
#127=FACE_OUTER_BOUND('',#199,.T.);
#128=FACE_OUTER_BOUND('',#200,.T.);
#129=FACE_OUTER_BOUND('',#201,.T.);
#130=FACE_OUTER_BOUND('',#202,.T.);
#131=FACE_OUTER_BOUND('',#203,.T.);
#132=FACE_OUTER_BOUND('',#204,.T.);
#133=FACE_OUTER_BOUND('',#205,.T.);
#134=FACE_OUTER_BOUND('',#206,.T.);
#135=EDGE_LOOP('',(#671,#672,#673,#674));
#136=EDGE_LOOP('',(#675,#676,#677,#678,#679));
#137=EDGE_LOOP('',(#680,#681,#682,#683));
#138=EDGE_LOOP('',(#684,#685,#686,#687));
#139=EDGE_LOOP('',(#688,#689,#690,#691));
#140=EDGE_LOOP('',(#692,#693,#694,#695));
#141=EDGE_LOOP('',(#696,#697,#698,#699));
#142=EDGE_LOOP('',(#700,#701,#702,#703));
#143=EDGE_LOOP('',(#704,#705,#706,#707));
#144=EDGE_LOOP('',(#708));
#145=EDGE_LOOP('',(#709));
#146=EDGE_LOOP('',(#710,#711,#712,#713));
#147=EDGE_LOOP('',(#714,#715,#716,#717));
#148=EDGE_LOOP('',(#718,#719,#720,#721));
#149=EDGE_LOOP('',(#722,#723,#724,#725));
#150=EDGE_LOOP('',(#726,#727,#728,#729));
#151=EDGE_LOOP('',(#730,#731,#732,#733));
#152=EDGE_LOOP('',(#734,#735,#736));
#153=EDGE_LOOP('',(#737,#738,#739));
#154=EDGE_LOOP('',(#740,#741,#742,#743));
#155=EDGE_LOOP('',(#744,#745,#746,#747));
#156=EDGE_LOOP('',(#748,#749,#750,#751));
#157=EDGE_LOOP('',(#752,#753,#754,#755));
#158=EDGE_LOOP('',(#756,#757,#758));
#159=EDGE_LOOP('',(#759,#760,#761,#762));
#160=EDGE_LOOP('',(#763));
#161=EDGE_LOOP('',(#764,#765,#766,#767,#768));
#162=EDGE_LOOP('',(#769,#770,#771));
#163=EDGE_LOOP('',(#772));
#164=EDGE_LOOP('',(#773,#774,#775,#776));
#165=EDGE_LOOP('',(#777,#778,#779,#780));
#166=EDGE_LOOP('',(#781,#782,#783,#784));
#167=EDGE_LOOP('',(#785,#786,#787,#788));
#168=EDGE_LOOP('',(#789,#790,#791,#792));
#169=EDGE_LOOP('',(#793,#794,#795,#796));
#170=EDGE_LOOP('',(#797,#798,#799,#800));
#171=EDGE_LOOP('',(#801));
#172=EDGE_LOOP('',(#802,#803,#804,#805));
#173=EDGE_LOOP('',(#806));
#174=EDGE_LOOP('',(#807,#808,#809,#810));
#175=EDGE_LOOP('',(#811));
#176=EDGE_LOOP('',(#812));
#177=EDGE_LOOP('',(#813));
#178=EDGE_LOOP('',(#814));
#179=EDGE_LOOP('',(#815,#816,#817,#818));
#180=EDGE_LOOP('',(#819,#820,#821,#822));
#181=EDGE_LOOP('',(#823));
#182=EDGE_LOOP('',(#824));
#183=EDGE_LOOP('',(#825,#826,#827,#828));
#184=EDGE_LOOP('',(#829,#830,#831,#832,#833,#834,#835,#836,#837));
#185=EDGE_LOOP('',(#838));
#186=EDGE_LOOP('',(#839,#840,#841,#842));
#187=EDGE_LOOP('',(#843,#844,#845,#846));
#188=EDGE_LOOP('',(#847,#848,#849,#850,#851,#852,#853,#854));
#189=EDGE_LOOP('',(#855,#856,#857,#858,#859,#860,#861,#862,#863,#864,#865,
#866));
#190=EDGE_LOOP('',(#867,#868,#869,#870));
#191=EDGE_LOOP('',(#871,#872,#873,#874,#875,#876,#877,#878));
#192=EDGE_LOOP('',(#879,#880,#881,#882));
#193=EDGE_LOOP('',(#883,#884,#885,#886));
#194=EDGE_LOOP('',(#887,#888,#889,#890));
#195=EDGE_LOOP('',(#891,#892,#893,#894));
#196=EDGE_LOOP('',(#895,#896,#897,#898));
#197=EDGE_LOOP('',(#899,#900,#901,#902));
#198=EDGE_LOOP('',(#903,#904,#905,#906));
#199=EDGE_LOOP('',(#907,#908,#909,#910));
#200=EDGE_LOOP('',(#911,#912,#913,#914,#915,#916,#917,#918,#919,#920));
#201=EDGE_LOOP('',(#921,#922,#923,#924));
#202=EDGE_LOOP('',(#925,#926,#927,#928));
#203=EDGE_LOOP('',(#929,#930,#931,#932));
#204=EDGE_LOOP('',(#933,#934,#935,#936));
#205=EDGE_LOOP('',(#937,#938,#939,#940));
#206=EDGE_LOOP('',(#941,#942,#943,#944,#945,#946,#947));
#207=EDGE_LOOP('',(#948));
#208=LINE('',#1474,#301);
#209=LINE('',#1477,#302);
#210=LINE('',#1480,#303);
#211=LINE('',#1484,#304);
#212=LINE('',#1488,#305);
#213=LINE('',#1489,#306);
#214=LINE('',#1501,#307);
#215=LINE('',#1504,#308);
#216=LINE('',#1507,#309);
#217=LINE('',#1510,#310);
#218=LINE('',#1519,#311);
#219=LINE('',#1527,#312);
#220=LINE('',#1528,#313);
#221=LINE('',#1529,#314);
#222=LINE('',#1539,#315);
#223=LINE('',#1542,#316);
#224=LINE('',#1545,#317);
#225=LINE('',#1547,#318);
#226=LINE('',#1548,#319);
#227=LINE('',#1550,#320);
#228=LINE('',#1551,#321);
#229=LINE('',#1555,#322);
#230=LINE('',#1558,#323);
#231=LINE('',#1562,#324);
#232=LINE('',#1566,#325);
#233=LINE('',#1567,#326);
#234=LINE('',#1568,#327);
#235=LINE('',#1572,#328);
#236=LINE('',#1574,#329);
#237=LINE('',#1580,#330);
#238=LINE('',#1582,#331);
#239=LINE('',#1584,#332);
#240=LINE('',#1585,#333);
#241=LINE('',#1588,#334);
#242=LINE('',#1590,#335);
#243=LINE('',#1591,#336);
#244=LINE('',#1594,#337);
#245=LINE('',#1596,#338);
#246=LINE('',#1597,#339);
#247=LINE('',#1599,#340);
#248=LINE('',#1600,#341);
#249=LINE('',#1607,#342);
#250=LINE('',#1614,#343);
#251=LINE('',#1621,#344);
#252=LINE('',#1629,#345);
#253=LINE('',#1633,#346);
#254=LINE('',#1642,#347);
#255=LINE('',#1649,#348);
#256=LINE('',#1653,#349);
#257=LINE('',#1657,#350);
#258=LINE('',#1659,#351);
#259=LINE('',#1662,#352);
#260=LINE('',#1664,#353);
#261=LINE('',#1667,#354);
#262=LINE('',#1670,#355);
#263=LINE('',#1673,#356);
#264=LINE('',#1675,#357);
#265=LINE('',#1677,#358);
#266=LINE('',#1679,#359);
#267=LINE('',#1681,#360);
#268=LINE('',#1682,#361);
#269=LINE('',#1685,#362);
#270=LINE('',#1689,#363);
#271=LINE('',#1691,#364);
#272=LINE('',#1695,#365);
#273=LINE('',#1697,#366);
#274=LINE('',#1699,#367);
#275=LINE('',#1702,#368);
#276=LINE('',#1704,#369);
#277=LINE('',#1705,#370);
#278=LINE('',#1708,#371);
#279=LINE('',#1710,#372);
#280=LINE('',#1712,#373);
#281=LINE('',#1714,#374);
#282=LINE('',#1715,#375);
#283=LINE('',#1718,#376);
#284=LINE('',#1719,#377);
#285=LINE('',#1722,#378);
#286=LINE('',#1723,#379);
#287=LINE('',#1726,#380);
#288=LINE('',#1729,#381);
#289=LINE('',#1734,#382);
#290=LINE('',#1736,#383);
#291=LINE('',#1737,#384);
#292=LINE('',#1739,#385);
#293=LINE('',#1741,#386);
#294=LINE('',#1744,#387);
#295=LINE('',#1747,#388);
#296=LINE('',#1752,#389);
#297=LINE('',#1753,#390);
#298=LINE('',#1755,#391);
#299=LINE('',#1757,#392);
#300=LINE('',#1759,#393);
#301=VECTOR('',#1163,10.);
#302=VECTOR('',#1166,10.);
#303=VECTOR('',#1169,10.);
#304=VECTOR('',#1172,10.);
#305=VECTOR('',#1177,10.);
#306=VECTOR('',#1178,10.);
#307=VECTOR('',#1191,10.);
#308=VECTOR('',#1194,10.);
#309=VECTOR('',#1197,10.);
#310=VECTOR('',#1200,10.);
#311=VECTOR('',#1213,6.15);
#312=VECTOR('',#1222,10.);
#313=VECTOR('',#1223,10.);
#314=VECTOR('',#1224,10.);
#315=VECTOR('',#1237,10.);
#316=VECTOR('',#1240,10.);
#317=VECTOR('',#1243,10.);
#318=VECTOR('',#1244,10.);
#319=VECTOR('',#1245,10.);
#320=VECTOR('',#1248,10.);
#321=VECTOR('',#1249,10.);
#322=VECTOR('',#1252,10.);
#323=VECTOR('',#1255,10.);
#324=VECTOR('',#1260,4.);
#325=VECTOR('',#1263,10.);
#326=VECTOR('',#1264,10.);
#327=VECTOR('',#1265,10.);
#328=VECTOR('',#1270,10.);
#329=VECTOR('',#1273,10.);
#330=VECTOR('',#1280,10.);
#331=VECTOR('',#1281,10.);
#332=VECTOR('',#1282,10.);
#333=VECTOR('',#1283,10.);
#334=VECTOR('',#1286,10.);
#335=VECTOR('',#1287,10.);
#336=VECTOR('',#1288,10.);
#337=VECTOR('',#1291,10.);
#338=VECTOR('',#1292,10.);
#339=VECTOR('',#1293,10.);
#340=VECTOR('',#1296,10.);
#341=VECTOR('',#1297,10.);
#342=VECTOR('',#1306,6.25);
#343=VECTOR('',#1315,6.25);
#344=VECTOR('',#1324,10.);
#345=VECTOR('',#1335,9.15);
#346=VECTOR('',#1340,9.4);
#347=VECTOR('',#1351,7.4);
#348=VECTOR('',#1358,10.);
#349=VECTOR('',#1361,10.);
#350=VECTOR('',#1364,10.);
#351=VECTOR('',#1365,10.);
#352=VECTOR('',#1368,10.);
#353=VECTOR('',#1371,6.15);
#354=VECTOR('',#1374,10.);
#355=VECTOR('',#1377,10.);
#356=VECTOR('',#1380,10.);
#357=VECTOR('',#1381,10.);
#358=VECTOR('',#1382,10.);
#359=VECTOR('',#1383,10.);
#360=VECTOR('',#1384,10.);
#361=VECTOR('',#1385,10.);
#362=VECTOR('',#1388,10.);
#363=VECTOR('',#1391,10.);
#364=VECTOR('',#1392,10.);
#365=VECTOR('',#1395,10.);
#366=VECTOR('',#1396,10.);
#367=VECTOR('',#1397,10.);
#368=VECTOR('',#1400,10.);
#369=VECTOR('',#1403,10.);
#370=VECTOR('',#1404,10.);
#371=VECTOR('',#1407,10.);
#372=VECTOR('',#1408,10.);
#373=VECTOR('',#1409,10.);
#374=VECTOR('',#1410,10.);
#375=VECTOR('',#1411,10.);
#376=VECTOR('',#1414,10.);
#377=VECTOR('',#1415,10.);
#378=VECTOR('',#1418,10.);
#379=VECTOR('',#1419,10.);
#380=VECTOR('',#1422,10.);
#381=VECTOR('',#1427,10.);
#382=VECTOR('',#1434,10.);
#383=VECTOR('',#1435,10.);
#384=VECTOR('',#1436,10.);
#385=VECTOR('',#1439,10.);
#386=VECTOR('',#1442,10.);
#387=VECTOR('',#1445,10.);
#388=VECTOR('',#1448,10.);
#389=VECTOR('',#1453,10.);
#390=VECTOR('',#1454,10.);
#391=VECTOR('',#1457,10.);
#392=VECTOR('',#1460,10.);
#393=VECTOR('',#1463,10.);
#394=CIRCLE('',#1050,1.5);
#395=CIRCLE('',#1051,1.5);
#396=CIRCLE('',#1053,9.9);
#397=CIRCLE('',#1054,11.9);
#398=CIRCLE('',#1057,1.);
#399=CIRCLE('',#1058,15.1);
#400=CIRCLE('',#1059,1.);
#401=CIRCLE('',#1060,13.1);
#402=CIRCLE('',#1062,1.);
#403=CIRCLE('',#1064,1.);
#404=CIRCLE('',#1066,13.1);
#405=CIRCLE('',#1068,15.1);
#406=CIRCLE('',#1070,6.15);
#407=CIRCLE('',#1071,6.15);
#408=CIRCLE('',#1073,4.);
#409=CIRCLE('',#1076,9.9);
#410=CIRCLE('',#1078,11.9);
#411=CIRCLE('',#1080,30.0000001411689);
#412=CIRCLE('',#1081,30.0000001411689);
#413=CIRCLE('',#1085,32.0000001411689);
#414=CIRCLE('',#1087,4.);
#415=CIRCLE('',#1090,32.0000001411689);
#416=CIRCLE('',#1101,6.25);
#417=CIRCLE('',#1102,6.25);
#418=CIRCLE('',#1105,6.25);
#419=CIRCLE('',#1106,6.25);
#420=CIRCLE('',#1109,10.);
#421=CIRCLE('',#1110,10.);
#422=CIRCLE('',#1114,8.9);
#423=CIRCLE('',#1115,9.4);
#424=CIRCLE('',#1117,9.4);
#425=CIRCLE('',#1119,6.15);
#426=CIRCLE('',#1121,8.65);
#427=CIRCLE('',#1122,6.15);
#428=CIRCLE('',#1124,1.);
#429=CIRCLE('',#1125,2.);
#430=CIRCLE('',#1126,1.);
#431=CIRCLE('',#1127,32.0000001411689);
#432=CIRCLE('',#1130,1.);
#433=CIRCLE('',#1133,32.0000001411689);
#434=CIRCLE('',#1134,1.);
#435=CIRCLE('',#1135,29.5000001411689);
#436=CIRCLE('',#1141,29.0000001411689);
#437=CIRCLE('',#1144,2.);
#438=CIRCLE('',#1149,27.5000001411689);
#439=CIRCLE('',#1151,27.5000001411689);
#440=VERTEX_POINT('',#1470);
#441=VERTEX_POINT('',#1471);
#442=VERTEX_POINT('',#1473);
#443=VERTEX_POINT('',#1475);
#444=VERTEX_POINT('',#1479);
#445=VERTEX_POINT('',#1481);
#446=VERTEX_POINT('',#1483);
#447=VERTEX_POINT('',#1487);
#448=VERTEX_POINT('',#1491);
#449=VERTEX_POINT('',#1492);
#450=VERTEX_POINT('',#1494);
#451=VERTEX_POINT('',#1496);
#452=VERTEX_POINT('',#1500);
#453=VERTEX_POINT('',#1502);
#454=VERTEX_POINT('',#1506);
#455=VERTEX_POINT('',#1508);
#456=VERTEX_POINT('',#1516);
#457=VERTEX_POINT('',#1518);
#458=VERTEX_POINT('',#1522);
#459=VERTEX_POINT('',#1525);
#460=VERTEX_POINT('',#1526);
#461=VERTEX_POINT('',#1535);
#462=VERTEX_POINT('',#1536);
#463=VERTEX_POINT('',#1538);
#464=VERTEX_POINT('',#1540);
#465=VERTEX_POINT('',#1544);
#466=VERTEX_POINT('',#1546);
#467=VERTEX_POINT('',#1553);
#468=VERTEX_POINT('',#1554);
#469=VERTEX_POINT('',#1556);
#470=VERTEX_POINT('',#1560);
#471=VERTEX_POINT('',#1564);
#472=VERTEX_POINT('',#1565);
#473=VERTEX_POINT('',#1570);
#474=VERTEX_POINT('',#1578);
#475=VERTEX_POINT('',#1579);
#476=VERTEX_POINT('',#1581);
#477=VERTEX_POINT('',#1583);
#478=VERTEX_POINT('',#1587);
#479=VERTEX_POINT('',#1589);
#480=VERTEX_POINT('',#1593);
#481=VERTEX_POINT('',#1595);
#482=VERTEX_POINT('',#1604);
#483=VERTEX_POINT('',#1606);
#484=VERTEX_POINT('',#1611);
#485=VERTEX_POINT('',#1613);
#486=VERTEX_POINT('',#1618);
#487=VERTEX_POINT('',#1620);
#488=VERTEX_POINT('',#1626);
#489=VERTEX_POINT('',#1628);
#490=VERTEX_POINT('',#1632);
#491=VERTEX_POINT('',#1636);
#492=VERTEX_POINT('',#1639);
#493=VERTEX_POINT('',#1641);
#494=VERTEX_POINT('',#1645);
#495=VERTEX_POINT('',#1646);
#496=VERTEX_POINT('',#1648);
#497=VERTEX_POINT('',#1650);
#498=VERTEX_POINT('',#1652);
#499=VERTEX_POINT('',#1654);
#500=VERTEX_POINT('',#1656);
#501=VERTEX_POINT('',#1658);
#502=VERTEX_POINT('',#1660);
#503=VERTEX_POINT('',#1666);
#504=VERTEX_POINT('',#1668);
#505=VERTEX_POINT('',#1672);
#506=VERTEX_POINT('',#1674);
#507=VERTEX_POINT('',#1676);
#508=VERTEX_POINT('',#1678);
#509=VERTEX_POINT('',#1680);
#510=VERTEX_POINT('',#1684);
#511=VERTEX_POINT('',#1686);
#512=VERTEX_POINT('',#1688);
#513=VERTEX_POINT('',#1690);
#514=VERTEX_POINT('',#1692);
#515=VERTEX_POINT('',#1694);
#516=VERTEX_POINT('',#1696);
#517=VERTEX_POINT('',#1698);
#518=VERTEX_POINT('',#1700);
#519=VERTEX_POINT('',#1707);
#520=VERTEX_POINT('',#1709);
#521=VERTEX_POINT('',#1711);
#522=VERTEX_POINT('',#1713);
#523=VERTEX_POINT('',#1717);
#524=VERTEX_POINT('',#1721);
#525=VERTEX_POINT('',#1725);
#526=VERTEX_POINT('',#1733);
#527=VERTEX_POINT('',#1735);
#528=VERTEX_POINT('',#1743);
#529=VERTEX_POINT('',#1745);
#530=VERTEX_POINT('',#1749);
#531=VERTEX_POINT('',#1750);
#532=EDGE_CURVE('',#440,#441,#394,.T.);
#533=EDGE_CURVE('',#441,#442,#208,.T.);
#534=EDGE_CURVE('',#442,#443,#395,.F.);
#535=EDGE_CURVE('',#443,#440,#209,.T.);
#536=EDGE_CURVE('',#440,#444,#210,.T.);
#537=EDGE_CURVE('',#444,#445,#396,.T.);
#538=EDGE_CURVE('',#445,#446,#211,.T.);
#539=EDGE_CURVE('',#446,#441,#397,.T.);
#540=EDGE_CURVE('',#447,#443,#212,.T.);
#541=EDGE_CURVE('',#447,#444,#213,.T.);
#542=EDGE_CURVE('',#448,#449,#398,.T.);
#543=EDGE_CURVE('',#448,#450,#399,.T.);
#544=EDGE_CURVE('',#451,#450,#400,.T.);
#545=EDGE_CURVE('',#451,#449,#401,.T.);
#546=EDGE_CURVE('',#449,#452,#214,.T.);
#547=EDGE_CURVE('',#452,#453,#402,.F.);
#548=EDGE_CURVE('',#453,#448,#215,.T.);
#549=EDGE_CURVE('',#450,#454,#216,.T.);
#550=EDGE_CURVE('',#454,#455,#403,.F.);
#551=EDGE_CURVE('',#455,#451,#217,.T.);
#552=EDGE_CURVE('',#452,#455,#404,.T.);
#553=EDGE_CURVE('',#454,#453,#405,.T.);
#554=EDGE_CURVE('',#456,#456,#406,.T.);
#555=EDGE_CURVE('',#456,#457,#218,.T.);
#556=EDGE_CURVE('',#457,#457,#407,.T.);
#557=EDGE_CURVE('',#458,#458,#408,.T.);
#558=EDGE_CURVE('',#459,#460,#219,.T.);
#559=EDGE_CURVE('',#459,#446,#220,.T.);
#560=EDGE_CURVE('',#460,#445,#221,.T.);
#561=EDGE_CURVE('',#460,#447,#409,.T.);
#562=EDGE_CURVE('',#442,#459,#410,.T.);
#563=EDGE_CURVE('',#461,#462,#411,.T.);
#564=EDGE_CURVE('',#461,#463,#222,.T.);
#565=EDGE_CURVE('',#464,#463,#412,.T.);
#566=EDGE_CURVE('',#462,#464,#223,.T.);
#567=EDGE_CURVE('',#462,#465,#224,.T.);
#568=EDGE_CURVE('',#466,#464,#225,.T.);
#569=EDGE_CURVE('',#465,#466,#226,.T.);
#570=EDGE_CURVE('',#465,#461,#227,.T.);
#571=EDGE_CURVE('',#463,#466,#228,.T.);
#572=EDGE_CURVE('',#467,#468,#229,.T.);
#573=EDGE_CURVE('',#468,#469,#413,.T.);
#574=EDGE_CURVE('',#469,#467,#230,.T.);
#575=EDGE_CURVE('',#470,#470,#414,.T.);
#576=EDGE_CURVE('',#470,#458,#231,.T.);
#577=EDGE_CURVE('',#471,#472,#232,.T.);
#578=EDGE_CURVE('',#471,#467,#233,.T.);
#579=EDGE_CURVE('',#472,#469,#234,.T.);
#580=EDGE_CURVE('',#473,#472,#415,.T.);
#581=EDGE_CURVE('',#473,#468,#235,.T.);
#582=EDGE_CURVE('',#471,#473,#236,.T.);
#583=EDGE_CURVE('',#474,#475,#237,.T.);
#584=EDGE_CURVE('',#474,#476,#238,.T.);
#585=EDGE_CURVE('',#477,#476,#239,.T.);
#586=EDGE_CURVE('',#475,#477,#240,.T.);
#587=EDGE_CURVE('',#475,#478,#241,.T.);
#588=EDGE_CURVE('',#479,#477,#242,.T.);
#589=EDGE_CURVE('',#478,#479,#243,.T.);
#590=EDGE_CURVE('',#478,#480,#244,.T.);
#591=EDGE_CURVE('',#481,#479,#245,.T.);
#592=EDGE_CURVE('',#480,#481,#246,.T.);
#593=EDGE_CURVE('',#480,#474,#247,.T.);
#594=EDGE_CURVE('',#476,#481,#248,.T.);
#595=EDGE_CURVE('',#482,#482,#416,.T.);
#596=EDGE_CURVE('',#482,#483,#249,.T.);
#597=EDGE_CURVE('',#483,#483,#417,.T.);
#598=EDGE_CURVE('',#484,#484,#418,.T.);
#599=EDGE_CURVE('',#484,#485,#250,.T.);
#600=EDGE_CURVE('',#485,#485,#419,.T.);
#601=EDGE_CURVE('',#486,#486,#420,.T.);
#602=EDGE_CURVE('',#486,#487,#251,.T.);
#603=EDGE_CURVE('',#487,#487,#421,.T.);
#604=EDGE_CURVE('',#488,#488,#422,.T.);
#605=EDGE_CURVE('',#488,#489,#252,.T.);
#606=EDGE_CURVE('',#489,#489,#423,.T.);
#607=EDGE_CURVE('',#489,#490,#253,.T.);
#608=EDGE_CURVE('',#490,#490,#424,.T.);
#609=EDGE_CURVE('',#491,#491,#425,.T.);
#610=EDGE_CURVE('',#492,#492,#426,.T.);
#611=EDGE_CURVE('',#492,#493,#254,.T.);
#612=EDGE_CURVE('',#493,#493,#427,.T.);
#613=EDGE_CURVE('',#494,#495,#428,.T.);
#614=EDGE_CURVE('',#494,#496,#255,.T.);
#615=EDGE_CURVE('',#496,#497,#429,.T.);
#616=EDGE_CURVE('',#497,#498,#256,.T.);
#617=EDGE_CURVE('',#499,#498,#430,.T.);
#618=EDGE_CURVE('',#500,#499,#257,.T.);
#619=EDGE_CURVE('',#500,#501,#258,.T.);
#620=EDGE_CURVE('',#502,#501,#431,.T.);
#621=EDGE_CURVE('',#495,#502,#259,.T.);
#622=EDGE_CURVE('',#493,#491,#260,.T.);
#623=EDGE_CURVE('',#495,#503,#261,.T.);
#624=EDGE_CURVE('',#503,#504,#432,.T.);
#625=EDGE_CURVE('',#504,#494,#262,.T.);
#626=EDGE_CURVE('',#505,#504,#263,.T.);
#627=EDGE_CURVE('',#506,#505,#264,.T.);
#628=EDGE_CURVE('',#507,#506,#265,.T.);
#629=EDGE_CURVE('',#508,#507,#266,.T.);
#630=EDGE_CURVE('',#509,#508,#267,.T.);
#631=EDGE_CURVE('',#496,#509,#268,.T.);
#632=EDGE_CURVE('',#503,#510,#269,.T.);
#633=EDGE_CURVE('',#510,#511,#433,.T.);
#634=EDGE_CURVE('',#511,#512,#270,.T.);
#635=EDGE_CURVE('',#512,#513,#271,.T.);
#636=EDGE_CURVE('',#514,#513,#434,.T.);
#637=EDGE_CURVE('',#514,#515,#272,.T.);
#638=EDGE_CURVE('',#515,#516,#273,.T.);
#639=EDGE_CURVE('',#516,#517,#274,.T.);
#640=EDGE_CURVE('',#517,#518,#435,.T.);
#641=EDGE_CURVE('',#518,#505,#275,.T.);
#642=EDGE_CURVE('',#513,#499,#276,.T.);
#643=EDGE_CURVE('',#498,#514,#277,.T.);
#644=EDGE_CURVE('',#497,#519,#278,.T.);
#645=EDGE_CURVE('',#520,#519,#279,.T.);
#646=EDGE_CURVE('',#521,#520,#280,.T.);
#647=EDGE_CURVE('',#522,#521,#281,.T.);
#648=EDGE_CURVE('',#515,#522,#282,.T.);
#649=EDGE_CURVE('',#522,#523,#283,.T.);
#650=EDGE_CURVE('',#523,#516,#284,.T.);
#651=EDGE_CURVE('',#518,#524,#285,.T.);
#652=EDGE_CURVE('',#524,#506,#286,.T.);
#653=EDGE_CURVE('',#517,#525,#287,.T.);
#654=EDGE_CURVE('',#525,#524,#436,.T.);
#655=EDGE_CURVE('',#523,#525,#288,.T.);
#656=EDGE_CURVE('',#519,#509,#437,.T.);
#657=EDGE_CURVE('',#526,#520,#289,.T.);
#658=EDGE_CURVE('',#526,#527,#290,.T.);
#659=EDGE_CURVE('',#521,#527,#291,.T.);
#660=EDGE_CURVE('',#500,#512,#292,.T.);
#661=EDGE_CURVE('',#502,#510,#293,.T.);
#662=EDGE_CURVE('',#527,#528,#294,.T.);
#663=EDGE_CURVE('',#528,#529,#438,.T.);
#664=EDGE_CURVE('',#529,#507,#295,.T.);
#665=EDGE_CURVE('',#530,#531,#439,.T.);
#666=EDGE_CURVE('',#530,#529,#296,.T.);
#667=EDGE_CURVE('',#531,#528,#297,.T.);
#668=EDGE_CURVE('',#531,#526,#298,.T.);
#669=EDGE_CURVE('',#508,#530,#299,.T.);
#670=EDGE_CURVE('',#501,#511,#300,.T.);
#671=ORIENTED_EDGE('',*,*,#532,.T.);
#672=ORIENTED_EDGE('',*,*,#533,.T.);
#673=ORIENTED_EDGE('',*,*,#534,.T.);
#674=ORIENTED_EDGE('',*,*,#535,.T.);
#675=ORIENTED_EDGE('',*,*,#532,.F.);
#676=ORIENTED_EDGE('',*,*,#536,.T.);
#677=ORIENTED_EDGE('',*,*,#537,.T.);
#678=ORIENTED_EDGE('',*,*,#538,.T.);
#679=ORIENTED_EDGE('',*,*,#539,.T.);
#680=ORIENTED_EDGE('',*,*,#535,.F.);
#681=ORIENTED_EDGE('',*,*,#540,.F.);
#682=ORIENTED_EDGE('',*,*,#541,.T.);
#683=ORIENTED_EDGE('',*,*,#536,.F.);
#684=ORIENTED_EDGE('',*,*,#542,.F.);
#685=ORIENTED_EDGE('',*,*,#543,.T.);
#686=ORIENTED_EDGE('',*,*,#544,.F.);
#687=ORIENTED_EDGE('',*,*,#545,.T.);
#688=ORIENTED_EDGE('',*,*,#542,.T.);
#689=ORIENTED_EDGE('',*,*,#546,.T.);
#690=ORIENTED_EDGE('',*,*,#547,.T.);
#691=ORIENTED_EDGE('',*,*,#548,.T.);
#692=ORIENTED_EDGE('',*,*,#544,.T.);
#693=ORIENTED_EDGE('',*,*,#549,.T.);
#694=ORIENTED_EDGE('',*,*,#550,.T.);
#695=ORIENTED_EDGE('',*,*,#551,.T.);
#696=ORIENTED_EDGE('',*,*,#546,.F.);
#697=ORIENTED_EDGE('',*,*,#545,.F.);
#698=ORIENTED_EDGE('',*,*,#551,.F.);
#699=ORIENTED_EDGE('',*,*,#552,.F.);
#700=ORIENTED_EDGE('',*,*,#548,.F.);
#701=ORIENTED_EDGE('',*,*,#553,.F.);
#702=ORIENTED_EDGE('',*,*,#549,.F.);
#703=ORIENTED_EDGE('',*,*,#543,.F.);
#704=ORIENTED_EDGE('',*,*,#554,.F.);
#705=ORIENTED_EDGE('',*,*,#555,.T.);
#706=ORIENTED_EDGE('',*,*,#556,.T.);
#707=ORIENTED_EDGE('',*,*,#555,.F.);
#708=ORIENTED_EDGE('',*,*,#556,.F.);
#709=ORIENTED_EDGE('',*,*,#557,.F.);
#710=ORIENTED_EDGE('',*,*,#558,.F.);
#711=ORIENTED_EDGE('',*,*,#559,.T.);
#712=ORIENTED_EDGE('',*,*,#538,.F.);
#713=ORIENTED_EDGE('',*,*,#560,.F.);
#714=ORIENTED_EDGE('',*,*,#561,.F.);
#715=ORIENTED_EDGE('',*,*,#560,.T.);
#716=ORIENTED_EDGE('',*,*,#537,.F.);
#717=ORIENTED_EDGE('',*,*,#541,.F.);
#718=ORIENTED_EDGE('',*,*,#533,.F.);
#719=ORIENTED_EDGE('',*,*,#539,.F.);
#720=ORIENTED_EDGE('',*,*,#559,.F.);
#721=ORIENTED_EDGE('',*,*,#562,.F.);
#722=ORIENTED_EDGE('',*,*,#563,.F.);
#723=ORIENTED_EDGE('',*,*,#564,.T.);
#724=ORIENTED_EDGE('',*,*,#565,.F.);
#725=ORIENTED_EDGE('',*,*,#566,.F.);
#726=ORIENTED_EDGE('',*,*,#567,.F.);
#727=ORIENTED_EDGE('',*,*,#566,.T.);
#728=ORIENTED_EDGE('',*,*,#568,.F.);
#729=ORIENTED_EDGE('',*,*,#569,.F.);
#730=ORIENTED_EDGE('',*,*,#570,.F.);
#731=ORIENTED_EDGE('',*,*,#569,.T.);
#732=ORIENTED_EDGE('',*,*,#571,.F.);
#733=ORIENTED_EDGE('',*,*,#564,.F.);
#734=ORIENTED_EDGE('',*,*,#572,.T.);
#735=ORIENTED_EDGE('',*,*,#573,.T.);
#736=ORIENTED_EDGE('',*,*,#574,.T.);
#737=ORIENTED_EDGE('',*,*,#571,.T.);
#738=ORIENTED_EDGE('',*,*,#568,.T.);
#739=ORIENTED_EDGE('',*,*,#565,.T.);
#740=ORIENTED_EDGE('',*,*,#575,.F.);
#741=ORIENTED_EDGE('',*,*,#576,.T.);
#742=ORIENTED_EDGE('',*,*,#557,.T.);
#743=ORIENTED_EDGE('',*,*,#576,.F.);
#744=ORIENTED_EDGE('',*,*,#577,.F.);
#745=ORIENTED_EDGE('',*,*,#578,.T.);
#746=ORIENTED_EDGE('',*,*,#574,.F.);
#747=ORIENTED_EDGE('',*,*,#579,.F.);
#748=ORIENTED_EDGE('',*,*,#580,.T.);
#749=ORIENTED_EDGE('',*,*,#579,.T.);
#750=ORIENTED_EDGE('',*,*,#573,.F.);
#751=ORIENTED_EDGE('',*,*,#581,.F.);
#752=ORIENTED_EDGE('',*,*,#582,.T.);
#753=ORIENTED_EDGE('',*,*,#581,.T.);
#754=ORIENTED_EDGE('',*,*,#572,.F.);
#755=ORIENTED_EDGE('',*,*,#578,.F.);
#756=ORIENTED_EDGE('',*,*,#563,.T.);
#757=ORIENTED_EDGE('',*,*,#567,.T.);
#758=ORIENTED_EDGE('',*,*,#570,.T.);
#759=ORIENTED_EDGE('',*,*,#552,.T.);
#760=ORIENTED_EDGE('',*,*,#550,.F.);
#761=ORIENTED_EDGE('',*,*,#553,.T.);
#762=ORIENTED_EDGE('',*,*,#547,.F.);
#763=ORIENTED_EDGE('',*,*,#554,.T.);
#764=ORIENTED_EDGE('',*,*,#558,.T.);
#765=ORIENTED_EDGE('',*,*,#561,.T.);
#766=ORIENTED_EDGE('',*,*,#540,.T.);
#767=ORIENTED_EDGE('',*,*,#534,.F.);
#768=ORIENTED_EDGE('',*,*,#562,.T.);
#769=ORIENTED_EDGE('',*,*,#582,.F.);
#770=ORIENTED_EDGE('',*,*,#577,.T.);
#771=ORIENTED_EDGE('',*,*,#580,.F.);
#772=ORIENTED_EDGE('',*,*,#575,.T.);
#773=ORIENTED_EDGE('',*,*,#583,.F.);
#774=ORIENTED_EDGE('',*,*,#584,.T.);
#775=ORIENTED_EDGE('',*,*,#585,.F.);
#776=ORIENTED_EDGE('',*,*,#586,.F.);
#777=ORIENTED_EDGE('',*,*,#587,.F.);
#778=ORIENTED_EDGE('',*,*,#586,.T.);
#779=ORIENTED_EDGE('',*,*,#588,.F.);
#780=ORIENTED_EDGE('',*,*,#589,.F.);
#781=ORIENTED_EDGE('',*,*,#590,.F.);
#782=ORIENTED_EDGE('',*,*,#589,.T.);
#783=ORIENTED_EDGE('',*,*,#591,.F.);
#784=ORIENTED_EDGE('',*,*,#592,.F.);
#785=ORIENTED_EDGE('',*,*,#593,.F.);
#786=ORIENTED_EDGE('',*,*,#592,.T.);
#787=ORIENTED_EDGE('',*,*,#594,.F.);
#788=ORIENTED_EDGE('',*,*,#584,.F.);
#789=ORIENTED_EDGE('',*,*,#594,.T.);
#790=ORIENTED_EDGE('',*,*,#591,.T.);
#791=ORIENTED_EDGE('',*,*,#588,.T.);
#792=ORIENTED_EDGE('',*,*,#585,.T.);
#793=ORIENTED_EDGE('',*,*,#593,.T.);
#794=ORIENTED_EDGE('',*,*,#583,.T.);
#795=ORIENTED_EDGE('',*,*,#587,.T.);
#796=ORIENTED_EDGE('',*,*,#590,.T.);
#797=ORIENTED_EDGE('',*,*,#595,.F.);
#798=ORIENTED_EDGE('',*,*,#596,.T.);
#799=ORIENTED_EDGE('',*,*,#597,.T.);
#800=ORIENTED_EDGE('',*,*,#596,.F.);
#801=ORIENTED_EDGE('',*,*,#597,.F.);
#802=ORIENTED_EDGE('',*,*,#598,.F.);
#803=ORIENTED_EDGE('',*,*,#599,.T.);
#804=ORIENTED_EDGE('',*,*,#600,.T.);
#805=ORIENTED_EDGE('',*,*,#599,.F.);
#806=ORIENTED_EDGE('',*,*,#600,.F.);
#807=ORIENTED_EDGE('',*,*,#601,.F.);
#808=ORIENTED_EDGE('',*,*,#602,.T.);
#809=ORIENTED_EDGE('',*,*,#603,.T.);
#810=ORIENTED_EDGE('',*,*,#602,.F.);
#811=ORIENTED_EDGE('',*,*,#601,.T.);
#812=ORIENTED_EDGE('',*,*,#598,.T.);
#813=ORIENTED_EDGE('',*,*,#603,.F.);
#814=ORIENTED_EDGE('',*,*,#595,.T.);
#815=ORIENTED_EDGE('',*,*,#604,.T.);
#816=ORIENTED_EDGE('',*,*,#605,.T.);
#817=ORIENTED_EDGE('',*,*,#606,.T.);
#818=ORIENTED_EDGE('',*,*,#605,.F.);
#819=ORIENTED_EDGE('',*,*,#606,.F.);
#820=ORIENTED_EDGE('',*,*,#607,.T.);
#821=ORIENTED_EDGE('',*,*,#608,.F.);
#822=ORIENTED_EDGE('',*,*,#607,.F.);
#823=ORIENTED_EDGE('',*,*,#604,.F.);
#824=ORIENTED_EDGE('',*,*,#609,.T.);
#825=ORIENTED_EDGE('',*,*,#610,.T.);
#826=ORIENTED_EDGE('',*,*,#611,.T.);
#827=ORIENTED_EDGE('',*,*,#612,.T.);
#828=ORIENTED_EDGE('',*,*,#611,.F.);
#829=ORIENTED_EDGE('',*,*,#613,.F.);
#830=ORIENTED_EDGE('',*,*,#614,.T.);
#831=ORIENTED_EDGE('',*,*,#615,.T.);
#832=ORIENTED_EDGE('',*,*,#616,.T.);
#833=ORIENTED_EDGE('',*,*,#617,.F.);
#834=ORIENTED_EDGE('',*,*,#618,.F.);
#835=ORIENTED_EDGE('',*,*,#619,.T.);
#836=ORIENTED_EDGE('',*,*,#620,.F.);
#837=ORIENTED_EDGE('',*,*,#621,.F.);
#838=ORIENTED_EDGE('',*,*,#610,.F.);
#839=ORIENTED_EDGE('',*,*,#612,.F.);
#840=ORIENTED_EDGE('',*,*,#622,.T.);
#841=ORIENTED_EDGE('',*,*,#609,.F.);
#842=ORIENTED_EDGE('',*,*,#622,.F.);
#843=ORIENTED_EDGE('',*,*,#613,.T.);
#844=ORIENTED_EDGE('',*,*,#623,.T.);
#845=ORIENTED_EDGE('',*,*,#624,.T.);
#846=ORIENTED_EDGE('',*,*,#625,.T.);
#847=ORIENTED_EDGE('',*,*,#625,.F.);
#848=ORIENTED_EDGE('',*,*,#626,.F.);
#849=ORIENTED_EDGE('',*,*,#627,.F.);
#850=ORIENTED_EDGE('',*,*,#628,.F.);
#851=ORIENTED_EDGE('',*,*,#629,.F.);
#852=ORIENTED_EDGE('',*,*,#630,.F.);
#853=ORIENTED_EDGE('',*,*,#631,.F.);
#854=ORIENTED_EDGE('',*,*,#614,.F.);
#855=ORIENTED_EDGE('',*,*,#624,.F.);
#856=ORIENTED_EDGE('',*,*,#632,.T.);
#857=ORIENTED_EDGE('',*,*,#633,.T.);
#858=ORIENTED_EDGE('',*,*,#634,.T.);
#859=ORIENTED_EDGE('',*,*,#635,.T.);
#860=ORIENTED_EDGE('',*,*,#636,.F.);
#861=ORIENTED_EDGE('',*,*,#637,.T.);
#862=ORIENTED_EDGE('',*,*,#638,.T.);
#863=ORIENTED_EDGE('',*,*,#639,.T.);
#864=ORIENTED_EDGE('',*,*,#640,.T.);
#865=ORIENTED_EDGE('',*,*,#641,.T.);
#866=ORIENTED_EDGE('',*,*,#626,.T.);
#867=ORIENTED_EDGE('',*,*,#636,.T.);
#868=ORIENTED_EDGE('',*,*,#642,.T.);
#869=ORIENTED_EDGE('',*,*,#617,.T.);
#870=ORIENTED_EDGE('',*,*,#643,.T.);
#871=ORIENTED_EDGE('',*,*,#643,.F.);
#872=ORIENTED_EDGE('',*,*,#616,.F.);
#873=ORIENTED_EDGE('',*,*,#644,.T.);
#874=ORIENTED_EDGE('',*,*,#645,.F.);
#875=ORIENTED_EDGE('',*,*,#646,.F.);
#876=ORIENTED_EDGE('',*,*,#647,.F.);
#877=ORIENTED_EDGE('',*,*,#648,.F.);
#878=ORIENTED_EDGE('',*,*,#637,.F.);
#879=ORIENTED_EDGE('',*,*,#638,.F.);
#880=ORIENTED_EDGE('',*,*,#648,.T.);
#881=ORIENTED_EDGE('',*,*,#649,.T.);
#882=ORIENTED_EDGE('',*,*,#650,.T.);
#883=ORIENTED_EDGE('',*,*,#627,.T.);
#884=ORIENTED_EDGE('',*,*,#641,.F.);
#885=ORIENTED_EDGE('',*,*,#651,.T.);
#886=ORIENTED_EDGE('',*,*,#652,.T.);
#887=ORIENTED_EDGE('',*,*,#653,.T.);
#888=ORIENTED_EDGE('',*,*,#654,.T.);
#889=ORIENTED_EDGE('',*,*,#651,.F.);
#890=ORIENTED_EDGE('',*,*,#640,.F.);
#891=ORIENTED_EDGE('',*,*,#655,.T.);
#892=ORIENTED_EDGE('',*,*,#653,.F.);
#893=ORIENTED_EDGE('',*,*,#639,.F.);
#894=ORIENTED_EDGE('',*,*,#650,.F.);
#895=ORIENTED_EDGE('',*,*,#656,.F.);
#896=ORIENTED_EDGE('',*,*,#644,.F.);
#897=ORIENTED_EDGE('',*,*,#615,.F.);
#898=ORIENTED_EDGE('',*,*,#631,.T.);
#899=ORIENTED_EDGE('',*,*,#646,.T.);
#900=ORIENTED_EDGE('',*,*,#657,.F.);
#901=ORIENTED_EDGE('',*,*,#658,.T.);
#902=ORIENTED_EDGE('',*,*,#659,.F.);
#903=ORIENTED_EDGE('',*,*,#642,.F.);
#904=ORIENTED_EDGE('',*,*,#635,.F.);
#905=ORIENTED_EDGE('',*,*,#660,.F.);
#906=ORIENTED_EDGE('',*,*,#618,.T.);
#907=ORIENTED_EDGE('',*,*,#623,.F.);
#908=ORIENTED_EDGE('',*,*,#621,.T.);
#909=ORIENTED_EDGE('',*,*,#661,.T.);
#910=ORIENTED_EDGE('',*,*,#632,.F.);
#911=ORIENTED_EDGE('',*,*,#649,.F.);
#912=ORIENTED_EDGE('',*,*,#647,.T.);
#913=ORIENTED_EDGE('',*,*,#659,.T.);
#914=ORIENTED_EDGE('',*,*,#662,.T.);
#915=ORIENTED_EDGE('',*,*,#663,.T.);
#916=ORIENTED_EDGE('',*,*,#664,.T.);
#917=ORIENTED_EDGE('',*,*,#628,.T.);
#918=ORIENTED_EDGE('',*,*,#652,.F.);
#919=ORIENTED_EDGE('',*,*,#654,.F.);
#920=ORIENTED_EDGE('',*,*,#655,.F.);
#921=ORIENTED_EDGE('',*,*,#665,.F.);
#922=ORIENTED_EDGE('',*,*,#666,.T.);
#923=ORIENTED_EDGE('',*,*,#663,.F.);
#924=ORIENTED_EDGE('',*,*,#667,.F.);
#925=ORIENTED_EDGE('',*,*,#668,.F.);
#926=ORIENTED_EDGE('',*,*,#667,.T.);
#927=ORIENTED_EDGE('',*,*,#662,.F.);
#928=ORIENTED_EDGE('',*,*,#658,.F.);
#929=ORIENTED_EDGE('',*,*,#629,.T.);
#930=ORIENTED_EDGE('',*,*,#664,.F.);
#931=ORIENTED_EDGE('',*,*,#666,.F.);
#932=ORIENTED_EDGE('',*,*,#669,.F.);
#933=ORIENTED_EDGE('',*,*,#619,.F.);
#934=ORIENTED_EDGE('',*,*,#660,.T.);
#935=ORIENTED_EDGE('',*,*,#634,.F.);
#936=ORIENTED_EDGE('',*,*,#670,.F.);
#937=ORIENTED_EDGE('',*,*,#620,.T.);
#938=ORIENTED_EDGE('',*,*,#670,.T.);
#939=ORIENTED_EDGE('',*,*,#633,.F.);
#940=ORIENTED_EDGE('',*,*,#661,.F.);
#941=ORIENTED_EDGE('',*,*,#630,.T.);
#942=ORIENTED_EDGE('',*,*,#669,.T.);
#943=ORIENTED_EDGE('',*,*,#665,.T.);
#944=ORIENTED_EDGE('',*,*,#668,.T.);
#945=ORIENTED_EDGE('',*,*,#657,.T.);
#946=ORIENTED_EDGE('',*,*,#645,.T.);
#947=ORIENTED_EDGE('',*,*,#656,.T.);
#948=ORIENTED_EDGE('',*,*,#608,.T.);
#949=CYLINDRICAL_SURFACE('',#1049,1.5);
#950=CYLINDRICAL_SURFACE('',#1061,1.);
#951=CYLINDRICAL_SURFACE('',#1063,1.);
#952=CYLINDRICAL_SURFACE('',#1065,13.1);
#953=CYLINDRICAL_SURFACE('',#1067,15.1);
#954=CYLINDRICAL_SURFACE('',#1069,6.15);
#955=CYLINDRICAL_SURFACE('',#1075,9.9);
#956=CYLINDRICAL_SURFACE('',#1077,11.9);
#957=CYLINDRICAL_SURFACE('',#1079,30.0000001411689);
#958=CYLINDRICAL_SURFACE('',#1086,4.);
#959=CYLINDRICAL_SURFACE('',#1089,32.0000001411689);
#960=CYLINDRICAL_SURFACE('',#1100,6.25);
#961=CYLINDRICAL_SURFACE('',#1104,6.25);
#962=CYLINDRICAL_SURFACE('',#1108,10.);
#963=CYLINDRICAL_SURFACE('',#1116,9.4);
#964=CYLINDRICAL_SURFACE('',#1128,6.15);
#965=CYLINDRICAL_SURFACE('',#1129,1.);
#966=CYLINDRICAL_SURFACE('',#1136,1.);
#967=CYLINDRICAL_SURFACE('',#1143,2.);
#968=CYLINDRICAL_SURFACE('',#1150,27.5000001411689);
#969=CYLINDRICAL_SURFACE('',#1155,32.0000001411689);
#970=ADVANCED_FACE('',(#73),#949,.T.);
#971=ADVANCED_FACE('',(#74),#35,.T.);
#972=ADVANCED_FACE('',(#75),#36,.T.);
#973=ADVANCED_FACE('',(#76),#37,.T.);
#974=ADVANCED_FACE('',(#77),#950,.T.);
#975=ADVANCED_FACE('',(#78),#951,.T.);
#976=ADVANCED_FACE('',(#79),#952,.F.);
#977=ADVANCED_FACE('',(#80),#953,.T.);
#978=ADVANCED_FACE('',(#81),#954,.F.);
#979=ADVANCED_FACE('',(#82,#24),#38,.T.);
#980=ADVANCED_FACE('',(#83),#39,.T.);
#981=ADVANCED_FACE('',(#84),#955,.F.);
#982=ADVANCED_FACE('',(#85),#956,.T.);
#983=ADVANCED_FACE('',(#86),#957,.F.);
#984=ADVANCED_FACE('',(#87),#40,.T.);
#985=ADVANCED_FACE('',(#88),#41,.T.);
#986=ADVANCED_FACE('',(#89,#25),#42,.T.);
#987=ADVANCED_FACE('',(#90),#958,.F.);
#988=ADVANCED_FACE('',(#91),#43,.T.);
#989=ADVANCED_FACE('',(#92),#959,.T.);
#990=ADVANCED_FACE('',(#93),#44,.T.);
#991=ADVANCED_FACE('',(#94,#26,#27,#28),#45,.T.);
#992=ADVANCED_FACE('',(#95,#29),#46,.F.);
#993=ADVANCED_FACE('',(#96),#47,.T.);
#994=ADVANCED_FACE('',(#97),#48,.T.);
#995=ADVANCED_FACE('',(#98),#49,.T.);
#996=ADVANCED_FACE('',(#99),#50,.T.);
#997=ADVANCED_FACE('',(#100),#51,.T.);
#998=ADVANCED_FACE('',(#101),#52,.F.);
#999=ADVANCED_FACE('',(#102),#960,.F.);
#1000=ADVANCED_FACE('',(#103),#53,.F.);
#1001=ADVANCED_FACE('',(#104),#961,.F.);
#1002=ADVANCED_FACE('',(#105),#54,.T.);
#1003=ADVANCED_FACE('',(#106),#962,.T.);
#1004=ADVANCED_FACE('',(#107,#30),#55,.T.);
#1005=ADVANCED_FACE('',(#108,#31),#56,.F.);
#1006=ADVANCED_FACE('',(#109),#13,.T.);
#1007=ADVANCED_FACE('',(#110),#963,.T.);
#1008=ADVANCED_FACE('',(#111,#32),#57,.T.);
#1009=ADVANCED_FACE('',(#112),#14,.F.);
#1010=ADVANCED_FACE('',(#113,#33),#58,.F.);
#1011=ADVANCED_FACE('',(#114),#964,.F.);
#1012=ADVANCED_FACE('',(#115),#965,.T.);
#1013=ADVANCED_FACE('',(#116),#59,.F.);
#1014=ADVANCED_FACE('',(#117),#60,.T.);
#1015=ADVANCED_FACE('',(#118),#966,.T.);
#1016=ADVANCED_FACE('',(#119),#61,.F.);
#1017=ADVANCED_FACE('',(#120),#62,.T.);
#1018=ADVANCED_FACE('',(#121),#63,.T.);
#1019=ADVANCED_FACE('',(#122),#15,.T.);
#1020=ADVANCED_FACE('',(#123),#64,.T.);
#1021=ADVANCED_FACE('',(#124),#967,.F.);
#1022=ADVANCED_FACE('',(#125),#65,.T.);
#1023=ADVANCED_FACE('',(#126),#66,.T.);
#1024=ADVANCED_FACE('',(#127),#67,.T.);
#1025=ADVANCED_FACE('',(#128),#68,.T.);
#1026=ADVANCED_FACE('',(#129),#968,.F.);
#1027=ADVANCED_FACE('',(#130),#69,.T.);
#1028=ADVANCED_FACE('',(#131),#70,.T.);
#1029=ADVANCED_FACE('',(#132),#71,.T.);
#1030=ADVANCED_FACE('',(#133),#969,.T.);
#1031=ADVANCED_FACE('',(#134,#34),#72,.T.);
#1032=CLOSED_SHELL('',(#970,#971,#972,#973,#974,#975,#976,#977,#978,#979,
#980,#981,#982,#983,#984,#985,#986,#987,#988,#989,#990,#991,#992));
#1033=CLOSED_SHELL('',(#993,#994,#995,#996,#997,#998));
#1034=CLOSED_SHELL('',(#999,#1000,#1001,#1002,#1003,#1004,#1005));
#1035=CLOSED_SHELL('',(#1006,#1007,#1008,#1009,#1010,#1011,#1012,#1013,
#1014,#1015,#1016,#1017,#1018,#1019,#1020,#1021,#1022,#1023,#1024,#1025,
#1026,#1027,#1028,#1029,#1030,#1031));
#1036=DERIVED_UNIT_ELEMENT(#1038,1.);
#1037=DERIVED_UNIT_ELEMENT(#1767,-3.);
#1038=(
MASS_UNIT()
NAMED_UNIT(*)
SI_UNIT(.KILO.,.GRAM.)
);
#1039=DERIVED_UNIT((#1036,#1037));
#1040=MEASURE_REPRESENTATION_ITEM('density measure',
POSITIVE_RATIO_MEASURE(7850.),#1039);
#1041=PROPERTY_DEFINITION_REPRESENTATION(#1046,#1043);
#1042=PROPERTY_DEFINITION_REPRESENTATION(#1047,#1044);
#1043=REPRESENTATION('material name',(#1045),#1764);
#1044=REPRESENTATION('density',(#1040),#1764);
#1045=DESCRIPTIVE_REPRESENTATION_ITEM('Steel','Steel');
#1046=PROPERTY_DEFINITION('material property','material name',#1774);
#1047=PROPERTY_DEFINITION('material property','density of part',#1774);
#1048=AXIS2_PLACEMENT_3D('',#1468,#1157,#1158);
#1049=AXIS2_PLACEMENT_3D('',#1469,#1159,#1160);
#1050=AXIS2_PLACEMENT_3D('',#1472,#1161,#1162);
#1051=AXIS2_PLACEMENT_3D('',#1476,#1164,#1165);
#1052=AXIS2_PLACEMENT_3D('',#1478,#1167,#1168);
#1053=AXIS2_PLACEMENT_3D('',#1482,#1170,#1171);
#1054=AXIS2_PLACEMENT_3D('',#1485,#1173,#1174);
#1055=AXIS2_PLACEMENT_3D('',#1486,#1175,#1176);
#1056=AXIS2_PLACEMENT_3D('',#1490,#1179,#1180);
#1057=AXIS2_PLACEMENT_3D('',#1493,#1181,#1182);
#1058=AXIS2_PLACEMENT_3D('',#1495,#1183,#1184);
#1059=AXIS2_PLACEMENT_3D('',#1497,#1185,#1186);
#1060=AXIS2_PLACEMENT_3D('',#1498,#1187,#1188);
#1061=AXIS2_PLACEMENT_3D('',#1499,#1189,#1190);
#1062=AXIS2_PLACEMENT_3D('',#1503,#1192,#1193);
#1063=AXIS2_PLACEMENT_3D('',#1505,#1195,#1196);
#1064=AXIS2_PLACEMENT_3D('',#1509,#1198,#1199);
#1065=AXIS2_PLACEMENT_3D('',#1511,#1201,#1202);
#1066=AXIS2_PLACEMENT_3D('',#1512,#1203,#1204);
#1067=AXIS2_PLACEMENT_3D('',#1513,#1205,#1206);
#1068=AXIS2_PLACEMENT_3D('',#1514,#1207,#1208);
#1069=AXIS2_PLACEMENT_3D('',#1515,#1209,#1210);
#1070=AXIS2_PLACEMENT_3D('',#1517,#1211,#1212);
#1071=AXIS2_PLACEMENT_3D('',#1520,#1214,#1215);
#1072=AXIS2_PLACEMENT_3D('',#1521,#1216,#1217);
#1073=AXIS2_PLACEMENT_3D('',#1523,#1218,#1219);
#1074=AXIS2_PLACEMENT_3D('',#1524,#1220,#1221);
#1075=AXIS2_PLACEMENT_3D('',#1530,#1225,#1226);
#1076=AXIS2_PLACEMENT_3D('',#1531,#1227,#1228);
#1077=AXIS2_PLACEMENT_3D('',#1532,#1229,#1230);
#1078=AXIS2_PLACEMENT_3D('',#1533,#1231,#1232);
#1079=AXIS2_PLACEMENT_3D('',#1534,#1233,#1234);
#1080=AXIS2_PLACEMENT_3D('',#1537,#1235,#1236);
#1081=AXIS2_PLACEMENT_3D('',#1541,#1238,#1239);
#1082=AXIS2_PLACEMENT_3D('',#1543,#1241,#1242);
#1083=AXIS2_PLACEMENT_3D('',#1549,#1246,#1247);
#1084=AXIS2_PLACEMENT_3D('',#1552,#1250,#1251);
#1085=AXIS2_PLACEMENT_3D('',#1557,#1253,#1254);
#1086=AXIS2_PLACEMENT_3D('',#1559,#1256,#1257);
#1087=AXIS2_PLACEMENT_3D('',#1561,#1258,#1259);
#1088=AXIS2_PLACEMENT_3D('',#1563,#1261,#1262);
#1089=AXIS2_PLACEMENT_3D('',#1569,#1266,#1267);
#1090=AXIS2_PLACEMENT_3D('',#1571,#1268,#1269);
#1091=AXIS2_PLACEMENT_3D('',#1573,#1271,#1272);
#1092=AXIS2_PLACEMENT_3D('',#1575,#1274,#1275);
#1093=AXIS2_PLACEMENT_3D('',#1576,#1276,#1277);
#1094=AXIS2_PLACEMENT_3D('',#1577,#1278,#1279);
#1095=AXIS2_PLACEMENT_3D('',#1586,#1284,#1285);
#1096=AXIS2_PLACEMENT_3D('',#1592,#1289,#1290);
#1097=AXIS2_PLACEMENT_3D('',#1598,#1294,#1295);
#1098=AXIS2_PLACEMENT_3D('',#1601,#1298,#1299);
#1099=AXIS2_PLACEMENT_3D('',#1602,#1300,#1301);
#1100=AXIS2_PLACEMENT_3D('',#1603,#1302,#1303);
#1101=AXIS2_PLACEMENT_3D('',#1605,#1304,#1305);
#1102=AXIS2_PLACEMENT_3D('',#1608,#1307,#1308);
#1103=AXIS2_PLACEMENT_3D('',#1609,#1309,#1310);
#1104=AXIS2_PLACEMENT_3D('',#1610,#1311,#1312);
#1105=AXIS2_PLACEMENT_3D('',#1612,#1313,#1314);
#1106=AXIS2_PLACEMENT_3D('',#1615,#1316,#1317);
#1107=AXIS2_PLACEMENT_3D('',#1616,#1318,#1319);
#1108=AXIS2_PLACEMENT_3D('',#1617,#1320,#1321);
#1109=AXIS2_PLACEMENT_3D('',#1619,#1322,#1323);
#1110=AXIS2_PLACEMENT_3D('',#1622,#1325,#1326);
#1111=AXIS2_PLACEMENT_3D('',#1623,#1327,#1328);
#1112=AXIS2_PLACEMENT_3D('',#1624,#1329,#1330);
#1113=AXIS2_PLACEMENT_3D('',#1625,#1331,#1332);
#1114=AXIS2_PLACEMENT_3D('',#1627,#1333,#1334);
#1115=AXIS2_PLACEMENT_3D('',#1630,#1336,#1337);
#1116=AXIS2_PLACEMENT_3D('',#1631,#1338,#1339);
#1117=AXIS2_PLACEMENT_3D('',#1634,#1341,#1342);
#1118=AXIS2_PLACEMENT_3D('',#1635,#1343,#1344);
#1119=AXIS2_PLACEMENT_3D('',#1637,#1345,#1346);
#1120=AXIS2_PLACEMENT_3D('',#1638,#1347,#1348);
#1121=AXIS2_PLACEMENT_3D('',#1640,#1349,#1350);
#1122=AXIS2_PLACEMENT_3D('',#1643,#1352,#1353);
#1123=AXIS2_PLACEMENT_3D('',#1644,#1354,#1355);
#1124=AXIS2_PLACEMENT_3D('',#1647,#1356,#1357);
#1125=AXIS2_PLACEMENT_3D('',#1651,#1359,#1360);
#1126=AXIS2_PLACEMENT_3D('',#1655,#1362,#1363);
#1127=AXIS2_PLACEMENT_3D('',#1661,#1366,#1367);
#1128=AXIS2_PLACEMENT_3D('',#1663,#1369,#1370);
#1129=AXIS2_PLACEMENT_3D('',#1665,#1372,#1373);
#1130=AXIS2_PLACEMENT_3D('',#1669,#1375,#1376);
#1131=AXIS2_PLACEMENT_3D('',#1671,#1378,#1379);
#1132=AXIS2_PLACEMENT_3D('',#1683,#1386,#1387);
#1133=AXIS2_PLACEMENT_3D('',#1687,#1389,#1390);
#1134=AXIS2_PLACEMENT_3D('',#1693,#1393,#1394);
#1135=AXIS2_PLACEMENT_3D('',#1701,#1398,#1399);
#1136=AXIS2_PLACEMENT_3D('',#1703,#1401,#1402);
#1137=AXIS2_PLACEMENT_3D('',#1706,#1405,#1406);
#1138=AXIS2_PLACEMENT_3D('',#1716,#1412,#1413);
#1139=AXIS2_PLACEMENT_3D('',#1720,#1416,#1417);
#1140=AXIS2_PLACEMENT_3D('',#1724,#1420,#1421);
#1141=AXIS2_PLACEMENT_3D('',#1727,#1423,#1424);
#1142=AXIS2_PLACEMENT_3D('',#1728,#1425,#1426);
#1143=AXIS2_PLACEMENT_3D('',#1730,#1428,#1429);
#1144=AXIS2_PLACEMENT_3D('',#1731,#1430,#1431);
#1145=AXIS2_PLACEMENT_3D('',#1732,#1432,#1433);
#1146=AXIS2_PLACEMENT_3D('',#1738,#1437,#1438);
#1147=AXIS2_PLACEMENT_3D('',#1740,#1440,#1441);
#1148=AXIS2_PLACEMENT_3D('',#1742,#1443,#1444);
#1149=AXIS2_PLACEMENT_3D('',#1746,#1446,#1447);
#1150=AXIS2_PLACEMENT_3D('',#1748,#1449,#1450);
#1151=AXIS2_PLACEMENT_3D('',#1751,#1451,#1452);
#1152=AXIS2_PLACEMENT_3D('',#1754,#1455,#1456);
#1153=AXIS2_PLACEMENT_3D('',#1756,#1458,#1459);
#1154=AXIS2_PLACEMENT_3D('',#1758,#1461,#1462);
#1155=AXIS2_PLACEMENT_3D('',#1760,#1464,#1465);
#1156=AXIS2_PLACEMENT_3D('',#1761,#1466,#1467);
#1157=DIRECTION('axis',(0.,0.,1.));
#1158=DIRECTION('refdir',(1.,0.,0.));
#1159=DIRECTION('center_axis',(0.,0.,1.));
#1160=DIRECTION('ref_axis',(0.60645565504698,-0.795117311131847,0.));
#1161=DIRECTION('center_axis',(0.,0.,-1.));
#1162=DIRECTION('ref_axis',(0.60645565504698,-0.795117311131847,0.));
#1163=DIRECTION('',(0.,0.,-1.));
#1164=DIRECTION('center_axis',(0.,0.,-1.));
#1165=DIRECTION('ref_axis',(0.60645565504698,-0.795117311131847,0.));
#1166=DIRECTION('',(0.,0.,1.));
#1167=DIRECTION('center_axis',(0.,0.,1.));
#1168=DIRECTION('ref_axis',(1.,0.,0.));
#1169=DIRECTION('',(0.,1.,0.));
#1170=DIRECTION('center_axis',(0.,0.,-1.));
#1171=DIRECTION('ref_axis',(1.,0.,0.));
#1172=DIRECTION('',(0.,-1.,0.));
#1173=DIRECTION('center_axis',(0.,0.,1.));
#1174=DIRECTION('ref_axis',(1.,0.,0.));
#1175=DIRECTION('center_axis',(1.,0.,0.));
#1176=DIRECTION('ref_axis',(0.,1.,0.));
#1177=DIRECTION('',(0.,-1.,0.));
#1178=DIRECTION('',(0.,0.,1.));
#1179=DIRECTION('center_axis',(0.,0.,1.));
#1180=DIRECTION('ref_axis',(1.,0.,0.));
#1181=DIRECTION('center_axis',(0.,0.,-1.));
#1182=DIRECTION('ref_axis',(0.731752002325789,-0.681570984631974,0.));
#1183=DIRECTION('center_axis',(0.,0.,1.));
#1184=DIRECTION('ref_axis',(1.,0.,0.));
#1185=DIRECTION('center_axis',(0.,0.,-1.));
#1186=DIRECTION('ref_axis',(0.761437610078825,0.648238201556686,0.));
#1187=DIRECTION('center_axis',(0.,0.,-1.));
#1188=DIRECTION('ref_axis',(1.,0.,0.));
#1189=DIRECTION('center_axis',(0.,0.,1.));
#1190=DIRECTION('ref_axis',(0.731752002325789,-0.681570984631974,0.));
#1191=DIRECTION('',(0.,0.,-1.));
#1192=DIRECTION('center_axis',(0.,0.,-1.));
#1193=DIRECTION('ref_axis',(-0.681570984631973,-0.73175200232579,0.));
#1194=DIRECTION('',(0.,0.,1.));
#1195=DIRECTION('center_axis',(0.,0.,1.));
#1196=DIRECTION('ref_axis',(0.761437610078825,0.648238201556686,0.));
#1197=DIRECTION('',(0.,0.,-1.));
#1198=DIRECTION('center_axis',(0.,0.,-1.));
#1199=DIRECTION('ref_axis',(0.648238201556686,-0.761437610078826,0.));
#1200=DIRECTION('',(0.,0.,1.));
#1201=DIRECTION('center_axis',(0.,0.,1.));
#1202=DIRECTION('ref_axis',(-0.674848333279202,0.737956453369902,0.));
#1203=DIRECTION('center_axis',(0.,0.,1.));
#1204=DIRECTION('ref_axis',(1.,0.,0.));
#1205=DIRECTION('center_axis',(0.,0.,1.));
#1206=DIRECTION('ref_axis',(-0.674848333279202,0.737956453369901,0.));
#1207=DIRECTION('center_axis',(0.,0.,-1.));
#1208=DIRECTION('ref_axis',(1.,0.,0.));
#1209=DIRECTION('center_axis',(0.,0.,-1.));
#1210=DIRECTION('ref_axis',(1.,0.,0.));
#1211=DIRECTION('center_axis',(0.,0.,-1.));
#1212=DIRECTION('ref_axis',(1.,0.,0.));
#1213=DIRECTION('',(0.,0.,-1.));
#1214=DIRECTION('center_axis',(0.,0.,-1.));
#1215=DIRECTION('ref_axis',(1.,0.,0.));
#1216=DIRECTION('center_axis',(0.,0.,1.));
#1217=DIRECTION('ref_axis',(1.,0.,0.));
#1218=DIRECTION('center_axis',(0.,0.,1.));
#1219=DIRECTION('ref_axis',(1.,0.,0.));
#1220=DIRECTION('center_axis',(-1.,0.,0.));
#1221=DIRECTION('ref_axis',(0.,-1.,0.));
#1222=DIRECTION('',(0.,1.,0.));
#1223=DIRECTION('',(0.,0.,1.));
#1224=DIRECTION('',(0.,0.,1.));
#1225=DIRECTION('center_axis',(0.,0.,1.));
#1226=DIRECTION('ref_axis',(6.12323399573677E-17,1.,0.));
#1227=DIRECTION('center_axis',(0.,0.,1.));
#1228=DIRECTION('ref_axis',(1.,0.,0.));
#1229=DIRECTION('center_axis',(0.,0.,1.));
#1230=DIRECTION('ref_axis',(0.0810956015345372,0.996706327566827,0.));
#1231=DIRECTION('center_axis',(0.,0.,-1.));
#1232=DIRECTION('ref_axis',(1.,0.,0.));
#1233=DIRECTION('center_axis',(0.,0.,1.));
#1234=DIRECTION('ref_axis',(2.96059471840228E-16,1.,0.));
#1235=DIRECTION('center_axis',(0.,0.,1.));
#1236=DIRECTION('ref_axis',(0.887120195415603,-0.461538469562162,0.));
#1237=DIRECTION('',(0.,0.,1.));
#1238=DIRECTION('center_axis',(0.,0.,-1.));
#1239=DIRECTION('ref_axis',(0.887120195415603,-0.461538469562162,0.));
#1240=DIRECTION('',(0.,0.,1.));
#1241=DIRECTION('center_axis',(0.887120199590061,0.461538461538462,0.));
#1242=DIRECTION('ref_axis',(-0.461538461538462,0.887120199590061,0.));
#1243=DIRECTION('',(0.461538461538462,-0.887120199590061,0.));
#1244=DIRECTION('',(-0.461538461538462,0.887120199590061,0.));
#1245=DIRECTION('',(0.,0.,1.));
#1246=DIRECTION('center_axis',(-0.887120199590061,0.461538461538463,0.));
#1247=DIRECTION('ref_axis',(-0.461538461538463,-0.887120199590061,0.));
#1248=DIRECTION('',(0.461538461538463,0.887120199590061,0.));
#1249=DIRECTION('',(-0.461538461538463,-0.887120199590061,0.));
#1250=DIRECTION('center_axis',(0.,0.,1.));
#1251=DIRECTION('ref_axis',(1.,0.,0.));
#1252=DIRECTION('',(0.461538461538463,0.887120199590061,0.));
#1253=DIRECTION('center_axis',(0.,0.,1.));
#1254=DIRECTION('ref_axis',(0.887120195415603,-0.461538469562162,0.));
#1255=DIRECTION('',(0.461538461538462,-0.887120199590061,0.));
#1256=DIRECTION('center_axis',(0.,0.,1.));
#1257=DIRECTION('ref_axis',(1.,0.,0.));
#1258=DIRECTION('center_axis',(0.,0.,1.));
#1259=DIRECTION('ref_axis',(1.,0.,0.));
#1260=DIRECTION('',(0.,0.,1.));
#1261=DIRECTION('center_axis',(-0.887120199590061,-0.461538461538462,0.));
#1262=DIRECTION('ref_axis',(0.461538461538462,-0.887120199590061,0.));
#1263=DIRECTION('',(-0.461538461538462,0.887120199590061,0.));
#1264=DIRECTION('',(0.,0.,1.));
#1265=DIRECTION('',(0.,0.,1.));
#1266=DIRECTION('center_axis',(0.,0.,1.));
#1267=DIRECTION('ref_axis',(2.82646127477294E-10,1.,0.));
#1268=DIRECTION('center_axis',(0.,0.,1.));
#1269=DIRECTION('ref_axis',(0.887120195415603,-0.461538469562162,0.));
#1270=DIRECTION('',(0.,0.,1.));
#1271=DIRECTION('center_axis',(0.887120199590061,-0.461538461538463,0.));
#1272=DIRECTION('ref_axis',(0.461538461538463,0.887120199590061,0.));
#1273=DIRECTION('',(0.461538461538463,0.887120199590061,0.));
#1274=DIRECTION('center_axis',(0.,0.,1.));
#1275=DIRECTION('ref_axis',(1.,0.,0.));
#1276=DIRECTION('center_axis',(0.,0.,1.));
#1277=DIRECTION('ref_axis',(1.,0.,0.));
#1278=DIRECTION('center_axis',(0.,-1.,0.));
#1279=DIRECTION('ref_axis',(1.,0.,0.));
#1280=DIRECTION('',(-1.,0.,0.));
#1281=DIRECTION('',(0.,0.,1.));
#1282=DIRECTION('',(1.,0.,0.));
#1283=DIRECTION('',(0.,0.,1.));
#1284=DIRECTION('center_axis',(-1.,-1.2133584968581E-16,0.));
#1285=DIRECTION('ref_axis',(1.2133584968581E-16,-1.,0.));
#1286=DIRECTION('',(-1.2133584968581E-16,1.,0.));
#1287=DIRECTION('',(1.2133584968581E-16,-1.,0.));
#1288=DIRECTION('',(0.,0.,1.));
#1289=DIRECTION('center_axis',(-1.52085345839064E-16,1.,0.));
#1290=DIRECTION('ref_axis',(-1.,-1.52085345839064E-16,0.));
#1291=DIRECTION('',(1.,1.52085345839064E-16,0.));
#1292=DIRECTION('',(-1.,-1.52085345839064E-16,0.));
#1293=DIRECTION('',(0.,0.,1.));
#1294=DIRECTION('center_axis',(1.,-1.2133584968581E-16,0.));
#1295=DIRECTION('ref_axis',(1.2133584968581E-16,1.,0.));
#1296=DIRECTION('',(-1.2133584968581E-16,-1.,0.));
#1297=DIRECTION('',(1.2133584968581E-16,1.,0.));
#1298=DIRECTION('center_axis',(0.,0.,1.));
#1299=DIRECTION('ref_axis',(1.,0.,0.));
#1300=DIRECTION('center_axis',(0.,0.,1.));
#1301=DIRECTION('ref_axis',(1.,0.,0.));
#1302=DIRECTION('center_axis',(0.,0.,1.));
#1303=DIRECTION('ref_axis',(-1.,0.,0.));
#1304=DIRECTION('center_axis',(0.,0.,1.));
#1305=DIRECTION('ref_axis',(-1.,0.,0.));
#1306=DIRECTION('',(0.,0.,1.));
#1307=DIRECTION('center_axis',(0.,0.,1.));
#1308=DIRECTION('ref_axis',(-1.,0.,0.));
#1309=DIRECTION('center_axis',(0.,0.,1.));
#1310=DIRECTION('ref_axis',(-1.,0.,0.));
#1311=DIRECTION('center_axis',(0.,0.,-1.));
#1312=DIRECTION('ref_axis',(-1.,0.,0.));
#1313=DIRECTION('center_axis',(0.,0.,-1.));
#1314=DIRECTION('ref_axis',(-1.,0.,0.));
#1315=DIRECTION('',(0.,0.,-1.));
#1316=DIRECTION('center_axis',(0.,0.,-1.));
#1317=DIRECTION('ref_axis',(-1.,0.,0.));
#1318=DIRECTION('center_axis',(0.,0.,1.));
#1319=DIRECTION('ref_axis',(-1.,0.,0.));
#1320=DIRECTION('center_axis',(0.,0.,1.));
#1321=DIRECTION('ref_axis',(1.,0.,0.));
#1322=DIRECTION('center_axis',(0.,0.,1.));
#1323=DIRECTION('ref_axis',(1.,0.,0.));
#1324=DIRECTION('',(0.,0.,-1.));
#1325=DIRECTION('center_axis',(0.,0.,1.));
#1326=DIRECTION('ref_axis',(1.,0.,0.));
#1327=DIRECTION('center_axis',(0.,0.,1.));
#1328=DIRECTION('ref_axis',(1.,0.,0.));
#1329=DIRECTION('center_axis',(0.,0.,1.));
#1330=DIRECTION('ref_axis',(1.,0.,0.));
#1331=DIRECTION('center_axis',(1.22464679914735E-16,0.,1.));
#1332=DIRECTION('ref_axis',(-1.,0.,1.22464679914735E-16));
#1333=DIRECTION('center_axis',(1.22464679914735E-16,0.,1.));
#1334=DIRECTION('ref_axis',(-1.,0.,1.22464679914735E-16));
#1335=DIRECTION('',(0.707106781186548,-8.65956056235493E-17,0.707106781186547));
#1336=DIRECTION('center_axis',(-1.22464679914735E-16,0.,-1.));
#1337=DIRECTION('ref_axis',(-1.,0.,1.22464679914735E-16));
#1338=DIRECTION('center_axis',(-1.22464679914735E-16,0.,-1.));
#1339=DIRECTION('ref_axis',(-1.,0.,1.22464679914735E-16));
#1340=DIRECTION('',(1.22464679914735E-16,0.,1.));
#1341=DIRECTION('center_axis',(1.22464679914735E-16,0.,1.));
#1342=DIRECTION('ref_axis',(-1.,0.,1.22464679914735E-16));
#1343=DIRECTION('center_axis',(-1.22464679914735E-16,0.,-1.));
#1344=DIRECTION('ref_axis',(-1.,0.,1.22464679914735E-16));
#1345=DIRECTION('center_axis',(1.22464679914735E-16,0.,1.));
#1346=DIRECTION('ref_axis',(-1.,0.,1.22464679914735E-16));
#1347=DIRECTION('center_axis',(1.22464679914735E-16,0.,1.));
#1348=DIRECTION('ref_axis',(-1.,0.,1.22464679914735E-16));
#1349=DIRECTION('center_axis',(1.22464679914735E-16,0.,1.));
#1350=DIRECTION('ref_axis',(-1.,0.,1.22464679914735E-16));
#1351=DIRECTION('',(-0.707106781186548,-8.65956056235493E-17,-0.707106781186547));
#1352=DIRECTION('center_axis',(-1.22464679914735E-16,0.,-1.));
#1353=DIRECTION('ref_axis',(-1.,0.,1.22464679914735E-16));
#1354=DIRECTION('center_axis',(-1.22464679914735E-16,0.,-1.));
#1355=DIRECTION('ref_axis',(-1.,0.,1.22464679914735E-16));
#1356=DIRECTION('center_axis',(-1.22464679914735E-16,0.,-1.));
#1357=DIRECTION('ref_axis',(-0.518874521662769,-0.854850414265111,6.35438022113425E-17));
#1358=DIRECTION('',(1.,0.,-1.22464679914735E-16));
#1359=DIRECTION('center_axis',(-1.22464679914735E-16,0.,-1.));
#1360=DIRECTION('ref_axis',(-1.,0.,1.22464679914735E-16));
#1361=DIRECTION('',(-1.,0.,1.22464679914735E-16));
#1362=DIRECTION('center_axis',(-1.22464679914735E-16,0.,-1.));
#1363=DIRECTION('ref_axis',(-0.854850414265112,0.518874521662768,1.04688982357956E-16));
#1364=DIRECTION('',(-0.461538461538463,0.887120199590061,5.65221599606472E-17));
#1365=DIRECTION('',(0.461538461538462,0.887120199590061,-5.65221599606472E-17));
#1366=DIRECTION('center_axis',(-1.22464679914735E-16,0.,-1.));
#1367=DIRECTION('ref_axis',(-0.887120195415603,-0.461538469562162,1.08640890777469E-16));
#1368=DIRECTION('',(-0.461538461538463,0.887120199590061,5.65221599606472E-17));
#1369=DIRECTION('center_axis',(-1.22464679914735E-16,0.,-1.));
#1370=DIRECTION('ref_axis',(-1.,0.,1.22464679914735E-16));
#1371=DIRECTION('',(-1.22464679914735E-16,0.,-1.));
#1372=DIRECTION('center_axis',(1.22464679914735E-16,0.,1.));
#1373=DIRECTION('ref_axis',(-0.518874521662769,-0.854850414265111,6.35438022113425E-17));
#1374=DIRECTION('',(-1.22464679914735E-16,0.,-1.));
#1375=DIRECTION('center_axis',(1.22464679914735E-16,0.,1.));
#1376=DIRECTION('ref_axis',(-0.518874521662769,-0.854850414265111,6.35438022113425E-17));
#1377=DIRECTION('',(1.22464679914735E-16,0.,1.));
#1378=DIRECTION('center_axis',(0.,1.,0.));
#1379=DIRECTION('ref_axis',(1.,0.,-1.22464679914735E-16));
#1380=DIRECTION('',(-1.,0.,1.22464679914735E-16));
#1381=DIRECTION('',(-0.184643444327669,0.,0.982805575109754));
#1382=DIRECTION('',(-1.,0.,1.22464679914735E-16));
#1383=DIRECTION('',(-1.22464679914735E-16,0.,-1.));
#1384=DIRECTION('',(-1.,0.,1.22464679914735E-16));
#1385=DIRECTION('',(-1.22464679914735E-16,0.,-1.));
#1386=DIRECTION('center_axis',(-1.22464679914735E-16,0.,-1.));
#1387=DIRECTION('ref_axis',(-1.,0.,1.22464679914735E-16));
#1388=DIRECTION('',(-0.461538461538463,0.887120199590061,5.65221599606472E-17));
#1389=DIRECTION('center_axis',(-1.22464679914735E-16,0.,-1.));
#1390=DIRECTION('ref_axis',(-0.887120195415603,-0.461538469562162,1.08640890777469E-16));
#1391=DIRECTION('',(-0.461538461538462,-0.887120199590061,5.65221599606472E-17));
#1392=DIRECTION('',(-0.461538461538463,0.887120199590061,5.65221599606472E-17));
#1393=DIRECTION('center_axis',(1.22464679914735E-16,0.,1.));
#1394=DIRECTION('ref_axis',(-0.854850414265112,0.518874521662768,1.04688982357956E-16));
#1395=DIRECTION('',(1.,0.,-1.22464679914735E-16));
#1396=DIRECTION('',(0.461538461538463,-0.887120199590061,-5.65221599606472E-17));
#1397=DIRECTION('',(0.461538461538462,0.887120199590061,-5.65221599606472E-17));
#1398=DIRECTION('center_axis',(1.22464679914735E-16,0.,1.));
#1399=DIRECTION('ref_axis',(-0.887120195344849,-0.461538469698157,1.08640890768804E-16));
#1400=DIRECTION('',(0.461538461538463,-0.887120199590061,-5.65221599606472E-17));
#1401=DIRECTION('center_axis',(-1.22464679914735E-16,0.,-1.));
#1402=DIRECTION('ref_axis',(-0.854850414265112,0.518874521662768,1.04688982357956E-16));
#1403=DIRECTION('',(1.22464679914735E-16,0.,1.));
#1404=DIRECTION('',(-1.22464679914735E-16,0.,-1.));
#1405=DIRECTION('center_axis',(0.,-1.,0.));
#1406=DIRECTION('ref_axis',(-1.,0.,1.22464679914735E-16));
#1407=DIRECTION('',(-1.22464679914735E-16,0.,-1.));
#1408=DIRECTION('',(1.,0.,-1.22464679914735E-16));
#1409=DIRECTION('',(1.22464679914735E-16,0.,1.));
#1410=DIRECTION('',(1.,0.,-1.22464679914735E-16));
#1411=DIRECTION('',(0.184643444327671,0.,-0.982805575109754));
#1412=DIRECTION('center_axis',(-0.875049974584394,-0.455258734076375,-0.164398987305358));
#1413=DIRECTION('ref_axis',(-0.184643444327671,0.,0.982805575109754));
#1414=DIRECTION('',(0.461538461538463,-0.887120199590061,-5.65221599606472E-17));
#1415=DIRECTION('',(-3.47433741420848E-15,-0.339644463777557,0.940553899691695));
#1416=DIRECTION('center_axis',(-0.875049974584395,-0.455258734076375,-0.164398987305356));
#1417=DIRECTION('ref_axis',(-0.184643444327669,0.,0.982805575109754));
#1418=DIRECTION('',(0.145841662430731,0.0758764556793983,-0.986393923832144));
#1419=DIRECTION('',(0.461538461538463,-0.887120199590061,-5.65221599606472E-17));
#1420=DIRECTION('center_axis',(1.22464679914735E-16,0.,1.));
#1421=DIRECTION('ref_axis',(-1.55942570544052E-10,1.,1.9097445911114E-26));
#1422=DIRECTION('',(-0.145841661744455,0.0758764569984846,-0.986393923832144));
#1423=DIRECTION('center_axis',(1.22464679914735E-16,0.,1.));
#1424=DIRECTION('ref_axis',(0.887120195344849,0.461538469698157,-1.08640890768804E-16));
#1425=DIRECTION('center_axis',(0.875049974584395,-0.455258734076375,-0.164398987305356));
#1426=DIRECTION('ref_axis',(-0.184643444327669,0.,-0.982805575109754));
#1427=DIRECTION('',(0.461538461538462,0.887120199590061,-5.65221599606472E-17));
#1428=DIRECTION('center_axis',(-1.22464679914735E-16,0.,-1.));
#1429=DIRECTION('ref_axis',(1.,1.22464679914735E-16,-1.22464679914735E-16));
#1430=DIRECTION('center_axis',(1.22464679914735E-16,0.,1.));
#1431=DIRECTION('ref_axis',(-1.,0.,1.22464679914735E-16));
#1432=DIRECTION('center_axis',(0.887120199590061,0.461538461538463,-1.08640891288693E-16));
#1433=DIRECTION('ref_axis',(0.461538461538463,-0.887120199590061,-5.65221599606472E-17));
#1434=DIRECTION('',(-0.461538461538463,0.887120199590061,5.65221599606472E-17));
#1435=DIRECTION('',(-1.22464679914735E-16,0.,-1.));
#1436=DIRECTION('',(0.461538461538463,-0.887120199590061,-5.65221599606472E-17));
#1437=DIRECTION('center_axis',(-0.887120199590061,-0.461538461538463,1.08640891288693E-16));
#1438=DIRECTION('ref_axis',(-0.461538461538463,0.887120199590061,5.65221599606472E-17));
#1439=DIRECTION('',(-1.22464679914735E-16,0.,-1.));
#1440=DIRECTION('center_axis',(-0.887120199590061,-0.461538461538463,1.08640891288693E-16));
#1441=DIRECTION('ref_axis',(-0.461538461538463,0.887120199590061,5.65221599606472E-17));
#1442=DIRECTION('',(-1.22464679914735E-16,0.,-1.));
#1443=DIRECTION('center_axis',(-1.22464679914735E-16,0.,-1.));
#1444=DIRECTION('ref_axis',(-1.,0.,1.22464679914735E-16));
#1445=DIRECTION('',(0.461538461538462,0.887120199590061,-5.65221599606472E-17));
#1446=DIRECTION('center_axis',(1.22464679914735E-16,0.,1.));
#1447=DIRECTION('ref_axis',(-0.887120195344849,-0.461538469698157,1.08640890768804E-16));
#1448=DIRECTION('',(0.461538461538463,-0.887120199590061,-5.65221599606472E-17));
#1449=DIRECTION('center_axis',(-1.22464679914735E-16,0.,-1.));
#1450=DIRECTION('ref_axis',(2.52246384100614E-10,1.,-3.08912729588259E-26));
#1451=DIRECTION('center_axis',(-1.22464679914735E-16,0.,-1.));
#1452=DIRECTION('ref_axis',(-0.887120195344849,-0.461538469698157,1.08640890768804E-16));
#1453=DIRECTION('',(-1.22464679914735E-16,0.,-1.));
#1454=DIRECTION('',(-1.22464679914735E-16,0.,-1.));
#1455=DIRECTION('center_axis',(-0.887120199590061,0.461538461538462,1.08640891288693E-16));
#1456=DIRECTION('ref_axis',(0.461538461538462,0.887120199590061,-5.65221599606472E-17));
#1457=DIRECTION('',(-0.461538461538462,-0.887120199590061,5.65221599606472E-17));
#1458=DIRECTION('center_axis',(0.887120199590061,0.461538461538463,-1.08640891288693E-16));
#1459=DIRECTION('ref_axis',(0.461538461538463,-0.887120199590061,-5.65221599606472E-17));
#1460=DIRECTION('',(-0.461538461538463,0.887120199590061,5.65221599606472E-17));
#1461=DIRECTION('center_axis',(0.887120199590061,-0.461538461538462,-1.08640891288693E-16));
#1462=DIRECTION('ref_axis',(-0.461538461538462,-0.887120199590061,5.65221599606472E-17));
#1463=DIRECTION('',(-1.22464679914735E-16,0.,-1.));
#1464=DIRECTION('center_axis',(-1.22464679914735E-16,0.,-1.));
#1465=DIRECTION('ref_axis',(-2.82646127477294E-10,1.,3.46141686625068E-26));
#1466=DIRECTION('center_axis',(-1.22464679914735E-16,0.,-1.));
#1467=DIRECTION('ref_axis',(-1.,0.,1.22464679914735E-16));
#1468=CARTESIAN_POINT('',(0.,0.,0.));
#1469=CARTESIAN_POINT('Origin',(-2.75,-10.0298305070425,2.));
#1470=CARTESIAN_POINT('',(-1.25,-10.0298305070425,5.));
#1471=CARTESIAN_POINT('',(-3.14663461538462,-11.4764406763275,5.));
#1472=CARTESIAN_POINT('Origin',(-2.75,-10.0298305070425,5.));
#1473=CARTESIAN_POINT('',(-3.14663461538462,-11.4764406763275,2.));
#1474=CARTESIAN_POINT('',(-3.14663461538462,-11.4764406763275,2.));
#1475=CARTESIAN_POINT('',(-1.25,-10.0298305070425,2.));
#1476=CARTESIAN_POINT('Origin',(-2.75,-10.0298305070425,2.));
#1477=CARTESIAN_POINT('',(-1.25,-10.0298305070425,2.));
#1478=CARTESIAN_POINT('Origin',(0.,0.0329166813369941,5.));
#1479=CARTESIAN_POINT('',(-1.25,-9.8207688090088,5.));
#1480=CARTESIAN_POINT('',(-1.25,-6.70741426535764,5.));
#1481=CARTESIAN_POINT('',(1.25,-9.8207688090088,5.));
#1482=CARTESIAN_POINT('Origin',(0.,0.,5.));
#1483=CARTESIAN_POINT('',(1.25,-11.834166637326,5.));
#1484=CARTESIAN_POINT('',(1.25,-15.2925860624679,5.));
#1485=CARTESIAN_POINT('Origin',(0.,0.,5.));
#1486=CARTESIAN_POINT('Origin',(-1.25,-11.834166637326,2.));
#1487=CARTESIAN_POINT('',(-1.25,-9.8207688090088,2.));
#1488=CARTESIAN_POINT('',(-1.25,-15.2504165402376,2.));
#1489=CARTESIAN_POINT('',(-1.25,-9.8207688090088,2.));
#1490=CARTESIAN_POINT('Origin',(0.,0.0259136767312418,4.));
#1491=CARTESIAN_POINT('',(15.0619761684945,1.0709219858156,4.));
#1492=CARTESIAN_POINT('',(13.0670124375681,0.929078014184397,4.));
#1493=CARTESIAN_POINT('Origin',(14.0644943030313,1.,4.));
#1494=CARTESIAN_POINT('',(-2.4095744680851,-14.9065069980446,4.));
#1495=CARTESIAN_POINT('Origin',(0.,0.,4.));
#1496=CARTESIAN_POINT('',(-2.09042553191489,-12.9321352102241,4.));
#1497=CARTESIAN_POINT('Origin',(-2.25,-13.9193211041344,4.));
#1498=CARTESIAN_POINT('Origin',(0.,0.,4.));
#1499=CARTESIAN_POINT('Origin',(14.0644943030313,1.,2.));
#1500=CARTESIAN_POINT('',(13.0670124375681,0.929078014184397,2.));
#1501=CARTESIAN_POINT('',(13.0670124375681,0.929078014184397,2.));
#1502=CARTESIAN_POINT('',(15.0619761684945,1.0709219858156,2.));
#1503=CARTESIAN_POINT('Origin',(14.0644943030313,1.,2.));
#1504=CARTESIAN_POINT('',(15.0619761684945,1.0709219858156,2.));
#1505=CARTESIAN_POINT('Origin',(-2.25,-13.9193211041344,2.));
#1506=CARTESIAN_POINT('',(-2.4095744680851,-14.9065069980446,2.));
#1507=CARTESIAN_POINT('',(-2.4095744680851,-14.9065069980446,2.));
#1508=CARTESIAN_POINT('',(-2.09042553191489,-12.9321352102241,2.));
#1509=CARTESIAN_POINT('Origin',(-2.25,-13.9193211041344,2.));
#1510=CARTESIAN_POINT('',(-2.09042553191489,-12.9321352102241,2.));
#1511=CARTESIAN_POINT('Origin',(0.,0.,2.));
#1512=CARTESIAN_POINT('Origin',(0.,0.,2.));
#1513=CARTESIAN_POINT('Origin',(0.,0.,2.));
#1514=CARTESIAN_POINT('Origin',(0.,0.,2.));
#1515=CARTESIAN_POINT('Origin',(0.,0.,2.));
#1516=CARTESIAN_POINT('',(-6.15,-7.53157781475622E-16,2.));
#1517=CARTESIAN_POINT('Origin',(0.,0.,2.));
#1518=CARTESIAN_POINT('',(-6.15,-7.53157781475622E-16,1.5));
#1519=CARTESIAN_POINT('',(-6.15,7.53157781475622E-16,2.));
#1520=CARTESIAN_POINT('Origin',(0.,0.,1.5));
#1521=CARTESIAN_POINT('Origin',(0.,0.,1.5));
#1522=CARTESIAN_POINT('',(-4.,-4.89858719658941E-16,1.5));
#1523=CARTESIAN_POINT('Origin',(0.,0.,1.5));
#1524=CARTESIAN_POINT('Origin',(1.25,-9.8207688090088,2.));
#1525=CARTESIAN_POINT('',(1.25,-11.834166637326,2.));
#1526=CARTESIAN_POINT('',(1.25,-9.8207688090088,2.));
#1527=CARTESIAN_POINT('',(1.25,-14.243717626079,2.));
#1528=CARTESIAN_POINT('',(1.25,-11.834166637326,2.));
#1529=CARTESIAN_POINT('',(1.25,-9.8207688090088,2.));
#1530=CARTESIAN_POINT('Origin',(0.,0.,2.));
#1531=CARTESIAN_POINT('Origin',(0.,0.,2.));
#1532=CARTESIAN_POINT('Origin',(0.,0.,2.));
#1533=CARTESIAN_POINT('Origin',(0.,0.,2.));
#1534=CARTESIAN_POINT('Origin',(0.,3.05865893723833E-7,2.));
#1535=CARTESIAN_POINT('',(26.6136059877019,-13.8461538461539,2.));
#1536=CARTESIAN_POINT('',(-26.6136059877019,-13.8461538461538,2.));
#1537=CARTESIAN_POINT('Origin',(0.,3.05865893723833E-7,2.));
#1538=CARTESIAN_POINT('',(26.6136059877019,-13.8461538461539,12.));
#1539=CARTESIAN_POINT('',(26.6136059877019,-13.8461538461539,2.));
#1540=CARTESIAN_POINT('',(-26.6136059877019,-13.8461538461538,12.));
#1541=CARTESIAN_POINT('Origin',(0.,3.05865893723833E-7,12.));
#1542=CARTESIAN_POINT('',(-26.6136059877019,-13.8461538461538,2.));
#1543=CARTESIAN_POINT('Origin',(0.,-65.,2.));
#1544=CARTESIAN_POINT('',(0.,-65.,2.));
#1545=CARTESIAN_POINT('',(-9.48536217983687,-46.7682444879848,2.));
#1546=CARTESIAN_POINT('',(0.,-65.,12.));
#1547=CARTESIAN_POINT('',(0.,-65.,12.));
#1548=CARTESIAN_POINT('',(0.,-65.,2.));
#1549=CARTESIAN_POINT('Origin',(26.6136059877019,-13.8461538461539,2.));
#1550=CARTESIAN_POINT('',(22.7921651736878,-21.1913214110617,2.));
#1551=CARTESIAN_POINT('',(0.,-65.,12.));
#1552=CARTESIAN_POINT('Origin',(0.,-18.6666664431492,12.));
#1553=CARTESIAN_POINT('',(0.,-69.3333333333333,12.));
#1554=CARTESIAN_POINT('',(28.3878463785331,-14.7692307852782,12.));
#1555=CARTESIAN_POINT('',(-1.77635683940025E-14,-69.3333333333333,12.));
#1556=CARTESIAN_POINT('',(-28.387846386882,-14.7692307692308,12.));
#1557=CARTESIAN_POINT('Origin',(0.,3.05865893723833E-7,12.));
#1558=CARTESIAN_POINT('',(-1.77635683940025E-14,-69.3333333333333,12.));
#1559=CARTESIAN_POINT('Origin',(0.,0.,0.));
#1560=CARTESIAN_POINT('',(-4.,-4.89858719658941E-16,0.));
#1561=CARTESIAN_POINT('Origin',(0.,0.,0.));
#1562=CARTESIAN_POINT('',(-4.,-4.89858719658941E-16,0.));
#1563=CARTESIAN_POINT('Origin',(-28.387846386882,-14.7692307692308,0.));
#1564=CARTESIAN_POINT('',(-1.77635683940025E-14,-69.3333333333333,0.));
#1565=CARTESIAN_POINT('',(-28.387846386882,-14.7692307692308,0.));
#1566=CARTESIAN_POINT('',(-1.77635683940025E-14,-69.3333333333333,0.));
#1567=CARTESIAN_POINT('',(-1.77635683940025E-14,-69.3333333333333,0.));
#1568=CARTESIAN_POINT('',(-28.387846386882,-14.7692307692308,0.));
#1569=CARTESIAN_POINT('Origin',(0.,3.05865893723833E-7,0.));
#1570=CARTESIAN_POINT('',(28.3878463785331,-14.7692307852782,0.));
#1571=CARTESIAN_POINT('Origin',(0.,3.05865893723833E-7,0.));
#1572=CARTESIAN_POINT('',(28.3878463785331,-14.7692307852782,0.));
#1573=CARTESIAN_POINT('Origin',(-1.77635683940025E-14,-69.3333333333333,
0.));
#1574=CARTESIAN_POINT('',(-1.77635683940025E-14,-69.3333333333333,0.));
#1575=CARTESIAN_POINT('Origin',(0.,-18.6666664431492,2.));
#1576=CARTESIAN_POINT('Origin',(0.,-18.6666664431492,0.));
#1577=CARTESIAN_POINT('Origin',(-14.6418133197753,-34.7158923436411,2.));
#1578=CARTESIAN_POINT('',(14.5581866802245,-34.7158923436411,2.));
#1579=CARTESIAN_POINT('',(-14.6418133197753,-34.7158923436411,2.));
#1580=CARTESIAN_POINT('',(14.5581866802245,-34.7158923436411,2.));
#1581=CARTESIAN_POINT('',(14.5581866802245,-34.7158923436411,9.));
#1582=CARTESIAN_POINT('',(14.5581866802245,-34.7158923436411,2.));
#1583=CARTESIAN_POINT('',(-14.6418133197753,-34.7158923436411,9.));
#1584=CARTESIAN_POINT('',(14.5581866802245,-34.7158923436411,9.));
#1585=CARTESIAN_POINT('',(-14.6418133197753,-34.7158923436411,2.));
#1586=CARTESIAN_POINT('Origin',(-14.6418133197753,-16.4158923436412,2.));
#1587=CARTESIAN_POINT('',(-14.6418133197753,-16.4158923436412,2.));
#1588=CARTESIAN_POINT('',(-14.6418133197753,-34.7158923436411,2.));
#1589=CARTESIAN_POINT('',(-14.6418133197753,-16.4158923436412,9.));
#1590=CARTESIAN_POINT('',(-14.6418133197753,-34.7158923436411,9.));
#1591=CARTESIAN_POINT('',(-14.6418133197753,-16.4158923436412,2.));
#1592=CARTESIAN_POINT('Origin',(14.5581866802245,-16.4158923436412,2.));
#1593=CARTESIAN_POINT('',(14.5581866802245,-16.4158923436412,2.));
#1594=CARTESIAN_POINT('',(-14.6418133197753,-16.4158923436412,2.));
#1595=CARTESIAN_POINT('',(14.5581866802245,-16.4158923436412,9.));
#1596=CARTESIAN_POINT('',(-14.6418133197753,-16.4158923436412,9.));
#1597=CARTESIAN_POINT('',(14.5581866802245,-16.4158923436412,2.));
#1598=CARTESIAN_POINT('Origin',(14.5581866802245,-34.7158923436411,2.));
#1599=CARTESIAN_POINT('',(14.5581866802245,-16.4158923436412,2.));
#1600=CARTESIAN_POINT('',(14.5581866802245,-16.4158923436412,9.));
#1601=CARTESIAN_POINT('Origin',(-0.0418133197753967,-25.5658923436412,9.));
#1602=CARTESIAN_POINT('Origin',(-0.0418133197753967,-25.5658923436412,2.));
#1603=CARTESIAN_POINT('Origin',(0.,0.,2.));
#1604=CARTESIAN_POINT('',(6.25,7.65404249467096E-16,2.));
#1605=CARTESIAN_POINT('Origin',(0.,0.,2.));
#1606=CARTESIAN_POINT('',(6.25,7.65404249467096E-16,3.4));
#1607=CARTESIAN_POINT('',(6.25,7.65404249467096E-16,2.));
#1608=CARTESIAN_POINT('Origin',(0.,0.,3.4));
#1609=CARTESIAN_POINT('Origin',(0.,0.,3.4));
#1610=CARTESIAN_POINT('Origin',(0.,0.,5.));
#1611=CARTESIAN_POINT('',(6.25,7.65404249467096E-16,5.));
#1612=CARTESIAN_POINT('Origin',(0.,0.,5.));
#1613=CARTESIAN_POINT('',(6.25,7.65404249467096E-16,3.6));
#1614=CARTESIAN_POINT('',(6.25,-7.65404249467096E-16,5.));
#1615=CARTESIAN_POINT('Origin',(0.,0.,3.6));
#1616=CARTESIAN_POINT('Origin',(0.,0.,3.6));
#1617=CARTESIAN_POINT('Origin',(0.,0.,2.));
#1618=CARTESIAN_POINT('',(-10.,-1.22464679914735E-15,5.));
#1619=CARTESIAN_POINT('Origin',(0.,0.,5.));
#1620=CARTESIAN_POINT('',(-10.,-1.22464679914735E-15,2.));
#1621=CARTESIAN_POINT('',(-10.,-1.22464679914735E-15,2.));
#1622=CARTESIAN_POINT('Origin',(0.,0.,2.));
#1623=CARTESIAN_POINT('Origin',(0.,0.,5.));
#1624=CARTESIAN_POINT('Origin',(0.,0.,2.));
#1625=CARTESIAN_POINT('Origin',(0.,0.,5.25));
#1626=CARTESIAN_POINT('',(8.90000000000001,1.08993565124114E-15,5.));
#1627=CARTESIAN_POINT('Origin',(0.,0.,5.));
#1628=CARTESIAN_POINT('',(9.40000000000001,-1.15116799119851E-15,5.5));
#1629=CARTESIAN_POINT('',(9.15,-1.12055182121983E-15,5.25));
#1630=CARTESIAN_POINT('Origin',(0.,0.,5.5));
#1631=CARTESIAN_POINT('Origin',(0.,0.,12.));
#1632=CARTESIAN_POINT('',(9.40000000000001,-1.15116799119851E-15,12.));
#1633=CARTESIAN_POINT('',(9.4,-1.15116799119851E-15,12.));
#1634=CARTESIAN_POINT('Origin',(0.,0.,12.));
#1635=CARTESIAN_POINT('Origin',(0.,0.,5.));
#1636=CARTESIAN_POINT('',(6.14999999999998,-7.53157781475622E-16,5.));
#1637=CARTESIAN_POINT('Origin',(0.,0.,5.));
#1638=CARTESIAN_POINT('Origin',(0.,0.,12.75));
#1639=CARTESIAN_POINT('',(8.64999999999998,1.05931948126246E-15,14.));
#1640=CARTESIAN_POINT('Origin',(0.,0.,14.));
#1641=CARTESIAN_POINT('',(6.14999999999998,-7.53157781475622E-16,11.5));
#1642=CARTESIAN_POINT('',(7.4,9.06238631369041E-16,12.75));
#1643=CARTESIAN_POINT('Origin',(0.,0.,11.5));
#1644=CARTESIAN_POINT('Origin',(0.,-18.6666664431492,14.));
#1645=CARTESIAN_POINT('',(-7.93806335782492,-52.9089645742369,14.));
#1646=CARTESIAN_POINT('',(-8.825183557415,-52.3705030357754,14.));
#1647=CARTESIAN_POINT('Origin',(-7.93806335782492,-51.9089645742369,14.));
#1648=CARTESIAN_POINT('',(0.,-52.9089645742369,14.));
#1649=CARTESIAN_POINT('',(-5.50000008195639,-52.9089645742369,14.));
#1650=CARTESIAN_POINT('',(0.,-56.9089645742369,14.));
#1651=CARTESIAN_POINT('Origin',(0.,-54.9089645742369,14.));
#1652=CARTESIAN_POINT('',(-4.81646746753807,-56.9089645742369,14.));
#1653=CARTESIAN_POINT('',(0.,-56.9089645742369,14.));
#1654=CARTESIAN_POINT('',(-5.70358766712815,-58.3705030357754,14.));
#1655=CARTESIAN_POINT('Origin',(-4.81646746753807,-57.9089645742369,14.));
#1656=CARTESIAN_POINT('',(0.,-69.3333333333333,14.));
#1657=CARTESIAN_POINT('',(0.,-69.3333333333333,14.));
#1658=CARTESIAN_POINT('',(28.387846386882,-14.7692307692308,14.));
#1659=CARTESIAN_POINT('',(0.,-69.3333333333333,14.));
#1660=CARTESIAN_POINT('',(-28.3878463785331,-14.7692307852782,14.));
#1661=CARTESIAN_POINT('Origin',(0.,3.05865893723833E-7,14.));
#1662=CARTESIAN_POINT('',(0.,-69.3333333333333,14.));
#1663=CARTESIAN_POINT('Origin',(0.,0.,14.));
#1664=CARTESIAN_POINT('',(6.15,-7.53157781475622E-16,14.));
#1665=CARTESIAN_POINT('Origin',(-7.93806335782492,-51.9089645742369,14.));
#1666=CARTESIAN_POINT('',(-8.825183557415,-52.3705030357754,12.));
#1667=CARTESIAN_POINT('',(-8.825183557415,-52.3705030357754,14.));
#1668=CARTESIAN_POINT('',(-7.93806335782492,-52.9089645742369,12.));
#1669=CARTESIAN_POINT('Origin',(-7.93806335782492,-51.9089645742369,12.));
#1670=CARTESIAN_POINT('',(-7.93806335782492,-52.9089645742369,14.));
#1671=CARTESIAN_POINT('Origin',(-11.0000001639128,-52.9089645742369,14.));
#1672=CARTESIAN_POINT('',(-5.7269329355384,-52.9089645742369,12.));
#1673=CARTESIAN_POINT('',(-5.50000008195639,-52.9089645742369,12.));
#1674=CARTESIAN_POINT('',(-5.16331145534775,-52.9089645742369,9.));
#1675=CARTESIAN_POINT('',(-5.9237844737228,-52.9089645742369,13.0477858550626));
#1676=CARTESIAN_POINT('',(-3.47244701477571,-52.9089645742369,9.));
#1677=CARTESIAN_POINT('',(-5.50000008195639,-52.9089645742369,9.));
#1678=CARTESIAN_POINT('',(-3.47244701477571,-52.9089645742369,12.));
#1679=CARTESIAN_POINT('',(-3.47244701477571,-52.9089645742369,13.));
#1680=CARTESIAN_POINT('',(0.,-52.9089645742369,12.));
#1681=CARTESIAN_POINT('',(-5.50000008195639,-52.9089645742369,12.));
#1682=CARTESIAN_POINT('',(0.,-52.9089645742369,14.));
#1683=CARTESIAN_POINT('Origin',(0.,-18.6666664431492,12.));
#1684=CARTESIAN_POINT('',(-28.3878463785331,-14.7692307852782,12.));
#1685=CARTESIAN_POINT('',(0.,-69.3333333333333,12.));
#1686=CARTESIAN_POINT('',(28.387846386882,-14.7692307692308,12.));
#1687=CARTESIAN_POINT('Origin',(0.,3.05865893723833E-7,12.));
#1688=CARTESIAN_POINT('',(0.,-69.3333333333333,12.));
#1689=CARTESIAN_POINT('',(0.,-69.3333333333333,12.));
#1690=CARTESIAN_POINT('',(-5.70358766712815,-58.3705030357754,12.));
#1691=CARTESIAN_POINT('',(0.,-69.3333333333333,12.));
#1692=CARTESIAN_POINT('',(-4.81646746753807,-56.9089645742369,12.));
#1693=CARTESIAN_POINT('Origin',(-4.81646746753807,-57.9089645742369,12.));
#1694=CARTESIAN_POINT('',(-3.64586900868051,-56.9089645742369,12.));
#1695=CARTESIAN_POINT('',(0.,-56.9089645742369,12.));
#1696=CARTESIAN_POINT('',(0.,-63.9166666666667,12.));
#1697=CARTESIAN_POINT('',(-9.26358212993932,-46.1111932059335,12.));
#1698=CARTESIAN_POINT('',(26.1700458899941,-13.6153846113728,12.));
#1699=CARTESIAN_POINT('',(22.3486050749364,-20.9605521782865,12.));
#1700=CARTESIAN_POINT('',(-26.1700458879069,-13.6153846153846,12.));
#1701=CARTESIAN_POINT('Origin',(0.,3.05865893723833E-7,12.));
#1702=CARTESIAN_POINT('',(-9.26358212993932,-46.1111932059335,12.));
#1703=CARTESIAN_POINT('Origin',(-4.81646746753807,-57.9089645742369,14.));
#1704=CARTESIAN_POINT('',(-5.70358766712815,-58.3705030357754,14.));
#1705=CARTESIAN_POINT('',(-4.81646746753807,-56.9089645742369,14.));
#1706=CARTESIAN_POINT('Origin',(0.,-56.9089645742369,14.));
#1707=CARTESIAN_POINT('',(0.,-56.9089645742369,12.));
#1708=CARTESIAN_POINT('',(0.,-56.9089645742369,14.));
#1709=CARTESIAN_POINT('',(-1.39138308791779,-56.9089645742369,12.));
#1710=CARTESIAN_POINT('',(0.,-56.9089645742369,12.));
#1711=CARTESIAN_POINT('',(-1.39138308791779,-56.9089645742369,9.));
#1712=CARTESIAN_POINT('',(-1.39138308791779,-56.9089645742369,13.));
#1713=CARTESIAN_POINT('',(-3.08224752848982,-56.9089645742369,9.));
#1714=CARTESIAN_POINT('',(0.,-56.9089645742369,9.));
#1715=CARTESIAN_POINT('',(-3.72615806750005,-56.9089645742369,12.4273562753093));
#1716=CARTESIAN_POINT('Origin',(-9.34035214721156,-45.4219673676692,10.5));
#1717=CARTESIAN_POINT('',(0.,-62.8333333333333,9.));
#1718=CARTESIAN_POINT('',(-9.11857209731405,-45.3065827522846,9.));
#1719=CARTESIAN_POINT('',(0.,-62.8333333333333,9.));
#1720=CARTESIAN_POINT('Origin',(-9.34035214721156,-45.4219673676692,10.5));
#1721=CARTESIAN_POINT('',(-25.7264857881119,-13.3846153846154,9.00000000000001));
#1722=CARTESIAN_POINT('',(-26.1700458879069,-13.6153846153846,12.));
#1723=CARTESIAN_POINT('',(-9.11857209731405,-45.3065827522846,9.));
#1724=CARTESIAN_POINT('Origin',(0.,3.05865893723833E-7,10.5));
#1725=CARTESIAN_POINT('',(25.7264857922863,-13.3846153765917,9.));
#1726=CARTESIAN_POINT('',(26.1700458899941,-13.6153846113728,12.));
#1727=CARTESIAN_POINT('Origin',(0.,3.05865893723833E-7,9.));
#1728=CARTESIAN_POINT('Origin',(22.4253750922086,-20.2713263400223,10.5));
#1729=CARTESIAN_POINT('',(22.2035950423111,-20.1559417246376,9.));
#1730=CARTESIAN_POINT('Origin',(0.,-54.9089645742369,14.));
#1731=CARTESIAN_POINT('Origin',(0.,-54.9089645742369,12.));
#1732=CARTESIAN_POINT('Origin',(-24.3958054972172,-12.6923076759883,12.));
#1733=CARTESIAN_POINT('',(0.,-59.5833333333333,12.));
#1734=CARTESIAN_POINT('',(-20.5743646789579,-20.0374752490559,12.));
#1735=CARTESIAN_POINT('',(0.,-59.5833333333333,9.));
#1736=CARTESIAN_POINT('',(0.,-59.5833333333333,12.));
#1737=CARTESIAN_POINT('',(0.,-59.5833333333333,9.));
#1738=CARTESIAN_POINT('Origin',(0.,-69.3333333333333,14.));
#1739=CARTESIAN_POINT('',(0.,-69.3333333333333,14.));
#1740=CARTESIAN_POINT('Origin',(0.,-69.3333333333333,14.));
#1741=CARTESIAN_POINT('',(-28.3878463785331,-14.7692307852782,14.));
#1742=CARTESIAN_POINT('Origin',(0.,-17.2083331098159,9.));
#1743=CARTESIAN_POINT('',(24.395805490814,-12.6923076882958,9.));
#1744=CARTESIAN_POINT('',(0.,-59.5833333333333,9.));
#1745=CARTESIAN_POINT('',(-24.3958054972172,-12.6923076759883,9.));
#1746=CARTESIAN_POINT('Origin',(0.,3.05865893723833E-7,9.));
#1747=CARTESIAN_POINT('',(0.,-59.5833333333333,9.));
#1748=CARTESIAN_POINT('Origin',(0.,3.05865893723833E-7,12.));
#1749=CARTESIAN_POINT('',(-24.3958054972172,-12.6923076759883,12.));
#1750=CARTESIAN_POINT('',(24.395805490814,-12.6923076882958,12.));
#1751=CARTESIAN_POINT('Origin',(0.,3.05865893723833E-7,12.));
#1752=CARTESIAN_POINT('',(-24.3958054972172,-12.6923076759883,12.));
#1753=CARTESIAN_POINT('',(24.395805490814,-12.6923076882958,12.));
#1754=CARTESIAN_POINT('Origin',(0.,-59.5833333333333,12.));
#1755=CARTESIAN_POINT('',(8.37646193034928,-43.4829880777284,12.));
#1756=CARTESIAN_POINT('Origin',(-24.3958054972172,-12.6923076759883,12.));
#1757=CARTESIAN_POINT('',(-20.5743646789579,-20.0374752490559,12.));
#1758=CARTESIAN_POINT('Origin',(28.387846386882,-14.7692307692308,14.));
#1759=CARTESIAN_POINT('',(28.387846386882,-14.7692307692308,14.));
#1760=CARTESIAN_POINT('Origin',(0.,3.05865893723833E-7,14.));
#1761=CARTESIAN_POINT('Origin',(0.,-18.6666664431492,12.));
#1762=UNCERTAINTY_MEASURE_WITH_UNIT(LENGTH_MEASURE(0.01),#1766,
'DISTANCE_ACCURACY_VALUE',
'Maximum model space distance between geometric entities at asserted c
onnectivities');
#1763=UNCERTAINTY_MEASURE_WITH_UNIT(LENGTH_MEASURE(0.01),#1766,
'DISTANCE_ACCURACY_VALUE',
'Maximum model space distance between geometric entities at asserted c
onnectivities');
#1764=(
GEOMETRIC_REPRESENTATION_CONTEXT(3)
GLOBAL_UNCERTAINTY_ASSIGNED_CONTEXT((#1762))
GLOBAL_UNIT_ASSIGNED_CONTEXT((#1766,#1768,#1769))
REPRESENTATION_CONTEXT('','3D')
);
#1765=(
GEOMETRIC_REPRESENTATION_CONTEXT(3)
GLOBAL_UNCERTAINTY_ASSIGNED_CONTEXT((#1763))
GLOBAL_UNIT_ASSIGNED_CONTEXT((#1766,#1768,#1769))
REPRESENTATION_CONTEXT('','3D')
);
#1766=(
LENGTH_UNIT()
NAMED_UNIT(*)
SI_UNIT(.MILLI.,.METRE.)
);
#1767=(
LENGTH_UNIT()
NAMED_UNIT(*)
SI_UNIT($,.METRE.)
);
#1768=(
NAMED_UNIT(*)
PLANE_ANGLE_UNIT()
SI_UNIT($,.RADIAN.)
);
#1769=(
NAMED_UNIT(*)
SI_UNIT($,.STERADIAN.)
SOLID_ANGLE_UNIT()
);
#1770=SHAPE_DEFINITION_REPRESENTATION(#1771,#1772);
#1771=PRODUCT_DEFINITION_SHAPE('',$,#1774);
#1772=SHAPE_REPRESENTATION('',(#1048),#1764);
#1773=PRODUCT_DEFINITION_CONTEXT('part definition',#1778,'design');
#1774=PRODUCT_DEFINITION('Mini humidifer case_Drop',
'Mini humidifer case_Drop v8',#1775,#1773);
#1775=PRODUCT_DEFINITION_FORMATION('',$,#1780);
#1776=PRODUCT_RELATED_PRODUCT_CATEGORY('Mini humidifer case_Drop v8',
'Mini humidifer case_Drop v8',(#1780));
#1777=APPLICATION_PROTOCOL_DEFINITION('international standard',
'automotive_design',2009,#1778);
#1778=APPLICATION_CONTEXT(
'Core Data for Automotive Mechanical Design Process');
#1779=PRODUCT_CONTEXT('part definition',#1778,'mechanical');
#1780=PRODUCT('Mini humidifer case_Drop','Mini humidifer case_Drop v8',
$,(#1779));
#1781=PRESENTATION_STYLE_ASSIGNMENT((#1783));
#1782=PRESENTATION_STYLE_ASSIGNMENT((#1784));
#1783=SURFACE_STYLE_USAGE(.BOTH.,#1785);
#1784=SURFACE_STYLE_USAGE(.BOTH.,#1786);
#1785=SURFACE_SIDE_STYLE('',(#1787));
#1786=SURFACE_SIDE_STYLE('',(#1788));
#1787=SURFACE_STYLE_FILL_AREA(#1789);
#1788=SURFACE_STYLE_FILL_AREA(#1790);
#1789=FILL_AREA_STYLE('Steel - Satin',(#1791));
#1790=FILL_AREA_STYLE('Plastic - Matte (Blue)',(#1792));
#1791=FILL_AREA_STYLE_COLOUR('Steel - Satin',#1793);
#1792=FILL_AREA_STYLE_COLOUR('Plastic - Matte (Blue)',#1794);
#1793=COLOUR_RGB('Steel - Satin',0.627450980392157,0.627450980392157,0.627450980392157);
#1794=COLOUR_RGB('Plastic - Matte (Blue)',0.188235294117647,0.231372549019608,
0.588235294117647);
ENDSEC;
END-ISO-10303-21;
